<?xml version="1.0" encoding="UTF-8" standalone="no"?>
<svg
   xmlns:dc="http://purl.org/dc/elements/1.1/"
   xmlns:cc="http://creativecommons.org/ns#"
   xmlns:rdf="http://www.w3.org/1999/02/22-rdf-syntax-ns#"
   xmlns:svg="http://www.w3.org/2000/svg"
   xmlns="http://www.w3.org/2000/svg"
   viewBox="0 0 66.666664 40"
   height="40"
   width="66.666664"
   xml:space="preserve"
   id="svg2"
   version="1.1"><metadata
     id="metadata8"><rdf:RDF><cc:Work
         rdf:about=""><dc:format>image/svg+xml</dc:format><dc:type
           rdf:resource="http://purl.org/dc/dcmitype/StillImage" /><dc:title></dc:title></cc:Work></rdf:RDF></metadata><defs
     id="defs6" /><g
     transform="matrix(1.3333333,0,0,-1.3333333,0,40)"
     id="g10"><g
       transform="scale(0.1)"
       id="g12"><path
         id="path14"
         style="fill:#242b39;fill-opacity:1;fill-rule:nonzero;stroke:none"
         d="m 420.5,143.758 c -8.727,0 -17.266,0.972 -25.605,2.906 -8.34,1.938 -14.743,4.172 -19.204,6.695 -2.714,1.547 -4.414,3.098 -5.089,4.657 -0.68,1.547 -1.02,3.097 -1.02,4.652 v 8.437 c 0,3.493 1.262,5.239 3.785,5.239 0.969,0 1.985,-0.196 3.055,-0.582 1.062,-0.391 2.473,-0.973 4.219,-1.746 5.621,-2.524 11.73,-4.465 18.328,-5.821 6.594,-1.355 13.191,-2.035 19.785,-2.035 10.476,0 18.574,1.84 24.297,5.528 5.719,3.683 8.582,8.921 8.582,15.71 0,4.657 -1.504,8.536 -4.512,11.641 -3.008,3.102 -8.582,6.008 -16.726,8.727 l -24.153,7.566 c -12.219,3.879 -21.094,9.5 -26.621,16.875 -5.527,7.371 -8.293,15.422 -8.293,24.148 0,6.985 1.5,13.141 4.512,18.477 3.004,5.332 6.98,9.895 11.93,13.676 4.945,3.781 10.714,6.64 17.308,8.582 6.594,1.937 13.578,2.91 20.949,2.91 3.684,0 7.422,-0.246 11.203,-0.727 3.786,-0.488 7.372,-1.121 10.766,-1.89 3.391,-0.778 6.547,-1.653 9.457,-2.621 2.906,-0.973 5.235,-1.942 6.981,-2.91 2.328,-1.36 3.972,-2.719 4.949,-4.071 0.969,-1.359 1.453,-3.203 1.453,-5.531 v -7.855 c 0,-3.489 -1.266,-5.235 -3.781,-5.235 -1.36,0 -3.492,0.676 -6.403,2.035 -9.504,4.266 -20.175,6.403 -32.004,6.403 -9.507,0 -16.875,-1.555 -22.113,-4.657 -5.238,-3.105 -7.855,-8.05 -7.855,-14.839 0,-4.657 1.644,-8.582 4.945,-11.782 3.297,-3.203 9.406,-6.257 18.332,-9.168 l 23.566,-7.562 c 12.024,-3.883 20.61,-9.219 25.75,-16.004 5.137,-6.793 7.711,-14.547 7.711,-23.277 0,-7.176 -1.457,-13.629 -4.367,-19.348 -2.906,-5.723 -6.937,-10.621 -12.074,-14.691 -5.141,-4.075 -11.301,-7.18 -18.477,-9.313 -7.175,-2.133 -15.031,-3.199 -23.566,-3.199 z m -213.562,4.363 c -2.911,0 -5.047,0.531 -6.399,1.602 -1.359,1.062 -2.523,3.246 -3.492,6.547 l -38.988,128.601 c -0.973,3.297 -1.454,5.527 -1.454,6.692 0,2.714 1.352,4.074 4.071,4.074 h 16.297 c 3.097,0 5.281,-0.539 6.547,-1.602 1.257,-1.066 2.371,-3.25 3.343,-6.547 l 27.934,-109.98 25.891,109.98 c 0.773,3.297 1.843,5.481 3.203,6.547 1.355,1.063 3.586,1.602 6.691,1.602 h 13.383 c 3.101,0 5.336,-0.539 6.691,-1.602 1.356,-1.066 2.426,-3.25 3.203,-6.547 l 26.188,-111.437 28.805,111.437 c 0.964,3.297 2.078,5.481 3.343,6.547 1.258,1.063 3.442,1.602 6.547,1.602 h 15.418 c 2.719,0 4.074,-1.36 4.074,-4.074 0,-0.778 -0.097,-1.653 -0.289,-2.618 -0.195,-0.976 -0.582,-2.328 -1.164,-4.074 L 316.629,156.27 c -0.973,-3.301 -2.137,-5.485 -3.492,-6.547 -1.36,-1.071 -3.489,-1.602 -6.399,-1.602 H 292.48 c -3.105,0 -5.335,0.582 -6.695,1.746 -1.355,1.164 -2.426,3.391 -3.199,6.692 l -25.895,107.07 -25.601,-107.07 c -0.777,-3.301 -1.848,-5.528 -3.203,-6.692 -1.36,-1.164 -3.59,-1.746 -6.692,-1.746 z M 73.3906,166.16 c 5.4297,0 11.1524,1.02 17.1641,3.055 6.0117,2.035 11.2503,5.574 15.7153,10.621 2.714,3.098 4.601,6.641 5.671,10.621 1.067,3.973 1.602,8.773 1.602,14.398 v 6.985 c -4.852,1.164 -9.945,2.082 -15.2774,2.765 -5.3359,0.676 -10.5234,1.016 -15.5664,1.016 -11.0547,0 -19.3008,-2.23 -24.7304,-6.691 -5.4336,-4.465 -8.1446,-10.864 -8.1446,-19.203 0,-7.758 2.0352,-13.629 6.1094,-17.602 4.0703,-3.977 9.8906,-5.965 17.457,-5.965 z m 67.5004,25.313 c 0,-6.211 0.629,-11.157 1.894,-14.836 1.258,-3.688 3.055,-7.668 5.379,-11.934 0.774,-1.355 1.164,-2.617 1.164,-3.781 0,-1.742 -1.066,-3.395 -3.199,-4.945 l -10.477,-6.985 c -1.55,-0.969 -3.007,-1.453 -4.363,-1.453 -1.742,0 -3.394,0.774 -4.945,2.328 -2.328,2.328 -4.317,4.895 -5.965,7.711 -1.649,2.809 -3.348,6.059 -5.094,9.746 -12.996,-15.328 -29.2889,-22.984 -48.8787,-22.984 -13.9649,0 -25.0235,3.973 -33.168,11.93 -8.1485,7.949 -12.2227,18.617 -12.2227,32.003 0,14.157 5.043,25.551 15.1328,34.188 10.0821,8.629 23.6641,12.945 40.7344,12.945 5.6211,0 11.4922,-0.433 17.6016,-1.308 6.1096,-0.871 12.4606,-2.086 19.0586,-3.637 v 12.219 c 0,12.609 -2.621,21.484 -7.855,26.625 -5.239,5.136 -14.2583,7.711 -27.0591,7.711 -5.8203,0 -11.7851,-0.731 -17.8945,-2.184 -6.1094,-1.453 -12.0781,-3.344 -17.8946,-5.672 -2.7187,-1.164 -4.6562,-1.894 -5.8203,-2.183 -1.164,-0.293 -2.0351,-0.438 -2.6172,-0.438 -2.3281,0 -3.4921,1.746 -3.4921,5.238 v 8.145 c 0,2.715 0.3867,4.656 1.164,5.82 0.7735,1.164 2.3281,2.328 4.6563,3.492 5.8164,2.911 12.8008,5.43 20.9492,7.567 8.1445,2.129 16.7734,3.199 25.8945,3.199 19.7848,0 34.2808,-4.508 43.4958,-13.531 9.211,-9.02 13.821,-22.649 13.821,-40.879 v -54.117" /><path
         id="path16"
         style="fill:#f68d11;fill-opacity:1;fill-rule:evenodd;stroke:none"
         d="M 451.945,61.8789 C 397.203,21.4805 317.844,0 249.504,0 153.73,0 67.4805,35.4023 2.21484,94.3359 -2.91016,98.9648 1.66016,105.281 7.82031,101.699 78.2383,60.7266 165.316,36.0469 255.258,36.0469 c 60.672,0 127.363,12.5937 188.734,38.6211 9.25,3.9258 17.012,-6.0977 7.953,-12.7891" /><path
         id="path18"
         style="fill:#f68d11;fill-opacity:1;fill-rule:evenodd;stroke:none"
         d="m 474.727,87.8867 c -7.004,8.961 -46.282,4.2461 -63.93,2.1328 -5.344,-0.6406 -6.176,4.0313 -1.356,7.4141 31.336,22.0074 82.68,15.6564 88.649,8.2854 6.008,-7.4338 -1.582,-58.9104 -30.945,-83.4768 -4.516,-3.7734 -8.813,-1.7617 -6.809,3.2266 6.605,16.5039 21.398,53.4453 14.391,62.4179" /><path
         id="path20"
         style="fill:#242b39;fill-opacity:1;fill-rule:nonzero;stroke:none"
         d="m 420.5,143.758 c -8.727,0 -17.266,0.972 -25.605,2.906 -8.34,1.938 -14.743,4.172 -19.204,6.695 -2.714,1.547 -4.414,3.098 -5.089,4.657 -0.68,1.547 -1.02,3.097 -1.02,4.652 v 8.437 c 0,3.493 1.262,5.239 3.785,5.239 0.969,0 1.985,-0.196 3.055,-0.582 1.062,-0.391 2.473,-0.973 4.219,-1.746 5.621,-2.524 11.73,-4.465 18.328,-5.821 6.594,-1.355 13.191,-2.035 19.785,-2.035 10.476,0 18.574,1.84 24.297,5.528 5.719,3.683 8.582,8.921 8.582,15.71 0,4.657 -1.504,8.536 -4.512,11.641 -3.008,3.102 -8.582,6.008 -16.726,8.727 l -24.153,7.566 c -12.219,3.879 -21.094,9.5 -26.621,16.875 -5.527,7.371 -8.293,15.422 -8.293,24.148 0,6.985 1.5,13.141 4.512,18.477 3.004,5.332 6.98,9.895 11.93,13.676 4.945,3.781 10.714,6.64 17.308,8.582 6.594,1.937 13.578,2.91 20.949,2.91 3.684,0 7.422,-0.246 11.203,-0.727 3.786,-0.488 7.372,-1.121 10.766,-1.89 3.391,-0.778 6.547,-1.653 9.457,-2.621 2.906,-0.973 5.235,-1.942 6.981,-2.91 2.328,-1.36 3.972,-2.719 4.949,-4.071 0.969,-1.359 1.453,-3.203 1.453,-5.531 v -7.855 c 0,-3.489 -1.266,-5.235 -3.781,-5.235 -1.36,0 -3.492,0.676 -6.403,2.035 -9.504,4.266 -20.175,6.403 -32.004,6.403 -9.507,0 -16.875,-1.555 -22.113,-4.657 -5.238,-3.105 -7.855,-8.05 -7.855,-14.839 0,-4.657 1.644,-8.582 4.945,-11.782 3.297,-3.203 9.406,-6.257 18.332,-9.168 l 23.566,-7.562 c 12.024,-3.883 20.61,-9.219 25.75,-16.004 5.137,-6.793 7.711,-14.547 7.711,-23.277 0,-7.176 -1.457,-13.629 -4.367,-19.348 -2.906,-5.723 -6.937,-10.621 -12.074,-14.691 -5.141,-4.075 -11.301,-7.18 -18.477,-9.313 -7.175,-2.133 -15.031,-3.199 -23.566,-3.199 z m -213.562,4.363 c -2.911,0 -5.047,0.531 -6.399,1.602 -1.359,1.062 -2.523,3.246 -3.492,6.547 l -38.988,128.601 c -0.973,3.297 -1.454,5.527 -1.454,6.692 0,2.714 1.352,4.074 4.071,4.074 h 16.297 c 3.097,0 5.281,-0.539 6.547,-1.602 1.257,-1.066 2.371,-3.25 3.343,-6.547 l 27.934,-109.98 25.891,109.98 c 0.773,3.297 1.843,5.481 3.203,6.547 1.355,1.063 3.586,1.602 6.691,1.602 h 13.383 c 3.101,0 5.336,-0.539 6.691,-1.602 1.356,-1.066 2.426,-3.25 3.203,-6.547 l 26.188,-111.437 28.805,111.437 c 0.964,3.297 2.078,5.481 3.343,6.547 1.258,1.063 3.442,1.602 6.547,1.602 h 15.418 c 2.719,0 4.074,-1.36 4.074,-4.074 0,-0.778 -0.097,-1.653 -0.289,-2.618 -0.195,-0.976 -0.582,-2.328 -1.164,-4.074 L 316.629,156.27 c -0.973,-3.301 -2.137,-5.485 -3.492,-6.547 -1.36,-1.071 -3.489,-1.602 -6.399,-1.602 H 292.48 c -3.105,0 -5.335,0.582 -6.695,1.746 -1.355,1.164 -2.426,3.391 -3.199,6.692 l -25.895,107.07 -25.601,-107.07 c -0.777,-3.301 -1.848,-5.528 -3.203,-6.692 -1.36,-1.164 -3.59,-1.746 -6.692,-1.746 z M 73.3906,166.16 c 5.4297,0 11.1524,1.02 17.1641,3.055 6.0117,2.035 11.2503,5.574 15.7153,10.621 2.714,3.098 4.601,6.641 5.671,10.621 1.067,3.973 1.602,8.773 1.602,14.398 v 6.985 c -4.852,1.164 -9.945,2.082 -15.2774,2.765 -5.3359,0.676 -10.5234,1.016 -15.5664,1.016 -11.0547,0 -19.3008,-2.23 -24.7304,-6.691 -5.4336,-4.465 -8.1446,-10.864 -8.1446,-19.203 0,-7.758 2.0352,-13.629 6.1094,-17.602 4.0703,-3.977 9.8906,-5.965 17.457,-5.965 z m 67.5004,25.313 c 0,-6.211 0.629,-11.157 1.894,-14.836 1.258,-3.688 3.055,-7.668 5.379,-11.934 0.774,-1.355 1.164,-2.617 1.164,-3.781 0,-1.742 -1.066,-3.395 -3.199,-4.945 l -10.477,-6.985 c -1.55,-0.969 -3.007,-1.453 -4.363,-1.453 -1.742,0 -3.394,0.774 -4.945,2.328 -2.328,2.328 -4.317,4.895 -5.965,7.711 -1.649,2.809 -3.348,6.059 -5.094,9.746 -12.996,-15.328 -29.2889,-22.984 -48.8787,-22.984 -13.9649,0 -25.0235,3.973 -33.168,11.93 -8.1485,7.949 -12.2227,18.617 -12.2227,32.003 0,14.157 5.043,25.551 15.1328,34.188 10.0821,8.629 23.6641,12.945 40.7344,12.945 5.6211,0 11.4922,-0.433 17.6016,-1.308 6.1096,-0.871 12.4606,-2.086 19.0586,-3.637 v 12.219 c 0,12.609 -2.621,21.484 -7.855,26.625 -5.239,5.136 -14.2583,7.711 -27.0591,7.711 -5.8203,0 -11.7851,-0.731 -17.8945,-2.184 -6.1094,-1.453 -12.0781,-3.344 -17.8946,-5.672 -2.7187,-1.164 -4.6562,-1.894 -5.8203,-2.183 -1.164,-0.293 -2.0351,-0.438 -2.6172,-0.438 -2.3281,0 -3.4921,1.746 -3.4921,5.238 v 8.145 c 0,2.715 0.3867,4.656 1.164,5.82 0.7735,1.164 2.3281,2.328 4.6563,3.492 5.8164,2.911 12.8008,5.43 20.9492,7.567 8.1445,2.129 16.7734,3.199 25.8945,3.199 19.7848,0 34.2808,-4.508 43.4958,-13.531 9.211,-9.02 13.821,-22.649 13.821,-40.879 v -54.117" /><path
         id="path22"
         style="fill:#f68d11;fill-opacity:1;fill-rule:evenodd;stroke:none"
         d="M 451.945,61.8789 C 397.203,21.4805 317.844,0 249.504,0 153.73,0 67.4805,35.4023 2.21484,94.3359 -2.91016,98.9648 1.66016,105.281 7.82031,101.699 78.2383,60.7266 165.316,36.0469 255.258,36.0469 c 60.672,0 127.363,12.5937 188.734,38.6211 9.25,3.9258 17.012,-6.0977 7.953,-12.7891" /><path
         id="path24"
         style="fill:#f68d11;fill-opacity:1;fill-rule:evenodd;stroke:none"
         d="m 474.727,87.8867 c -7.004,8.961 -46.282,4.2461 -63.93,2.1328 -5.344,-0.6406 -6.176,4.0313 -1.356,7.4141 31.336,22.0074 82.68,15.6564 88.649,8.2854 6.008,-7.4338 -1.582,-58.9104 -30.945,-83.4768 -4.516,-3.7734 -8.813,-1.7617 -6.809,3.2266 6.605,16.5039 21.398,53.4453 14.391,62.4179" /></g></g></svg>