<?xml version="1.0" encoding="utf-8"?>
<!-- Generator: Adobe Illustrator 18.0.0, SVG Export Plug-In . SVG Version: 6.00 Build 0)  -->
<!DOCTYPE svg PUBLIC "-//W3C//DTD SVG 1.1//EN" "http://www.w3.org/Graphics/SVG/1.1/DTD/svg11.dtd">
<svg version="1.1" id="圖層_1" xmlns="http://www.w3.org/2000/svg" xmlns:xlink="http://www.w3.org/1999/xlink" x="0px" y="0px"
	 viewBox="0 0 170.1 226.8" enable-background="new 0 0 170.1 226.8" xml:space="preserve">
<g>
	<polygon fill="#333534" points="28.1,159.5 28.1,188.9 30.1,190.9 51.3,190.9 56.1,185.3 58,185.3 62.8,190.9 78.6,190.9 
		82.8,186.8 82.8,183.4 84.4,183.4 84.4,186.9 86.2,190.9 95.5,190.9 97.4,189.5 97.4,183.4 100.9,183.4 100.9,188.9 102.9,190.9 
		112.3,190.9 114.3,189.7 114.3,186.2 115.8,186.2 119.5,190.9 139,190.9 142,188 142,167 137,162.1 130.9,158.2 116,158.2 
		109.5,165.8 102.1,158.2 82.8,158.2 79,163.3 73.9,158.2 59.6,158.2 54.6,163.3 51.3,163.3 46.2,158.2 28.1,158.2 	"/>
	<g>
		<g>
			<path fill="none" stroke="#FFFFFF" stroke-width="6" stroke-miterlimit="10" d="M30.8,158.2h8.4v25.1h-8.4V158.2z M46.7,163.3
				h-6.2v-5h9.7l5,5v5.1l-2.5,2.5l2.5,2.5v4.9l-5,5h-9.7v-5h6.2V173h-6.2v-4.4h6.2V163.3z"/>
			<path fill="#333534" d="M30.8,158.2h8.4v25.1h-8.4V158.2z M46.7,163.3h-6.2v-5h9.7l5,5v5.1l-2.5,2.5l2.5,2.5v4.9l-5,5h-9.7v-5
				h6.2V173h-6.2v-4.4h6.2V163.3z"/>
		</g>
		<g>
			<path fill="none" stroke="#FFFFFF" stroke-width="6" stroke-miterlimit="10" d="M66.9,178.3h3.1v5.1h-6.4l-5.1-5v-15.1l5.1-5h6.4
				v5.1h-3.1V178.3z M74.6,163.3h-3.2v-5.1h6.5l5.1,5v15.1l-5.1,5h-6.5v-5.1h3.2V163.3z"/>
			<path fill="#333534" d="M66.9,178.3h3.1v5.1h-6.4l-5.1-5v-15.1l5.1-5h6.4v5.1h-3.1V178.3z M74.6,163.3h-3.2v-5.1h6.5l5.1,5v15.1
				l-5.1,5h-6.5v-5.1h3.2V163.3z"/>
		</g>
		<g>
			<path fill="none" stroke="#FFFFFF" stroke-width="6" stroke-miterlimit="10" d="M86.8,183.4v-25.1h8.4v25.1H86.8z M96.5,163.3v-5
				h9.6l5,5v7.5l-3.9,3.9l-0.3-0.5l-7.9,1l0.3,0.7h-2.9V171h6.3v-7.7H96.5z M112,183.4h-8.9l-3.6-7.5h6.6l1.2-1.2L112,183.4z"/>
			<path fill="#333534" d="M86.8,183.4v-25.1h8.4v25.1H86.8z M96.5,163.3v-5h9.6l5,5v7.5l-3.9,3.9l-0.3-0.5l-7.9,1l0.3,0.7h-2.9V171
				h6.3v-7.7H96.5z M112,183.4h-8.9l-3.6-7.5h6.6l1.2-1.2L112,183.4z"/>
		</g>
		<g>
			<path fill="none" stroke="#FFFFFF" stroke-width="6" stroke-miterlimit="10" d="M123.3,178.4h7.2v5H120l-5-5v-15.1l5-5h3.4V178.4
				z M124.7,163.3v-5h10.2l4.4,5v2.5h-8.4v-2.5H124.7z M127.8,169.4h11.5v13.9h-7.4v-9h-4.1V169.4z"/>
			<path fill="#333534" d="M123.3,178.4h7.2v5H120l-5-5v-15.1l5-5h3.4V178.4z M124.7,163.3v-5h10.2l4.4,5v2.5h-8.4v-2.5H124.7z
				 M127.8,169.4h11.5v13.9h-7.4v-9h-4.1V169.4z"/>
		</g>
	</g>
	<g>
		<g>
			<path fill="none" stroke="#FFFFFF" stroke-width="2" stroke-miterlimit="10" d="M12.1,206.6c0.4-0.3,0.7-0.4,1.1-0.1
				c0.2,0.1,0.3,0.3,0.5,0.4c0.4,0.4,0.6,0.6,0.5,0.7c-0.1,0.1,0,0.3,0.3,0.5c1.8,1.2,3.8,2.3,6,3.1c0.4,0.2,0.6,0.4,0.4,0.8
				c-0.2,0.3-0.4,0.6-0.5,0.9c-0.2,0.4-0.5,0.6-0.9,0.4c-2-0.8-4.1-2.1-6.5-3.9c-0.3-0.2-0.6-0.2-0.9,0.1c-1.9,1.5-3.8,2.7-5.8,3.7
				c-0.4,0.2-0.7,0.1-0.9-0.3l-0.5-0.9c-0.2-0.4-0.1-0.6,0.2-0.8C7.4,210.2,9.8,208.7,12.1,206.6z M12,211.9c0-0.4,0.2-0.5,0.5-0.5
				h1c0.4,0,0.5,0.2,0.5,0.5v2.2c0,0.3,0.1,0.4,0.4,0.4h3.8c0.4,0,0.5,0.2,0.5,0.5v1c0,0.4-0.2,0.5-0.5,0.5h-3.8
				c-0.3,0-0.4,0.1-0.4,0.4v2.7c0,0.3,0.1,0.4,0.4,0.4h5.4c0.4,0,0.5,0.2,0.5,0.5v0.9c0,0.4-0.2,0.5-0.5,0.5H5.4
				c-0.4,0-0.5-0.2-0.5-0.5v-0.9c0-0.4,0.2-0.5,0.5-0.5h1.4c0.3,0,0.4-0.1,0.4-0.4v-5.4c0-0.4,0.2-0.5,0.5-0.5h1
				c0.4,0,0.5,0.2,0.5,0.5v5.4c0,0.3,0.1,0.4,0.4,0.4h1.7c0.3,0,0.4-0.1,0.4-0.4V211.9z"/>
			<path fill="#333534" d="M12.1,206.6c0.4-0.3,0.7-0.4,1.1-0.1c0.2,0.1,0.3,0.3,0.5,0.4c0.4,0.4,0.6,0.6,0.5,0.7
				c-0.1,0.1,0,0.3,0.3,0.5c1.8,1.2,3.8,2.3,6,3.1c0.4,0.2,0.6,0.4,0.4,0.8c-0.2,0.3-0.4,0.6-0.5,0.9c-0.2,0.4-0.5,0.6-0.9,0.4
				c-2-0.8-4.1-2.1-6.5-3.9c-0.3-0.2-0.6-0.2-0.9,0.1c-1.9,1.5-3.8,2.7-5.8,3.7c-0.4,0.2-0.7,0.1-0.9-0.3l-0.5-0.9
				c-0.2-0.4-0.1-0.6,0.2-0.8C7.4,210.2,9.8,208.7,12.1,206.6z M12,211.9c0-0.4,0.2-0.5,0.5-0.5h1c0.4,0,0.5,0.2,0.5,0.5v2.2
				c0,0.3,0.1,0.4,0.4,0.4h3.8c0.4,0,0.5,0.2,0.5,0.5v1c0,0.4-0.2,0.5-0.5,0.5h-3.8c-0.3,0-0.4,0.1-0.4,0.4v2.7
				c0,0.3,0.1,0.4,0.4,0.4h5.4c0.4,0,0.5,0.2,0.5,0.5v0.9c0,0.4-0.2,0.5-0.5,0.5H5.4c-0.4,0-0.5-0.2-0.5-0.5v-0.9
				c0-0.4,0.2-0.5,0.5-0.5h1.4c0.3,0,0.4-0.1,0.4-0.4v-5.4c0-0.4,0.2-0.5,0.5-0.5h1c0.4,0,0.5,0.2,0.5,0.5v5.4
				c0,0.3,0.1,0.4,0.4,0.4h1.7c0.3,0,0.4-0.1,0.4-0.4V211.9z"/>
		</g>
		<g>
			<path fill="none" stroke="#FFFFFF" stroke-width="2" stroke-miterlimit="10" d="M34,206.8c0-0.4,0.2-0.6,0.5-0.6h0.9
				c0.4,0,0.5,0.2,0.5,0.5v1.6c0,0.3,0.1,0.4,0.4,0.4h0.7c0.3,0,0.4-0.1,0.4-0.4v-1.6c0-0.4,0.2-0.5,0.5-0.5H39
				c0.4,0,0.5,0.2,0.5,0.5v1.6c0,0.3,0.1,0.4,0.4,0.4c0.3,0,0.5-0.2,0.7-0.5l0.4-1.1c0.1-0.4,0.4-0.5,0.7-0.4
				c0.3,0.1,0.7,0.2,1.1,0.3c0.4,0.1,0.5,0.4,0.3,0.7l-0.2,0.5c-0.2,0.3-0.1,0.5,0.2,0.5h1.1c0.4,0,0.5,0.2,0.5,0.5v0.7
				c0,0.4-0.2,0.5-0.5,0.5h-2.5c-0.3,0-0.5,0.2-0.7,0.5c-0.2,0.4-0.1,0.6,0.2,0.6h2.5c0.4,0,0.5,0.2,0.5,0.5v0.8
				c0,0.4-0.2,0.5-0.5,0.5h-5.4c-0.3,0-0.4,0.1-0.4,0.3c0,0.2,0.1,0.3,0.4,0.3h4.6c0.4,0,0.5,0.2,0.5,0.5v0.7c0,0.4-0.2,0.5-0.5,0.5
				h-4.6c-0.3,0-0.4,0.1-0.4,0.3c0,0.2,0.1,0.3,0.4,0.3h6c0.4,0,0.5,0.2,0.5,0.5v0.8c0,0.4-0.2,0.5-0.5,0.5H41c-0.4,0-0.4,0.1,0,0.3
				c0.9,0.4,2,0.7,3.3,0.9c0.4,0.1,0.4,0.3,0.3,0.6c-0.2,0.4-0.4,0.7-0.5,1.1c-0.2,0.4-0.5,0.5-0.9,0.4c-1.8-0.6-3.4-1.4-4.8-2.4
				c-0.4-0.3-0.5-0.2-0.5,0v2.4c0,0.4-0.2,0.5-0.5,0.5h-1c-0.4,0-0.5-0.2-0.5-0.5v-2.3c0-0.3-0.2-0.3-0.6,0
				c-1.2,0.9-2.8,1.7-4.7,2.4c-0.4,0.1-0.6,0-0.8-0.4l-0.4-0.7c-0.3-0.4-0.2-0.7,0.2-0.8c1.2-0.3,2.3-0.7,3.4-1.2
				c0.4-0.2,0.4-0.3,0-0.3h-3.2c-0.4,0-0.5-0.2-0.5-0.5v-0.8c0-0.4,0.2-0.5,0.5-0.5h5.7c0.3,0,0.4-0.1,0.4-0.3
				c0-0.2-0.1-0.3-0.4-0.3h-4.2c-0.4,0-0.5-0.2-0.5-0.5v-0.7c0-0.4,0.2-0.5,0.5-0.5h4.2c0.3,0,0.4-0.1,0.4-0.3
				c0-0.2-0.1-0.3-0.4-0.3h-5c-0.4,0-0.5-0.2-0.5-0.5v-0.8c0-0.4,0.2-0.5,0.5-0.5h1.9c0.3,0,0.4-0.2,0.2-0.5
				c-0.2-0.4-0.4-0.6-0.6-0.6h-2.2c-0.4,0-0.5-0.2-0.5-0.5v-0.7c0-0.4,0.2-0.5,0.5-0.5h0.9c0.3,0,0.3-0.2,0.1-0.5
				c-0.3-0.4-0.3-0.7,0-0.9l0.7-0.4c0.4-0.2,0.7-0.1,1,0.2c0.2,0.2,0.3,0.4,0.5,0.7c0.2,0.4,0.2,0.6,0,0.7c-0.2,0.2-0.1,0.2,0.2,0.2
				h0.6c0.3,0,0.4-0.1,0.4-0.4V206.8z M38.8,211.2c0.1-0.4,0.1-0.6-0.2-0.6h-3.8c-0.3,0-0.4,0.2-0.2,0.5c0.1,0.4,0.3,0.6,0.6,0.6h3
				C38.4,211.7,38.7,211.5,38.8,211.2z"/>
			<path fill="#333534" d="M34,206.8c0-0.4,0.2-0.6,0.5-0.6h0.9c0.4,0,0.5,0.2,0.5,0.5v1.6c0,0.3,0.1,0.4,0.4,0.4h0.7
				c0.3,0,0.4-0.1,0.4-0.4v-1.6c0-0.4,0.2-0.5,0.5-0.5H39c0.4,0,0.5,0.2,0.5,0.5v1.6c0,0.3,0.1,0.4,0.4,0.4c0.3,0,0.5-0.2,0.7-0.5
				l0.4-1.1c0.1-0.4,0.4-0.5,0.7-0.4c0.3,0.1,0.7,0.2,1.1,0.3c0.4,0.1,0.5,0.4,0.3,0.7l-0.2,0.5c-0.2,0.3-0.1,0.5,0.2,0.5h1.1
				c0.4,0,0.5,0.2,0.5,0.5v0.7c0,0.4-0.2,0.5-0.5,0.5h-2.5c-0.3,0-0.5,0.2-0.7,0.5c-0.2,0.4-0.1,0.6,0.2,0.6h2.5
				c0.4,0,0.5,0.2,0.5,0.5v0.8c0,0.4-0.2,0.5-0.5,0.5h-5.4c-0.3,0-0.4,0.1-0.4,0.3c0,0.2,0.1,0.3,0.4,0.3h4.6c0.4,0,0.5,0.2,0.5,0.5
				v0.7c0,0.4-0.2,0.5-0.5,0.5h-4.6c-0.3,0-0.4,0.1-0.4,0.3c0,0.2,0.1,0.3,0.4,0.3h6c0.4,0,0.5,0.2,0.5,0.5v0.8
				c0,0.4-0.2,0.5-0.5,0.5H41c-0.4,0-0.4,0.1,0,0.3c0.9,0.4,2,0.7,3.3,0.9c0.4,0.1,0.4,0.3,0.3,0.6c-0.2,0.4-0.4,0.7-0.5,1.1
				c-0.2,0.4-0.5,0.5-0.9,0.4c-1.8-0.6-3.4-1.4-4.8-2.4c-0.4-0.3-0.5-0.2-0.5,0v2.4c0,0.4-0.2,0.5-0.5,0.5h-1
				c-0.4,0-0.5-0.2-0.5-0.5v-2.3c0-0.3-0.2-0.3-0.6,0c-1.2,0.9-2.8,1.7-4.7,2.4c-0.4,0.1-0.6,0-0.8-0.4l-0.4-0.7
				c-0.3-0.4-0.2-0.7,0.2-0.8c1.2-0.3,2.3-0.7,3.4-1.2c0.4-0.2,0.4-0.3,0-0.3h-3.2c-0.4,0-0.5-0.2-0.5-0.5v-0.8
				c0-0.4,0.2-0.5,0.5-0.5h5.7c0.3,0,0.4-0.1,0.4-0.3c0-0.2-0.1-0.3-0.4-0.3h-4.2c-0.4,0-0.5-0.2-0.5-0.5v-0.7
				c0-0.4,0.2-0.5,0.5-0.5h4.2c0.3,0,0.4-0.1,0.4-0.3c0-0.2-0.1-0.3-0.4-0.3h-5c-0.4,0-0.5-0.2-0.5-0.5v-0.8c0-0.4,0.2-0.5,0.5-0.5
				h1.9c0.3,0,0.4-0.2,0.2-0.5c-0.2-0.4-0.4-0.6-0.6-0.6h-2.2c-0.4,0-0.5-0.2-0.5-0.5v-0.7c0-0.4,0.2-0.5,0.5-0.5h0.9
				c0.3,0,0.3-0.2,0.1-0.5c-0.3-0.4-0.3-0.7,0-0.9l0.7-0.4c0.4-0.2,0.7-0.1,1,0.2c0.2,0.2,0.3,0.4,0.5,0.7c0.2,0.4,0.2,0.6,0,0.7
				c-0.2,0.2-0.1,0.2,0.2,0.2h0.6c0.3,0,0.4-0.1,0.4-0.4V206.8z M38.8,211.2c0.1-0.4,0.1-0.6-0.2-0.6h-3.8c-0.3,0-0.4,0.2-0.2,0.5
				c0.1,0.4,0.3,0.6,0.6,0.6h3C38.4,211.7,38.7,211.5,38.8,211.2z"/>
		</g>
		<g>
			<path fill="none" stroke="#FFFFFF" stroke-width="2" stroke-miterlimit="10" d="M59.4,206.5c0.2-0.4,0.4-0.5,0.7-0.4l0.8,0.2
				c0.4,0.1,0.5,0.2,0.5,0.4c0,0.2,0.1,0.2,0.4,0.2h6.6c0.4,0,0.5,0.2,0.5,0.5c0.1,0.6,0,0.9-0.2,1.2c-0.2,0.4-0.5,0.7-0.7,1.1
				c-0.3,0.4-0.7,0.4-1,0.2c-0.1-0.1-0.2-0.1-0.4-0.2c-0.4-0.2-0.4-0.5-0.3-0.7c0.1-0.2,0-0.4-0.2-0.4h-1.1c-0.3,0-0.5,0.1-0.5,0.2
				c0,0.1,0,0.4,0.3,0.6c1,0.9,2.3,1.4,3.7,1.7c0.5,0.1,0.6,0.3,0.4,0.7l-0.4,0.8c-0.2,0.4-0.5,0.5-0.8,0.4c-0.4-0.1-0.5,0-0.5,0.3
				v6.4c0,0.4-0.2,0.5-0.5,0.5h-1.5c-0.3,0-0.2,0,0.1,0.1l3.2,0.4c0.4,0,0.5,0.3,0.2,0.7l-0.2,0.4c-0.2,0.4-0.5,0.6-0.9,0.5
				c-1.5-0.2-3-0.6-4.7-1c-0.4-0.1-0.5-0.3-0.2-0.6c0.3-0.4,0.4-0.5,0.1-0.5h-3.9c-0.3,0-0.3,0.2,0,0.5c0.4,0.4,0.3,0.6,0,0.8
				c-1.4,0.4-3,0.7-4.7,0.9c-0.4,0-0.6-0.1-0.8-0.5l-0.2-0.6c-0.2-0.4-0.1-0.6,0.2-0.6c1.2-0.1,2.4-0.2,3.5-0.4
				c0.3-0.1,0.3-0.1,0-0.1H55c-0.4,0-0.5-0.2-0.5-0.5v-6.5c0-0.3-0.1-0.4-0.4-0.3c-0.3,0.1-0.5-0.1-0.7-0.4l-0.3-0.7
				c-0.2-0.4-0.1-0.7,0.3-0.8c1.1-0.3,2.2-0.7,3.3-1.1c0.4-0.2,0.6,0,0.8,0.4l0.1,0.5c0.1,0.4,0,0.6-0.4,0.8l-1.1,0.5
				c-0.3,0.2-0.3,0.3,0,0.3h2c0.3,0,0.3-0.2,0.1-0.5l-0.2-0.3c-0.2-0.3-0.1-0.6,0.3-0.7c1.6-0.3,2.8-0.9,3.7-1.8
				c0.2-0.3,0.2-0.5-0.1-0.5h-1c-0.3,0-0.5,0.2-0.8,0.5l-0.4,0.5c-0.4,0.4-0.8,0.5-1.1,0.1l-0.3-0.3c-0.4-0.4-0.4-0.7-0.1-1.1
				C58.7,207.9,59.1,207.2,59.4,206.5z M53.3,207.4c0-0.4,0.2-0.6,0.5-0.6H57c0.4,0,0.5,0.2,0.5,0.5v0.7c0,0.4-0.2,0.5-0.5,0.5h-3.2
				c-0.4,0-0.5-0.2-0.5-0.5V207.4z M65,214.4c0-0.2-0.1-0.3-0.4-0.3H57c-0.3,0-0.4,0.1-0.4,0.3c0,0.2,0.1,0.3,0.4,0.3h7.6
				C64.9,214.6,65,214.6,65,214.4z M65.1,216.4c0-0.2-0.2-0.3-0.4-0.3H57c-0.3,0-0.4,0.1-0.4,0.2c0,0.2,0.1,0.3,0.4,0.3h7.6
				C64.9,216.6,65,216.5,65.1,216.4z M65,218.4c0-0.2-0.1-0.3-0.4-0.3H57c-0.3,0-0.4,0.1-0.4,0.2c0,0.2,0.1,0.3,0.4,0.3h7.6
				C64.9,218.6,65,218.5,65,218.4z M63.7,210.8c-0.3-0.3-0.6-0.3-0.9,0c-0.9,0.7-1.9,1.1-2.9,1.4c-0.2,0.1-0.2,0.2,0,0.2h5.4
				c0.4,0,0.4-0.1,0.1-0.3C64.9,211.8,64.3,211.4,63.7,210.8z"/>
			<path fill="#333534" d="M59.4,206.5c0.2-0.4,0.4-0.5,0.7-0.4l0.8,0.2c0.4,0.1,0.5,0.2,0.5,0.4c0,0.2,0.1,0.2,0.4,0.2h6.6
				c0.4,0,0.5,0.2,0.5,0.5c0.1,0.6,0,0.9-0.2,1.2c-0.2,0.4-0.5,0.7-0.7,1.1c-0.3,0.4-0.7,0.4-1,0.2c-0.1-0.1-0.2-0.1-0.4-0.2
				c-0.4-0.2-0.4-0.5-0.3-0.7c0.1-0.2,0-0.4-0.2-0.4h-1.1c-0.3,0-0.5,0.1-0.5,0.2c0,0.1,0,0.4,0.3,0.6c1,0.9,2.3,1.4,3.7,1.7
				c0.5,0.1,0.6,0.3,0.4,0.7l-0.4,0.8c-0.2,0.4-0.5,0.5-0.8,0.4c-0.4-0.1-0.5,0-0.5,0.3v6.4c0,0.4-0.2,0.5-0.5,0.5h-1.5
				c-0.3,0-0.2,0,0.1,0.1l3.2,0.4c0.4,0,0.5,0.3,0.2,0.7l-0.2,0.4c-0.2,0.4-0.5,0.6-0.9,0.5c-1.5-0.2-3-0.6-4.7-1
				c-0.4-0.1-0.5-0.3-0.2-0.6c0.3-0.4,0.4-0.5,0.1-0.5h-3.9c-0.3,0-0.3,0.2,0,0.5c0.4,0.4,0.3,0.6,0,0.8c-1.4,0.4-3,0.7-4.7,0.9
				c-0.4,0-0.6-0.1-0.8-0.5l-0.2-0.6c-0.2-0.4-0.1-0.6,0.2-0.6c1.2-0.1,2.4-0.2,3.5-0.4c0.3-0.1,0.3-0.1,0-0.1H55
				c-0.4,0-0.5-0.2-0.5-0.5v-6.5c0-0.3-0.1-0.4-0.4-0.3c-0.3,0.1-0.5-0.1-0.7-0.4l-0.3-0.7c-0.2-0.4-0.1-0.7,0.3-0.8
				c1.1-0.3,2.2-0.7,3.3-1.1c0.4-0.2,0.6,0,0.8,0.4l0.1,0.5c0.1,0.4,0,0.6-0.4,0.8l-1.1,0.5c-0.3,0.2-0.3,0.3,0,0.3h2
				c0.3,0,0.3-0.2,0.1-0.5l-0.2-0.3c-0.2-0.3-0.1-0.6,0.3-0.7c1.6-0.3,2.8-0.9,3.7-1.8c0.2-0.3,0.2-0.5-0.1-0.5h-1
				c-0.3,0-0.5,0.2-0.8,0.5l-0.4,0.5c-0.4,0.4-0.8,0.5-1.1,0.1l-0.3-0.3c-0.4-0.4-0.4-0.7-0.1-1.1C58.7,207.9,59.1,207.2,59.4,206.5
				z M53.3,207.4c0-0.4,0.2-0.6,0.5-0.6H57c0.4,0,0.5,0.2,0.5,0.5v0.7c0,0.4-0.2,0.5-0.5,0.5h-3.2c-0.4,0-0.5-0.2-0.5-0.5V207.4z
				 M65,214.4c0-0.2-0.1-0.3-0.4-0.3H57c-0.3,0-0.4,0.1-0.4,0.3c0,0.2,0.1,0.3,0.4,0.3h7.6C64.9,214.6,65,214.6,65,214.4z
				 M65.1,216.4c0-0.2-0.2-0.3-0.4-0.3H57c-0.3,0-0.4,0.1-0.4,0.2c0,0.2,0.1,0.3,0.4,0.3h7.6C64.9,216.6,65,216.5,65.1,216.4z
				 M65,218.4c0-0.2-0.1-0.3-0.4-0.3H57c-0.3,0-0.4,0.1-0.4,0.2c0,0.2,0.1,0.3,0.4,0.3h7.6C64.9,218.6,65,218.5,65,218.4z
				 M63.7,210.8c-0.3-0.3-0.6-0.3-0.9,0c-0.9,0.7-1.9,1.1-2.9,1.4c-0.2,0.1-0.2,0.2,0,0.2h5.4c0.4,0,0.4-0.1,0.1-0.3
				C64.9,211.8,64.3,211.4,63.7,210.8z"/>
		</g>
		<g>
			<path fill="none" stroke="#FFFFFF" stroke-width="2" stroke-miterlimit="10" d="M82.4,210.8c0.1-0.4,0.4-0.5,0.7-0.4l0.9,0.3
				c0.4,0.1,0.6,0.4,0.5,0.8l-0.4,1.2c-0.1,0.3,0,0.4,0.3,0.4H92c0.4,0,0.5,0.2,0.5,0.5v1c0,0.4-0.2,0.5-0.5,0.5h-2.2
				c-0.3,0-0.5,0.2-0.6,0.5c-0.3,0.8-0.6,1.5-1.1,2.2c-0.2,0.3-0.2,0.5,0.1,0.7c1.4,0.6,2.6,1.1,3.7,1.6c0.5,0.2,0.6,0.5,0.3,0.9
				l-0.6,0.9c-0.2,0.4-0.5,0.4-0.9,0.3c-1.3-0.7-2.7-1.4-4.2-2c-0.4-0.2-0.7-0.1-1.1,0.1c-1.9,1-4.1,1.7-6.7,2.1
				c-0.4,0.1-0.8-0.1-0.9-0.4l-0.4-0.9c-0.2-0.4-0.1-0.6,0.3-0.6c1.7-0.2,3.5-0.6,5.2-1.3c0.3-0.1,0.2-0.2-0.1-0.4l-1.2-0.4
				c-0.3-0.1-0.5,0-0.7,0.2c-0.2,0.2-0.5,0.2-0.8,0l-0.9-0.5c-0.3-0.2-0.4-0.5-0.1-0.8c0.4-0.5,0.8-1.1,1.2-1.8
				c0.2-0.3,0.1-0.5-0.1-0.5h-2.4c-0.4,0-0.5-0.2-0.5-0.5v-1c0-0.4,0.2-0.5,0.5-0.5h3.4c0.3,0,0.5-0.2,0.7-0.5L82.4,210.8z
				 M83.7,206.8c0-0.4,0.2-0.6,0.5-0.6h1.1c0.4,0,0.5,0.2,0.5,0.5v0.7c0,0.3,0.1,0.4,0.4,0.4h5.5c0.4,0,0.5,0.2,0.5,0.5v2.8
				c0,0.4-0.2,0.5-0.5,0.5h-1.1c-0.4,0-0.5-0.2-0.5-0.5v-0.9c0-0.3-0.1-0.4-0.4-0.4h-10c-0.3,0-0.4,0.1-0.4,0.4v0.9
				c0,0.4-0.2,0.5-0.5,0.5h-1c-0.4,0-0.5-0.2-0.5-0.5v-2.8c0-0.4,0.2-0.5,0.5-0.5h5.4c0.3,0,0.4-0.1,0.4-0.4V206.8z M86.9,215.5
				c0.1-0.3,0.1-0.5-0.2-0.5h-3.3c-0.3,0-0.5,0.2-0.7,0.5l-0.3,0.5c-0.2,0.3-0.1,0.5,0.2,0.6c0.8,0.2,1.6,0.5,2.5,0.8
				c0.3,0.1,0.5,0,0.8-0.3C86.4,216.7,86.7,216.1,86.9,215.5z"/>
			<path fill="#333534" d="M82.4,210.8c0.1-0.4,0.4-0.5,0.7-0.4l0.9,0.3c0.4,0.1,0.6,0.4,0.5,0.8l-0.4,1.2c-0.1,0.3,0,0.4,0.3,0.4
				H92c0.4,0,0.5,0.2,0.5,0.5v1c0,0.4-0.2,0.5-0.5,0.5h-2.2c-0.3,0-0.5,0.2-0.6,0.5c-0.3,0.8-0.6,1.5-1.1,2.2
				c-0.2,0.3-0.2,0.5,0.1,0.7c1.4,0.6,2.6,1.1,3.7,1.6c0.5,0.2,0.6,0.5,0.3,0.9l-0.6,0.9c-0.2,0.4-0.5,0.4-0.9,0.3
				c-1.3-0.7-2.7-1.4-4.2-2c-0.4-0.2-0.7-0.1-1.1,0.1c-1.9,1-4.1,1.7-6.7,2.1c-0.4,0.1-0.8-0.1-0.9-0.4l-0.4-0.9
				c-0.2-0.4-0.1-0.6,0.3-0.6c1.7-0.2,3.5-0.6,5.2-1.3c0.3-0.1,0.2-0.2-0.1-0.4l-1.2-0.4c-0.3-0.1-0.5,0-0.7,0.2
				c-0.2,0.2-0.5,0.2-0.8,0l-0.9-0.5c-0.3-0.2-0.4-0.5-0.1-0.8c0.4-0.5,0.8-1.1,1.2-1.8c0.2-0.3,0.1-0.5-0.1-0.5h-2.4
				c-0.4,0-0.5-0.2-0.5-0.5v-1c0-0.4,0.2-0.5,0.5-0.5h3.4c0.3,0,0.5-0.2,0.7-0.5L82.4,210.8z M83.7,206.8c0-0.4,0.2-0.6,0.5-0.6h1.1
				c0.4,0,0.5,0.2,0.5,0.5v0.7c0,0.3,0.1,0.4,0.4,0.4h5.5c0.4,0,0.5,0.2,0.5,0.5v2.8c0,0.4-0.2,0.5-0.5,0.5h-1.1
				c-0.4,0-0.5-0.2-0.5-0.5v-0.9c0-0.3-0.1-0.4-0.4-0.4h-10c-0.3,0-0.4,0.1-0.4,0.4v0.9c0,0.4-0.2,0.5-0.5,0.5h-1
				c-0.4,0-0.5-0.2-0.5-0.5v-2.8c0-0.4,0.2-0.5,0.5-0.5h5.4c0.3,0,0.4-0.1,0.4-0.4V206.8z M86.9,215.5c0.1-0.3,0.1-0.5-0.2-0.5h-3.3
				c-0.3,0-0.5,0.2-0.7,0.5l-0.3,0.5c-0.2,0.3-0.1,0.5,0.2,0.6c0.8,0.2,1.6,0.5,2.5,0.8c0.3,0.1,0.5,0,0.8-0.3
				C86.4,216.7,86.7,216.1,86.9,215.5z"/>
		</g>
		<g>
			<path fill="none" stroke="#FFFFFF" stroke-width="2" stroke-miterlimit="10" d="M100.9,209.4c0-0.4,0.2-0.5,0.5-0.5h4.9
				c0.4,0,0.5,0.2,0.5,0.5v0.9c0,0.4-0.2,0.5-0.5,0.5h-4.9c-0.4,0-0.5-0.2-0.5-0.5V209.4z M101.2,216.9c0-0.4,0.2-0.5,0.5-0.5h4.1
				c0.4,0,0.5,0.2,0.5,0.5v4.4c0,0.4-0.2,0.5-0.5,0.5h-2.3c-0.3,0-0.4,0.1-0.4,0.3c0,0.2-0.2,0.3-0.5,0.3h-0.8
				c-0.4,0-0.5-0.2-0.5-0.5V216.9z M101.3,214.4c0-0.4,0.2-0.6,0.5-0.6h3.7c0.4,0,0.5,0.2,0.5,0.5v0.8c0,0.4-0.2,0.5-0.5,0.5h-3.7
				c-0.4,0-0.5-0.2-0.5-0.5V214.4z M101.4,212c0-0.4,0.2-0.6,0.5-0.6h3.7c0.4,0,0.5,0.2,0.5,0.5v0.8c0,0.4-0.2,0.5-0.5,0.5h-3.7
				c-0.4,0-0.5-0.2-0.5-0.5V212z M101.6,207.1c0-0.4,0.2-0.5,0.5-0.5h3.4c0.4,0,0.5,0.2,0.5,0.5v0.7c0,0.4-0.2,0.5-0.5,0.5h-3.4
				c-0.4,0-0.5-0.2-0.5-0.5V207.1z M104.5,218.6c0-0.3-0.1-0.5-0.4-0.5h-0.5c-0.3,0-0.4,0.1-0.4,0.4v1c0,0.3,0.1,0.4,0.4,0.4h0.5
				c0.3,0,0.4-0.1,0.4-0.4V218.6z M107.6,214.8c0-0.4,0.2-0.5,0.5-0.5h8c0.4,0,0.5,0.2,0.5,0.5v5.3c0,0.4-0.2,0.5-0.5,0.5h-0.2
				c-0.2,0-0.4,0-0.3,0.1l1.1,0.2c0.4,0.1,0.5,0.3,0.3,0.7l-0.2,0.4c-0.2,0.4-0.5,0.6-0.9,0.5c-0.6-0.2-1.3-0.4-2-0.7
				c-0.5-0.2-0.6-0.4-0.4-0.7c0.2-0.3,0.2-0.4-0.1-0.4h-2.8c-0.3,0-0.3,0.2-0.1,0.5c0.2,0.3,0.2,0.5-0.2,0.7
				c-0.8,0.3-1.5,0.5-2.1,0.7c-0.4,0.1-0.8,0-0.9-0.4l-0.2-0.4c-0.2-0.4-0.1-0.6,0.2-0.7l0.8-0.2c0.4-0.1,0.5-0.2,0.1-0.2h-0.2
				c-0.4,0-0.5-0.2-0.5-0.5V214.8z M111.1,206.5c0-0.2,0.2-0.3,0.5-0.3h0.8c0.4,0,0.5,0.1,0.5,0.3c0,0.2,0.1,0.3,0.4,0.3h3.1
				c0.4,0,0.5,0.2,0.5,0.5v0.3c0,0.4-0.2,0.5-0.5,0.5h-3.1c-0.3,0-0.4,0.1-0.4,0.2c0,0.1,0.2,0.2,0.4,0.2h2.6c0.4,0,0.5,0.2,0.5,0.5
				v0.3c0,0.4-0.2,0.5-0.5,0.5h-7.8c-0.4,0-0.5-0.2-0.5-0.5V209c0-0.4,0.2-0.5,0.5-0.5h2.5c0.3,0,0.4-0.1,0.4-0.2
				c0-0.1-0.2-0.2-0.4-0.2h-3c-0.4,0-0.5-0.2-0.5-0.5v-0.3c0-0.4,0.2-0.5,0.5-0.5h3.1C110.9,206.7,111.1,206.6,111.1,206.5z
				 M107.1,210.8c0-0.4,0.2-0.5,0.5-0.5h8.8c0.4,0,0.5,0.2,0.5,0.5v2.5c0,0.4-0.2,0.5-0.5,0.5h-8.8c-0.4,0-0.5-0.2-0.5-0.5V210.8z
				 M110,212.1c0-0.4-0.2-0.5-0.5-0.5c-0.4,0-0.6,0.2-0.6,0.5c0,0.4,0.2,0.5,0.5,0.5C109.8,212.6,110,212.4,110,212.1z M114.7,215.8
				c0-0.1-0.1-0.2-0.4-0.2h-4.4c-0.3,0-0.4,0.1-0.4,0.2c0,0.1,0.2,0.2,0.4,0.2h4.4C114.6,216,114.7,215.9,114.7,215.8z M114.7,217.4
				c0-0.1-0.1-0.2-0.4-0.2h-4.4c-0.3,0-0.4,0.1-0.4,0.2c0,0.1,0.2,0.2,0.4,0.2h4.4C114.6,217.6,114.7,217.5,114.7,217.4z
				 M114.7,219.1c0-0.1-0.1-0.2-0.4-0.2h-4.4c-0.3,0-0.4,0.1-0.4,0.2c0,0.1,0.1,0.2,0.4,0.2h4.4
				C114.6,219.2,114.7,219.2,114.7,219.1z M112.5,212.1c0-0.4-0.1-0.5-0.4-0.5c-0.3,0-0.4,0.2-0.4,0.5c0,0.4,0.1,0.5,0.4,0.5
				C112.3,212.6,112.5,212.4,112.5,212.1z M115.1,212.1c0-0.4-0.2-0.5-0.5-0.5c-0.3,0-0.5,0.2-0.5,0.5c0,0.4,0.2,0.5,0.5,0.5
				C114.9,212.6,115.1,212.4,115.1,212.1z"/>
			<path fill="#333534" d="M100.9,209.4c0-0.4,0.2-0.5,0.5-0.5h4.9c0.4,0,0.5,0.2,0.5,0.5v0.9c0,0.4-0.2,0.5-0.5,0.5h-4.9
				c-0.4,0-0.5-0.2-0.5-0.5V209.4z M101.2,216.9c0-0.4,0.2-0.5,0.5-0.5h4.1c0.4,0,0.5,0.2,0.5,0.5v4.4c0,0.4-0.2,0.5-0.5,0.5h-2.3
				c-0.3,0-0.4,0.1-0.4,0.3c0,0.2-0.2,0.3-0.5,0.3h-0.8c-0.4,0-0.5-0.2-0.5-0.5V216.9z M101.3,214.4c0-0.4,0.2-0.6,0.5-0.6h3.7
				c0.4,0,0.5,0.2,0.5,0.5v0.8c0,0.4-0.2,0.5-0.5,0.5h-3.7c-0.4,0-0.5-0.2-0.5-0.5V214.4z M101.4,212c0-0.4,0.2-0.6,0.5-0.6h3.7
				c0.4,0,0.5,0.2,0.5,0.5v0.8c0,0.4-0.2,0.5-0.5,0.5h-3.7c-0.4,0-0.5-0.2-0.5-0.5V212z M101.6,207.1c0-0.4,0.2-0.5,0.5-0.5h3.4
				c0.4,0,0.5,0.2,0.5,0.5v0.7c0,0.4-0.2,0.5-0.5,0.5h-3.4c-0.4,0-0.5-0.2-0.5-0.5V207.1z M104.5,218.6c0-0.3-0.1-0.5-0.4-0.5h-0.5
				c-0.3,0-0.4,0.1-0.4,0.4v1c0,0.3,0.1,0.4,0.4,0.4h0.5c0.3,0,0.4-0.1,0.4-0.4V218.6z M107.6,214.8c0-0.4,0.2-0.5,0.5-0.5h8
				c0.4,0,0.5,0.2,0.5,0.5v5.3c0,0.4-0.2,0.5-0.5,0.5h-0.2c-0.2,0-0.4,0-0.3,0.1l1.1,0.2c0.4,0.1,0.5,0.3,0.3,0.7l-0.2,0.4
				c-0.2,0.4-0.5,0.6-0.9,0.5c-0.6-0.2-1.3-0.4-2-0.7c-0.5-0.2-0.6-0.4-0.4-0.7c0.2-0.3,0.2-0.4-0.1-0.4h-2.8
				c-0.3,0-0.3,0.2-0.1,0.5c0.2,0.3,0.2,0.5-0.2,0.7c-0.8,0.3-1.5,0.5-2.1,0.7c-0.4,0.1-0.8,0-0.9-0.4l-0.2-0.4
				c-0.2-0.4-0.1-0.6,0.2-0.7l0.8-0.2c0.4-0.1,0.5-0.2,0.1-0.2h-0.2c-0.4,0-0.5-0.2-0.5-0.5V214.8z M111.1,206.5
				c0-0.2,0.2-0.3,0.5-0.3h0.8c0.4,0,0.5,0.1,0.5,0.3c0,0.2,0.1,0.3,0.4,0.3h3.1c0.4,0,0.5,0.2,0.5,0.5v0.3c0,0.4-0.2,0.5-0.5,0.5
				h-3.1c-0.3,0-0.4,0.1-0.4,0.2c0,0.1,0.2,0.2,0.4,0.2h2.6c0.4,0,0.5,0.2,0.5,0.5v0.3c0,0.4-0.2,0.5-0.5,0.5h-7.8
				c-0.4,0-0.5-0.2-0.5-0.5V209c0-0.4,0.2-0.5,0.5-0.5h2.5c0.3,0,0.4-0.1,0.4-0.2c0-0.1-0.2-0.2-0.4-0.2h-3c-0.4,0-0.5-0.2-0.5-0.5
				v-0.3c0-0.4,0.2-0.5,0.5-0.5h3.1C110.9,206.7,111.1,206.6,111.1,206.5z M107.1,210.8c0-0.4,0.2-0.5,0.5-0.5h8.8
				c0.4,0,0.5,0.2,0.5,0.5v2.5c0,0.4-0.2,0.5-0.5,0.5h-8.8c-0.4,0-0.5-0.2-0.5-0.5V210.8z M110,212.1c0-0.4-0.2-0.5-0.5-0.5
				c-0.4,0-0.6,0.2-0.6,0.5c0,0.4,0.2,0.5,0.5,0.5C109.8,212.6,110,212.4,110,212.1z M114.7,215.8c0-0.1-0.1-0.2-0.4-0.2h-4.4
				c-0.3,0-0.4,0.1-0.4,0.2c0,0.1,0.2,0.2,0.4,0.2h4.4C114.6,216,114.7,215.9,114.7,215.8z M114.7,217.4c0-0.1-0.1-0.2-0.4-0.2h-4.4
				c-0.3,0-0.4,0.1-0.4,0.2c0,0.1,0.2,0.2,0.4,0.2h4.4C114.6,217.6,114.7,217.5,114.7,217.4z M114.7,219.1c0-0.1-0.1-0.2-0.4-0.2
				h-4.4c-0.3,0-0.4,0.1-0.4,0.2c0,0.1,0.1,0.2,0.4,0.2h4.4C114.6,219.2,114.7,219.2,114.7,219.1z M112.5,212.1
				c0-0.4-0.1-0.5-0.4-0.5c-0.3,0-0.4,0.2-0.4,0.5c0,0.4,0.1,0.5,0.4,0.5C112.3,212.6,112.5,212.4,112.5,212.1z M115.1,212.1
				c0-0.4-0.2-0.5-0.5-0.5c-0.3,0-0.5,0.2-0.5,0.5c0,0.4,0.2,0.5,0.5,0.5C114.9,212.6,115.1,212.4,115.1,212.1z"/>
		</g>
		<g>
			<path fill="none" stroke="#FFFFFF" stroke-width="2" stroke-miterlimit="10" d="M131.8,206.5c0-0.2,0.2-0.3,0.5-0.3h0.9
				c0.4,0,0.5,0.1,0.5,0.3c0,0.2,0.1,0.3,0.4,0.3h5.1c0.4,0,0.5,0.2,0.5,0.5v0.9c0,0.3,0.1,0.4,0.4,0.4h0.4c0.4,0,0.5,0.2,0.5,0.5
				v0.5c0,0.4-0.2,0.5-0.5,0.5h-0.4c-0.3,0-0.4,0.1-0.4,0.4v0.9c0,0.4-0.2,0.5-0.5,0.5h-5.1c-0.3,0-0.4,0.1-0.4,0.2
				c0,0.1,0.1,0.2,0.4,0.2h5.2c0.4,0,0.5,0.2,0.5,0.5v0.5c0,0.4-0.2,0.5-0.5,0.5h-5.2c-0.3,0-0.4,0.1-0.4,0.2c0,0.1,0.1,0.2,0.4,0.2
				h6.4c0.4,0,0.5,0.2,0.5,0.5v0.4c0,0.4-0.2,0.5-0.5,0.5h-14.8c-0.4,0-0.5-0.2-0.5-0.5v-0.4c0-0.4,0.2-0.5,0.5-0.5h5.6
				c0.3,0,0.4-0.1,0.4-0.2c0-0.1-0.1-0.2-0.4-0.2h-4.7c-0.4,0-0.5-0.2-0.5-0.5V213c0-0.4,0.2-0.5,0.5-0.5h4.7c0.3,0,0.4-0.1,0.4-0.2
				c0-0.1-0.1-0.2-0.4-0.2h-4.5c-0.4,0-0.5-0.2-0.5-0.5v-0.4c0-0.4,0.2-0.5,0.5-0.5h4.5c0.3,0,0.4-0.1,0.4-0.2
				c0-0.1-0.1-0.2-0.4-0.2h-5.7c-0.4,0-0.5-0.2-0.5-0.5v-0.5c0-0.4,0.2-0.5,0.5-0.5h5.7c0.3,0,0.4-0.1,0.4-0.2
				c0-0.1-0.2-0.2-0.4-0.2h-4.4c-0.4,0-0.5-0.2-0.5-0.5v-0.5c0-0.4,0.2-0.5,0.5-0.5h4.4C131.7,206.8,131.8,206.7,131.8,206.5z
				 M126.4,216.9c0-0.4,0.2-0.5,0.5-0.5h12.2c0.4,0,0.5,0.2,0.5,0.5v5c0,0.4-0.2,0.5-0.5,0.5h-0.8c-0.4,0-0.5-0.1-0.5-0.2
				c0-0.2-0.1-0.2-0.4-0.2h-8.5c-0.3,0-0.4,0.1-0.4,0.2c0,0.2-0.2,0.2-0.5,0.2h-0.8c-0.4,0-0.5-0.2-0.5-0.5V216.9z M137.7,218.2
				c0-0.2-0.1-0.3-0.4-0.3h-8.5c-0.3,0-0.4,0.1-0.4,0.2c0,0.2,0.1,0.3,0.4,0.3h8.5C137.6,218.5,137.7,218.4,137.7,218.2z
				 M137.7,220.3c0-0.2-0.1-0.3-0.3-0.3h-8.6c-0.3,0-0.4,0.1-0.4,0.2c0,0.2,0.1,0.3,0.4,0.3h8.5
				C137.6,220.5,137.7,220.4,137.7,220.3z M137.9,208.5c0-0.1-0.2-0.2-0.4-0.2h-3.3c-0.3,0-0.4,0.1-0.4,0.2c0,0.1,0.2,0.2,0.4,0.2
				h3.3C137.7,208.6,137.8,208.6,137.9,208.5z M137.9,210.4c0-0.1-0.1-0.2-0.4-0.2h-3.3c-0.3,0-0.4,0.1-0.4,0.2
				c0,0.1,0.1,0.2,0.4,0.2h3.3C137.7,210.6,137.8,210.5,137.9,210.4z"/>
			<path fill="#333534" d="M131.8,206.5c0-0.2,0.2-0.3,0.5-0.3h0.9c0.4,0,0.5,0.1,0.5,0.3c0,0.2,0.1,0.3,0.4,0.3h5.1
				c0.4,0,0.5,0.2,0.5,0.5v0.9c0,0.3,0.1,0.4,0.4,0.4h0.4c0.4,0,0.5,0.2,0.5,0.5v0.5c0,0.4-0.2,0.5-0.5,0.5h-0.4
				c-0.3,0-0.4,0.1-0.4,0.4v0.9c0,0.4-0.2,0.5-0.5,0.5h-5.1c-0.3,0-0.4,0.1-0.4,0.2c0,0.1,0.1,0.2,0.4,0.2h5.2
				c0.4,0,0.5,0.2,0.5,0.5v0.5c0,0.4-0.2,0.5-0.5,0.5h-5.2c-0.3,0-0.4,0.1-0.4,0.2c0,0.1,0.1,0.2,0.4,0.2h6.4c0.4,0,0.5,0.2,0.5,0.5
				v0.4c0,0.4-0.2,0.5-0.5,0.5h-14.8c-0.4,0-0.5-0.2-0.5-0.5v-0.4c0-0.4,0.2-0.5,0.5-0.5h5.6c0.3,0,0.4-0.1,0.4-0.2
				c0-0.1-0.1-0.2-0.4-0.2h-4.7c-0.4,0-0.5-0.2-0.5-0.5V213c0-0.4,0.2-0.5,0.5-0.5h4.7c0.3,0,0.4-0.1,0.4-0.2c0-0.1-0.1-0.2-0.4-0.2
				h-4.5c-0.4,0-0.5-0.2-0.5-0.5v-0.4c0-0.4,0.2-0.5,0.5-0.5h4.5c0.3,0,0.4-0.1,0.4-0.2c0-0.1-0.1-0.2-0.4-0.2h-5.7
				c-0.4,0-0.5-0.2-0.5-0.5v-0.5c0-0.4,0.2-0.5,0.5-0.5h5.7c0.3,0,0.4-0.1,0.4-0.2c0-0.1-0.2-0.2-0.4-0.2h-4.4
				c-0.4,0-0.5-0.2-0.5-0.5v-0.5c0-0.4,0.2-0.5,0.5-0.5h4.4C131.7,206.8,131.8,206.7,131.8,206.5z M126.4,216.9
				c0-0.4,0.2-0.5,0.5-0.5h12.2c0.4,0,0.5,0.2,0.5,0.5v5c0,0.4-0.2,0.5-0.5,0.5h-0.8c-0.4,0-0.5-0.1-0.5-0.2c0-0.2-0.1-0.2-0.4-0.2
				h-8.5c-0.3,0-0.4,0.1-0.4,0.2c0,0.2-0.2,0.2-0.5,0.2h-0.8c-0.4,0-0.5-0.2-0.5-0.5V216.9z M137.7,218.2c0-0.2-0.1-0.3-0.4-0.3
				h-8.5c-0.3,0-0.4,0.1-0.4,0.2c0,0.2,0.1,0.3,0.4,0.3h8.5C137.6,218.5,137.7,218.4,137.7,218.2z M137.7,220.3
				c0-0.2-0.1-0.3-0.3-0.3h-8.6c-0.3,0-0.4,0.1-0.4,0.2c0,0.2,0.1,0.3,0.4,0.3h8.5C137.6,220.5,137.7,220.4,137.7,220.3z
				 M137.9,208.5c0-0.1-0.2-0.2-0.4-0.2h-3.3c-0.3,0-0.4,0.1-0.4,0.2c0,0.1,0.2,0.2,0.4,0.2h3.3
				C137.7,208.6,137.8,208.6,137.9,208.5z M137.9,210.4c0-0.1-0.1-0.2-0.4-0.2h-3.3c-0.3,0-0.4,0.1-0.4,0.2c0,0.1,0.1,0.2,0.4,0.2
				h3.3C137.7,210.6,137.8,210.5,137.9,210.4z"/>
		</g>
		<g>
			<path fill="none" stroke="#FFFFFF" stroke-width="2" stroke-miterlimit="10" d="M156.7,206.2c0.4-0.2,0.7-0.2,1.1,0.1l0.5,0.4
				c0.1,0.1,0.2,0.2,0.4,0.2c2.4,1,4.6,1.8,6.5,2.2c0.4,0.1,0.4,0.3,0.2,0.7l-0.5,0.9c-0.2,0.4-0.4,0.5-0.5,0.4
				c-0.2-0.1-0.3,0-0.3,0.3v4.1c0,0.4-0.2,0.5-0.5,0.5h-12.4c-0.4,0-0.5-0.2-0.5-0.5v-3.9c0-0.3-0.1-0.4-0.2-0.4
				c-0.2,0-0.4-0.1-0.6-0.5l-0.4-0.7c-0.2-0.4-0.1-0.6,0.3-0.7C152.1,208.5,154.5,207.5,156.7,206.2z M151.4,217
				c0-0.4,0.2-0.6,0.5-0.6H163c0.4,0,0.5,0.2,0.5,0.5v5c0,0.4-0.2,0.5-0.5,0.5h-0.9c-0.4,0-0.5-0.1-0.5-0.2c0-0.1-0.1-0.2-0.4-0.2
				h-7.3c-0.3,0-0.4,0.1-0.4,0.2c0,0.1-0.2,0.2-0.5,0.2H152c-0.4,0-0.5-0.2-0.5-0.5V217z M162.9,210.5l-1.7-0.6
				c-0.3-0.1-0.4-0.1-0.4,0.1c0,0.2-0.2,0.3-0.5,0.3h-6c-0.4,0-0.5-0.1-0.5-0.2c0-0.2-0.2-0.2-0.5,0l-1,0.4c-0.3,0.2-0.3,0.2,0,0.2
				h10.7C163.2,210.7,163.2,210.6,162.9,210.5z M153.9,212.6c0-0.1-0.1-0.1-0.4-0.1H153c-0.3,0-0.4,0.1-0.4,0.4v0.9
				c0,0.3,0.1,0.4,0.4,0.4h0.4c0.3,0,0.3-0.2,0.1-0.6c-0.3-0.4-0.2-0.7,0.2-1C153.8,212.6,153.9,212.6,153.9,212.6z M161.6,218.3
				c0-0.2-0.1-0.2-0.4-0.2h-7.3c-0.3,0-0.4,0.1-0.4,0.2c0,0.2,0.1,0.2,0.4,0.2h7.3C161.4,218.5,161.6,218.5,161.6,218.3z
				 M161.6,220.2c0-0.2-0.1-0.2-0.4-0.2h-7.3c-0.3,0-0.4,0.1-0.4,0.2c0,0.2,0.1,0.2,0.4,0.2h7.3
				C161.4,220.4,161.5,220.4,161.6,220.2z M156.3,212.9c0-0.3-0.1-0.5-0.4-0.5h-0.5c-0.3,0-0.3,0.2-0.1,0.5l0.1,0.2
				c0.2,0.4,0.2,0.6-0.1,0.8c-0.3,0.2-0.3,0.3,0.1,0.3h0.5c0.3,0,0.4-0.1,0.4-0.4V212.9z M156.7,208.4l-0.2,0.1
				c-0.3,0.2-0.3,0.3,0.1,0.3h1.3c0.4,0,0.4-0.1,0-0.3c-0.1,0-0.1-0.1-0.2-0.1C157.4,208.1,157.1,208.2,156.7,208.4z M159.3,213
				c0.2-0.4,0.1-0.6-0.2-0.6h-0.6c-0.3,0-0.4,0.1-0.4,0.4v0.9c0,0.3,0.2,0.4,0.6,0.4c0.5,0,0.6-0.1,0.4-0.2
				c-0.2-0.1-0.1-0.4,0.1-0.7L159.3,213z M162.1,212.9c0-0.3-0.1-0.5-0.4-0.5h-0.8c-0.4,0-0.4,0.1,0,0.2c0.4,0.1,0.5,0.4,0.4,0.7
				c-0.1,0.1-0.1,0.3-0.2,0.4c-0.1,0.3-0.1,0.4,0.2,0.4h0.4c0.3,0,0.4-0.1,0.4-0.4V212.9z"/>
			<path fill="#333534" d="M156.7,206.2c0.4-0.2,0.7-0.2,1.1,0.1l0.5,0.4c0.1,0.1,0.2,0.2,0.4,0.2c2.4,1,4.6,1.8,6.5,2.2
				c0.4,0.1,0.4,0.3,0.2,0.7l-0.5,0.9c-0.2,0.4-0.4,0.5-0.5,0.4c-0.2-0.1-0.3,0-0.3,0.3v4.1c0,0.4-0.2,0.5-0.5,0.5h-12.4
				c-0.4,0-0.5-0.2-0.5-0.5v-3.9c0-0.3-0.1-0.4-0.2-0.4c-0.2,0-0.4-0.1-0.6-0.5l-0.4-0.7c-0.2-0.4-0.1-0.6,0.3-0.7
				C152.1,208.5,154.5,207.5,156.7,206.2z M151.4,217c0-0.4,0.2-0.6,0.5-0.6H163c0.4,0,0.5,0.2,0.5,0.5v5c0,0.4-0.2,0.5-0.5,0.5
				h-0.9c-0.4,0-0.5-0.1-0.5-0.2c0-0.1-0.1-0.2-0.4-0.2h-7.3c-0.3,0-0.4,0.1-0.4,0.2c0,0.1-0.2,0.2-0.5,0.2H152
				c-0.4,0-0.5-0.2-0.5-0.5V217z M162.9,210.5l-1.7-0.6c-0.3-0.1-0.4-0.1-0.4,0.1c0,0.2-0.2,0.3-0.5,0.3h-6c-0.4,0-0.5-0.1-0.5-0.2
				c0-0.2-0.2-0.2-0.5,0l-1,0.4c-0.3,0.2-0.3,0.2,0,0.2h10.7C163.2,210.7,163.2,210.6,162.9,210.5z M153.9,212.6
				c0-0.1-0.1-0.1-0.4-0.1H153c-0.3,0-0.4,0.1-0.4,0.4v0.9c0,0.3,0.1,0.4,0.4,0.4h0.4c0.3,0,0.3-0.2,0.1-0.6c-0.3-0.4-0.2-0.7,0.2-1
				C153.8,212.6,153.9,212.6,153.9,212.6z M161.6,218.3c0-0.2-0.1-0.2-0.4-0.2h-7.3c-0.3,0-0.4,0.1-0.4,0.2c0,0.2,0.1,0.2,0.4,0.2
				h7.3C161.4,218.5,161.6,218.5,161.6,218.3z M161.6,220.2c0-0.2-0.1-0.2-0.4-0.2h-7.3c-0.3,0-0.4,0.1-0.4,0.2
				c0,0.2,0.1,0.2,0.4,0.2h7.3C161.4,220.4,161.5,220.4,161.6,220.2z M156.3,212.9c0-0.3-0.1-0.5-0.4-0.5h-0.5
				c-0.3,0-0.3,0.2-0.1,0.5l0.1,0.2c0.2,0.4,0.2,0.6-0.1,0.8c-0.3,0.2-0.3,0.3,0.1,0.3h0.5c0.3,0,0.4-0.1,0.4-0.4V212.9z
				 M156.7,208.4l-0.2,0.1c-0.3,0.2-0.3,0.3,0.1,0.3h1.3c0.4,0,0.4-0.1,0-0.3c-0.1,0-0.1-0.1-0.2-0.1
				C157.4,208.1,157.1,208.2,156.7,208.4z M159.3,213c0.2-0.4,0.1-0.6-0.2-0.6h-0.6c-0.3,0-0.4,0.1-0.4,0.4v0.9
				c0,0.3,0.2,0.4,0.6,0.4c0.5,0,0.6-0.1,0.4-0.2c-0.2-0.1-0.1-0.4,0.1-0.7L159.3,213z M162.1,212.9c0-0.3-0.1-0.5-0.4-0.5h-0.8
				c-0.4,0-0.4,0.1,0,0.2c0.4,0.1,0.5,0.4,0.4,0.7c-0.1,0.1-0.1,0.3-0.2,0.4c-0.1,0.3-0.1,0.4,0.2,0.4h0.4c0.3,0,0.4-0.1,0.4-0.4
				V212.9z"/>
		</g>
	</g>
	<g>
		<g>
			<polygon fill="#303231" points="87.3,35.3 87.3,4.3 117.5,19.8 117.5,50.8 			"/>
			<polygon fill="#303231" points="122.1,53.2 122.1,22.1 152.2,37.7 152.2,68.7 			"/>
			<polygon fill="#303231" points="52.6,19.8 82.8,4.3 82.8,35.3 52.6,50.8 			"/>
			<polygon fill="#303231" points="54.9,125.7 85,110.2 115.2,125.7 85,141.2 			"/>
			<polygon fill="#303231" points="17.8,37.7 48,22.1 48,53.2 17.8,68.7 			"/>
			<polygon fill="#303231" points="122.1,88.9 122.1,57.8 152.2,73.4 152.2,104.4 			"/>
			<polygon fill="#303231" points="89.6,107.9 119.8,92.4 150,107.9 119.8,123.4 			"/>
			<polygon fill="#303231" points="17.8,73.4 48,57.8 48,88.9 17.8,104.4 			"/>
			<polygon fill="#303231" points="20.1,107.9 50.3,92.4 80.5,107.9 50.3,123.4 			"/>
			<polygon fill="#89C18C" points="52.6,88.9 52.6,57.8 82.8,73.4 82.8,104.4 			"/>
			<polygon fill="#35A438" points="54.9,54.3 85,38.8 115.2,54.3 85,69.8 			"/>
			<linearGradient id="SVGID_1_" gradientUnits="userSpaceOnUse" x1="87.3143" y1="81.1076" x2="117.5025" y2="81.1076">
				<stop  offset="0" style="stop-color:#044525"/>
				<stop  offset="1" style="stop-color:#09843C"/>
			</linearGradient>
			<polygon fill="url(#SVGID_1_)" points="87.3,73.4 117.5,57.8 117.5,88.9 87.3,104.4 			"/>
		</g>
	</g>
</g>
</svg>
