<?xml version="1.0" encoding="UTF-8" standalone="no"?>
<svg
   xmlns:dc="http://purl.org/dc/elements/1.1/"
   xmlns:cc="http://creativecommons.org/ns#"
   xmlns:rdf="http://www.w3.org/1999/02/22-rdf-syntax-ns#"
   xmlns:svg="http://www.w3.org/2000/svg"
   xmlns="http://www.w3.org/2000/svg"
   id="svg4620"
   version="1.1"
   viewBox="0 0 480 190.16884"
   height="190.16884mm"
   width="480mm">
  <defs
     id="defs4614" />
  <metadata
     id="metadata4617">
    <rdf:RDF>
      <cc:Work
         rdf:about="">
        <dc:format>image/svg+xml</dc:format>
        <dc:type
           rdf:resource="http://purl.org/dc/dcmitype/StillImage" />
        <dc:title></dc:title>
      </cc:Work>
    </rdf:RDF>
  </metadata>
  <g
     transform="translate(-36.974958,-54.546297)"
     id="layer1">
    <g
       transform="translate(169.6161)"
       id="g4672">
      <g
         id="g4637"
         transform="translate(-164.61343,-25.702381)">
        <g
           id="g4660"
           transform="translate(170.08929,19.654762)">
          <path
             id="path4651"
             d="m 88.781338,174.39664 c -7.122539,-3.63121 -13.171115,-6.70187 -13.44128,-6.82368 -0.270165,-0.12181 -0.491209,-0.27308 -0.491209,-0.33614 0,-0.0631 6.088765,-3.21106 13.53059,-6.99554 l 13.530591,-6.88087 6.69831,3.40081 c 3.68407,1.87044 7.74325,3.94319 9.0204,4.6061 1.27714,0.66291 4.35167,2.22307 6.83227,3.46702 2.48061,1.24396 4.50758,2.31873 4.50438,2.38839 -0.003,0.0697 -0.26443,0.24889 -0.58052,0.39831 -0.62282,0.2944 -11.85296,6.00104 -20.77529,10.55705 -3.0545,1.55972 -5.62665,2.83245 -5.7159,2.8283 -0.0893,-0.004 -5.989804,-2.97854 -13.112342,-6.60975 z M 68.418469,164.29339 c -1.03154,-0.53911 -6.175254,-3.16668 -11.430477,-5.83904 -5.255222,-2.67236 -10.49698,-5.34012 -11.648352,-5.92835 -1.151372,-0.58823 -2.036139,-1.12269 -1.966148,-1.1877 0.06999,-0.065 4.186433,-2.18355 9.147649,-4.70788 4.961217,-2.52433 10.998647,-5.59653 13.416509,-6.82709 l 4.396116,-2.2374 3.552548,1.79652 c 1.953903,0.98809 6.32565,3.21085 9.714996,4.93948 3.389346,1.72862 7.870765,4.00363 9.958709,5.05557 2.087944,1.05194 3.774194,1.97882 3.747224,2.05973 -0.05093,0.15279 -2.598644,1.46673 -17.903542,9.23348 l -9.109705,4.62289 z m 61.266561,-0.71537 c -1.81711,-0.9339 -6.96111,-3.55269 -11.43112,-5.81954 -7.18023,-3.64127 -12.12268,-6.18032 -12.29165,-6.3145 -0.0954,-0.0758 2.91244,-1.63977 12.73671,-6.62274 5.206,-2.64054 10.55338,-5.35574 11.88305,-6.03379 l 2.4176,-1.23281 9.01568,4.58807 c 4.95863,2.52344 11.04503,5.61017 13.52534,6.8594 2.48031,1.24922 4.48812,2.33666 4.4618,2.41651 -0.0263,0.0799 -2.6987,1.49122 -5.93863,3.13636 -3.23992,1.64514 -9.30721,4.73039 -13.48286,6.8561 l -7.59209,3.86493 z M 104.0506,148.29264 c -0.0492,-0.12892 -0.0687,-6.08823 -0.0433,-13.2429 l 0.0462,-13.00851 2.32208,-1.2014 c 3.3436,-1.72992 24.75613,-12.52491 24.84392,-12.52491 0.0406,0 0.0738,5.94295 0.0738,13.20656 v 13.20656 l -5.58192,2.84659 c -17.78635,9.07043 -21.57419,10.9447 -21.66077,10.71801 z m 43.67588,-6.66437 -13.48593,-6.86085 -0.0458,-13.59571 -0.0458,-13.59572 13.57327,6.8445 13.57327,6.8445 0.003,13.6199 c 0.002,7.49095 -0.017,13.61638 -0.0416,13.61207 -0.0246,-0.004 -6.11333,-3.09522 -13.53059,-6.86869 z m -54.211668,3.59079 c -3.340225,-1.70497 -9.328516,-4.75416 -13.307314,-6.77599 l -7.234177,-3.67604 -0.04578,-13.49399 c -0.02518,-7.42169 -3e-4,-13.49398 0.05528,-13.49398 0.09582,0 21.768315,10.91504 25.176148,12.67961 l 1.607595,0.8324 0.04578,13.51755 c 0.02518,7.43466 -0.01502,13.51594 -0.08931,13.51396 -0.0743,-0.002 -2.868001,-1.39856 -6.208226,-3.10352 z M 42.518329,134.84777 V 121.7266 l 0.759142,-0.43041 c 0.417528,-0.23673 6.516916,-3.33151 13.554197,-6.87727 l 12.795055,-6.44685 0.122559,8.43268 c 0.06741,4.63797 0.09697,10.5862 0.0657,13.21829 l -0.05685,4.78562 -13.439584,6.78013 c -7.391772,3.72908 -13.520727,6.78014 -13.619902,6.78014 -0.119705,0 -0.180316,-4.41056 -0.180316,-13.12116 z M 98.248286,117.2305 c -1.915718,-0.98526 -7.5423,-3.84945 -12.503516,-6.36487 -11.485896,-5.82356 -12.191423,-6.19526 -12.147995,-6.40002 0.04954,-0.23359 0.722616,-0.58719 11.790751,-6.194333 5.354185,-2.712442 11.278477,-5.721908 13.165095,-6.687704 l 3.430219,-1.755994 5.23293,2.628293 c 8.08049,4.058502 23.3238,11.830588 23.44925,11.956048 0.0618,0.0618 -2.72556,1.55818 -6.19406,3.32536 -16.20859,8.25819 -22.25676,11.29454 -22.48836,11.28977 -0.13815,-0.003 -1.8186,-0.8113 -3.734314,-1.79655 z M 42.518329,103.94622 V 90.289193 l 0.759142,-0.430419 c 0.417528,-0.23673 6.513458,-3.329755 13.546511,-6.873389 l 12.787367,-6.442969 0.117772,6.285339 c 0.06477,3.456935 0.116905,9.621097 0.115844,13.698136 l -0.0019,7.412799 -6.651455,3.37362 c -3.6583,1.8555 -9.714728,4.93002 -13.458731,6.83228 -3.743999,1.90226 -6.898904,3.45866 -7.010898,3.45866 -0.150641,0 -0.203623,-3.5535 -0.203623,-13.65703 z m 116.729251,12.59651 c -1.08066,-0.56928 -7.16943,-3.6631 -13.53059,-6.87515 l -11.56575,-5.84009 V 90.263189 c 0,-7.460366 0.0398,-13.564302 0.0884,-13.564302 0.0486,0 3.726,1.849647 8.17194,4.110326 4.44594,2.260678 10.51419,5.335204 13.485,6.832278 l 5.40146,2.721953 0.002,13.619906 c 0.001,7.49094 -0.0182,13.61417 -0.0428,13.60717 -0.0246,-0.007 -0.92884,-0.4785 -2.0095,-1.04779 z M 72.785383,101.47695 c -0.04568,-0.11967 -0.06226,-6.311593 -0.03686,-13.759827 L 72.7947,74.174881 86.191324,67.403543 c 7.368143,-3.724237 13.497099,-6.773423 13.619901,-6.775971 0.176714,-0.0037 0.223275,2.842813 0.223275,13.649552 v 13.654184 l -3.259843,1.683911 c -10.53988,5.444492 -23.91448,12.057691 -23.989274,11.861731 z m 57.168247,-0.46564 c -0.29473,-0.17161 -4.87637,-2.507216 -10.18143,-5.190237 -5.30507,-2.683022 -11.1125,-5.638006 -12.90542,-6.566632 l -3.25984,-1.68841 V 74.094483 c 0,-9.707488 0.0551,-13.471545 0.19718,-13.471545 0.10845,0 3.26336,1.56281 7.0109,3.472912 3.74754,1.910102 9.74758,4.960476 13.33341,6.77861 l 6.51969,3.305697 0.0458,13.58426 c 0.0252,7.471342 -0.015,13.578553 -0.0893,13.571583 -0.0743,-0.007 -0.37622,-0.15308 -0.67095,-0.32469 z"
             style="fill:#a0db9e;stroke-width:0.17862166" />
          <path
             id="path4649"
             d="m 99.409327,179.79516 c -1.277145,-0.66646 -6.01955,-3.08637 -10.538678,-5.37759 -4.519128,-2.29122 -9.535221,-4.85131 -11.146872,-5.68909 l -2.930278,-1.52324 0.786818,-0.40738 c 0.432748,-0.22406 6.533968,-3.33831 13.558264,-6.92056 l 12.771449,-6.51318 3.03657,1.56617 c 1.67011,0.86139 6.89479,3.52052 11.61041,5.90918 4.71561,2.38866 9.44656,4.8014 10.51323,5.36165 l 1.9394,1.01863 -2.20733,1.15813 c -1.21403,0.63697 -5.74404,2.94718 -10.06668,5.1338 -4.32265,2.18662 -9.39492,4.76915 -11.27172,5.73897 -1.87681,0.96981 -3.4844,1.7617 -3.57244,1.75977 -0.088,-0.002 -1.205,-0.54879 -2.482143,-1.21526 z m 27.329113,-17.73872 c -3.43847,-1.7575 -9.52596,-4.85973 -13.52775,-6.89383 -4.0018,-2.03411 -7.21699,-3.75223 -7.14487,-3.81807 0.0721,-0.0658 2.50233,-1.32735 5.40047,-2.80337 2.89813,-1.47603 8.92662,-4.5487 13.39662,-6.82816 l 8.12729,-4.14448 2.85794,1.45302 c 1.57188,0.79916 7.52197,3.82048 13.22244,6.71403 5.70046,2.89356 10.5125,5.36925 10.69342,5.50154 0.29455,0.21538 -0.65804,0.74114 -9.11414,5.03026 -5.19368,2.63436 -11.2918,5.73357 -13.55136,6.88713 l -4.1083,2.09738 z m -70.055114,-3.77526 c -7.387627,-3.75602 -13.375918,-6.87926 -13.307313,-6.94052 0.109675,-0.098 16.877906,-8.64639 24.280878,-12.37839 l 2.721543,-1.37199 8.620932,4.39176 c 4.741512,2.41547 10.811068,5.49418 13.487902,6.84158 2.676833,1.34739 4.867181,2.50257 4.86744,2.56704 7.14e-4,0.15977 -26.687694,13.72675 -26.994836,13.7228 -0.134474,-0.002 -6.288918,-3.07625 -13.676546,-6.83228 z m 47.379164,-17.68367 c -0.0673,-4.3454 -0.0969,-10.29612 -0.0657,-13.22382 l 0.0567,-5.32309 13.39662,-6.77189 c 7.36815,-3.72454 13.47701,-6.77476 13.57525,-6.77826 0.11693,-0.004 0.20177,4.51279 0.24565,13.0774 l 0.067,13.08377 -1.31738,0.67153 c -0.72455,0.36935 -6.26073,3.1737 -12.3026,6.2319 -6.04188,3.0582 -11.55853,5.86925 -12.25922,6.24678 l -1.27397,0.68642 z m 54.73854,6.64143 c -1.32627,-0.69093 -7.41503,-3.78892 -13.53059,-6.88442 l -11.1192,-5.62818 v -13.57366 -13.57367 l 10.85126,5.48161 c 5.9682,3.0149 12.07706,6.11963 13.57525,6.89941 l 2.72398,1.41779 v 13.56349 c 0,7.45992 -0.0201,13.56132 -0.0446,13.55868 -0.0246,-0.003 -1.12979,-0.57012 -2.45605,-1.26105 z m -116.239198,-12.40982 0.04581,-13.1398 1.07173,-0.58053 c 0.589452,-0.31929 6.678218,-3.40245 13.530591,-6.85147 l 12.458861,-6.27094 3.57e-4,7.17517 c 1.59e-4,3.94635 0.053,9.86966 0.117422,13.16291 l 0.117137,5.98774 -10.432823,5.24497 c -5.738125,2.88473 -11.807549,5.95749 -13.487682,6.82836 -1.680132,0.87087 -3.14758,1.5834 -3.260996,1.5834 -0.154413,0 -0.194705,-3.30059 -0.160404,-13.13981 z m 58.986048,-16.03546 c -0.19379,-0.1312 -4.290944,-2.23142 -9.104798,-4.66715 -7.16029,-3.62298 -18.829113,-9.55274 -18.967484,-9.63872 -0.01847,-0.0115 1.589122,-0.84243 3.572433,-1.84655 3.267637,-1.65435 7.853839,-3.98846 20.642041,-10.505569 l 4.353878,-2.21882 6.36342,3.240473 c 3.49988,1.78226 8.05139,4.103283 10.11447,5.157824 2.06308,1.054543 5.61989,2.854182 7.90401,3.999192 2.28413,1.14501 4.15296,2.11376 4.15296,2.15277 0,0.039 -1.70807,0.93044 -3.79571,1.98093 -2.08765,1.0505 -5.56407,2.81422 -7.72539,3.91938 -7.34762,3.75711 -17.02928,8.6648 -17.09351,8.6648 -0.0352,0 -0.22254,-0.10735 -0.41632,-0.23856 z m -58.986005,-14.86608 0.04576,-13.675674 1.07173,-0.580526 c 0.589452,-0.31929 6.665117,-3.395855 13.501477,-6.83681 l 12.429749,-6.256285 0.116544,13.586392 c 0.09178,10.699683 0.0695,13.630083 -0.104853,13.792043 -0.266568,0.2476 -26.728143,13.64653 -26.950573,13.64653 -0.08743,0 -0.135553,-5.99139 -0.109838,-13.67567 z m 105.030645,6.68813 -13.44128,-6.79766 V 90.239361 c 0,-10.793019 0.0458,-13.559792 0.22328,-13.48655 0.1228,0.05068 6.21156,3.137018 13.53059,6.858531 l 13.30731,6.766385 0.0458,13.523453 c 0.0252,7.43789 -0.015,13.52091 -0.0893,13.51781 -0.0743,-0.003 -6.18367,-3.06458 -13.57637,-6.80328 z m -74.794537,-9.05536 c -0.04204,-0.042 -0.0818,-6.207081 -0.08836,-13.700094 l -0.01193,-13.623658 13.483606,-6.80683 c 7.415989,-3.743756 13.567269,-6.80683 13.669519,-6.80683 0.127575,0 0.171542,4.28999 0.140143,13.672289 l -0.04577,13.67229 -5.434387,2.772647 C 84.683945,95.753872 72.875851,101.63822 72.797983,101.56035 Z m 49.921467,-4.256922 c -4.37176,-2.220809 -10.44043,-5.309547 -13.48593,-6.863861 l -5.53727,-2.826027 -0.0458,-13.4953 c -0.0262,-7.725455 0.0217,-13.495302 0.11202,-13.495302 0.0868,0 6.19616,3.063299 13.57637,6.80733 l 13.41857,6.807331 v 13.555538 c 0,7.455547 -0.0201,13.553873 -0.0447,13.551833 -0.0246,-0.002 -3.62155,-1.820734 -7.99332,-4.041542 z"
             style="fill:#9d9d9d;stroke-width:0.17862166" />
          <path
             id="path4647"
             d="m 96.997934,178.49393 c -2.701652,-1.3767 -8.800662,-4.4776 -13.553356,-6.8909 l -8.64126,-4.38782 9.266436,-4.71073 c 5.09654,-2.59089 11.19722,-5.68819 13.557068,-6.88287 l 4.290638,-2.17215 13.51336,6.86065 c 7.43235,3.77335 13.45916,6.90914 13.39291,6.9684 -0.0663,0.0593 -3.41602,1.77734 -7.44394,3.81794 -4.02792,2.0406 -10.0564,5.10302 -13.39662,6.80537 l -6.07314,3.09519 z M 62.613265,161.25915 c -4.12616,-2.11003 -10.138185,-5.17217 -13.360053,-6.80475 -3.221869,-1.63257 -5.794021,-3.032 -5.715893,-3.10983 0.07813,-0.0778 6.143726,-3.19687 13.479106,-6.93121 l 13.337054,-6.78971 7.740302,3.9398 c 4.257165,2.16688 10.341806,5.26774 13.521423,6.89079 l 5.781126,2.951 -3.459044,1.77518 c -1.902472,0.97635 -7.51822,3.83278 -12.479436,6.34761 -4.961217,2.51484 -9.453703,4.80107 -9.983302,5.08051 -0.529599,0.27944 -1.052067,0.50334 -1.161041,0.49755 -0.108973,-0.006 -3.574082,-1.7369 -7.700242,-3.84694 z m 61.445855,-0.62738 c -4.81386,-2.45895 -10.87426,-5.54415 -13.46755,-6.856 l -4.71509,-2.38519 4.0006,-1.99906 c 2.20033,-1.09948 5.44744,-2.74303 7.21579,-3.65232 1.76836,-0.9093 6.07267,-3.10621 9.56514,-4.88203 l 6.34995,-3.22877 13.38774,6.79931 c 7.36326,3.73962 13.44483,6.85076 13.51461,6.91365 0.0698,0.0629 -1.49764,0.93519 -3.48313,1.93845 -1.98549,1.00327 -8.03086,4.07432 -13.43417,6.82458 -5.4033,2.75025 -9.90457,4.99995 -10.00281,4.99932 -0.0982,-5.3e-4 -4.11723,-2.01299 -8.93108,-4.47194 z m -19.95373,-25.38963 c -0.0761,-11.71436 -0.0558,-13.10274 0.19348,-13.26266 0.37684,-0.24176 26.71863,-13.46655 26.74556,-13.42751 0.0117,0.017 0.0735,5.8986 0.1374,13.07026 l 0.1161,13.03939 -4.51252,2.28536 c -2.48188,1.25695 -8.543,4.33148 -13.46915,6.83228 -4.92615,2.5008 -8.99472,4.54691 -9.04127,4.54691 -0.0465,0 -0.12287,-5.88781 -0.1696,-13.08403 z m 51.74838,10.43586 c -2.84902,-1.45252 -8.79712,-4.47444 -13.218,-6.71538 -4.42089,-2.24095 -8.10225,-4.13343 -8.18081,-4.20552 -0.12691,-0.11647 -0.19177,-26.79229 -0.0654,-26.91862 0.028,-0.028 6.07466,2.99619 13.43694,6.72049 l 13.38597,6.77145 0.0458,13.49788 c 0.0252,7.42383 -0.015,13.49624 -0.0893,13.49425 -0.0743,-0.002 -2.4661,-1.19204 -5.31512,-2.64455 z m -113.291938,-10.84827 0.04581,-13.13921 13.396625,-6.77193 c 7.368143,-3.72456 13.457427,-6.77426 13.531742,-6.77711 0.07431,-0.003 0.114504,5.90684 0.08931,13.13264 l -0.04581,13.13782 -13.396625,6.77234 c -7.368143,3.72479 -13.457427,6.77511 -13.531742,6.7785 -0.07431,0.003 -0.114504,-5.90649 -0.08931,-13.13305 z m 58.885718,-16.13302 c -0.33509,-0.17669 -4.829187,-2.45939 -9.986887,-5.07265 -14.951158,-7.57534 -17.709507,-9.00048 -17.709777,-9.15002 -1.78e-4,-0.14433 3.681018,-2.04395 18.334953,-9.461188 4.617369,-2.337131 8.737631,-4.443679 9.156141,-4.681217 l 0.76092,-0.431889 4.86566,2.485531 c 2.67611,1.367041 7.92009,4.03644 11.65328,5.931997 11.35563,5.765906 11.7496,5.972696 11.73025,6.157286 -0.0226,0.2161 -0.24255,0.33175 -11.01576,5.79314 -4.71561,2.39055 -10.51012,5.33731 -12.87669,6.54836 l -4.30284,2.20192 z M 42.561875,103.92818 42.607635,90.253115 56.00426,83.481184 c 7.368143,-3.724564 13.456909,-6.774264 13.53059,-6.777115 0.07368,-0.0029 0.133132,6.123774 0.132114,13.61472 l -0.0019,13.619901 -5.490764,2.7922 c -13.831348,7.03363 -21.437719,10.87236 -21.543344,10.87236 -0.06319,0 -0.0943,-6.15378 -0.06913,-13.67507 z m 105.222775,6.7391 c -7.28703,-3.70223 -13.29516,-6.77736 -13.35141,-6.83361 -0.16256,-0.16255 -0.20885,-26.956213 -0.0466,-26.956186 0.13204,2.3e-5 4.15145,2.028406 21.28849,10.743169 l 5.53727,2.81589 0.0458,13.494037 c 0.0252,7.42173 -0.015,13.48819 -0.0893,13.48104 -0.0743,-0.007 -6.09721,-3.04211 -13.38424,-6.74434 z M 72.847536,87.996707 c -0.0495,-9.323481 -0.01334,-13.593919 0.116286,-13.73426 0.103467,-0.112019 6.183448,-3.226586 13.511067,-6.921261 l 13.322949,-6.71759 0.12422,13.604754 c 0.06832,7.482614 0.06128,13.659875 -0.01563,13.727246 -0.148183,0.129781 -26.813767,13.571704 -26.923048,13.571704 -0.0352,0 -0.09634,-6.088768 -0.135845,-13.530593 z m 56.480914,12.615473 c -0.73681,-0.39329 -5.96149,-3.055897 -11.6104,-5.916911 -5.64891,-2.861013 -11.07455,-5.624058 -12.05697,-6.1401 l -1.78621,-0.938254 -0.0458,-13.503975 -0.0458,-13.503973 8.97686,4.566156 c 4.93728,2.511387 11.00629,5.589056 13.4867,6.839265 l 4.50983,2.273107 3.6e-4,13.53059 c 1.8e-4,7.441825 -0.0197,13.525765 -0.0443,13.519875 -0.0246,-0.006 -0.64751,-0.3325 -1.38432,-0.72578 z"
             style="fill:#40ba3d;stroke-width:0.17862166" />
          <path
             id="path4645"
             d="m 96.997934,178.49393 c -2.701652,-1.3767 -8.800662,-4.4776 -13.553356,-6.8909 l -8.64126,-4.38782 9.266436,-4.71073 c 5.09654,-2.59089 11.19722,-5.68819 13.557068,-6.88287 l 4.290638,-2.17215 13.51336,6.86065 c 7.43235,3.77335 13.45916,6.90914 13.39291,6.9684 -0.0663,0.0593 -3.41602,1.77734 -7.44394,3.81794 -4.02792,2.0406 -10.0564,5.10302 -13.39662,6.80537 l -6.07314,3.09519 z M 62.613265,161.25915 c -4.12616,-2.11003 -10.138185,-5.17217 -13.360053,-6.80475 -3.221869,-1.63257 -5.794021,-3.032 -5.715893,-3.10983 0.07813,-0.0778 6.143726,-3.19687 13.479106,-6.93121 l 13.337054,-6.78971 7.740302,3.9398 c 4.257165,2.16688 10.341806,5.26774 13.521423,6.89079 l 5.781126,2.951 -3.459044,1.77518 c -1.902472,0.97635 -7.51822,3.83278 -12.479436,6.34761 -4.961217,2.51484 -9.453703,4.80107 -9.983302,5.08051 -0.529599,0.27944 -1.052067,0.50334 -1.161041,0.49755 -0.108973,-0.006 -3.574082,-1.7369 -7.700242,-3.84694 z m 61.445855,-0.62738 c -4.81386,-2.45895 -10.87426,-5.54415 -13.46755,-6.856 l -4.71509,-2.38519 4.0006,-1.99906 c 2.20033,-1.09948 5.44744,-2.74303 7.21579,-3.65232 1.76836,-0.9093 6.07267,-3.10621 9.56514,-4.88203 l 6.34995,-3.22877 13.38774,6.79931 c 7.36326,3.73962 13.44483,6.85076 13.51461,6.91365 0.0698,0.0629 -1.49764,0.93519 -3.48313,1.93845 -1.98549,1.00327 -8.03086,4.07432 -13.43417,6.82458 -5.4033,2.75025 -9.90457,4.99995 -10.00281,4.99932 -0.0982,-5.3e-4 -4.11723,-2.01299 -8.93108,-4.47194 z M 104.1428,138.97734 c 0,-5.14186 -0.0527,-11.04236 -0.1172,-13.11222 l -0.1172,-3.76338 13.60313,-6.80545 13.60314,-6.80546 v 12.30132 c 0,6.76573 0.0456,12.65415 0.10123,13.08539 l 0.10124,0.78408 -4.52212,2.28536 c -2.48717,1.25695 -8.55261,4.33148 -13.47876,6.83228 -4.92615,2.5008 -9.00542,4.54691 -9.06505,4.54691 -0.0596,0 -0.10841,-4.20697 -0.10841,-9.34883 z m 51.71097,6.70066 c -2.84902,-1.45252 -8.79712,-4.47444 -13.218,-6.71538 -4.42089,-2.24095 -8.10225,-4.13343 -8.18081,-4.20552 -0.12691,-0.11647 -0.19177,-26.79229 -0.0654,-26.91862 0.028,-0.028 6.07466,2.99619 13.43694,6.72049 l 13.38597,6.77145 0.0458,13.49788 c 0.0252,7.42383 -0.015,13.49624 -0.0893,13.49425 -0.0743,-0.002 -2.4661,-1.19204 -5.31512,-2.64455 z m -113.291938,-10.84827 0.04581,-13.13921 13.396625,-6.77193 c 7.368143,-3.72456 13.457427,-6.77426 13.531742,-6.77711 0.07431,-0.003 0.114504,5.90684 0.08931,13.13264 l -0.04581,13.13782 -13.396625,6.77234 c -7.368143,3.72479 -13.457427,6.77511 -13.531742,6.7785 -0.07431,0.003 -0.114504,-5.90649 -0.08931,-13.13305 z m 4.3e-5,-30.90155 0.04576,-13.675065 13.396625,-6.771931 c 7.368143,-3.724564 13.456909,-6.774264 13.53059,-6.777115 0.07368,-0.0029 0.133132,6.123774 0.132114,13.61472 l -0.0019,13.619901 -5.490764,2.7922 c -13.831348,7.03363 -21.437719,10.87236 -21.543344,10.87236 -0.06319,0 -0.0943,-6.15378 -0.06913,-13.67507 z m 105.222775,6.7391 c -7.28703,-3.70223 -13.29516,-6.77736 -13.35141,-6.83361 -0.16256,-0.16255 -0.20885,-26.956213 -0.0466,-26.956186 0.13204,2.3e-5 4.15145,2.028406 21.28849,10.743169 l 5.53727,2.81589 0.0458,13.494037 c 0.0252,7.42173 -0.015,13.48819 -0.0893,13.48104 -0.0743,-0.007 -6.09721,-3.04211 -13.38424,-6.74434 z M 72.847536,87.996707 c -0.0495,-9.323481 -0.01334,-13.593919 0.116286,-13.73426 0.103467,-0.112019 6.183448,-3.226586 13.511067,-6.921261 l 13.322949,-6.71759 0.12422,13.604754 c 0.06832,7.482614 0.06128,13.659875 -0.01563,13.727246 -0.148183,0.129781 -26.813767,13.571704 -26.923048,13.571704 -0.0352,0 -0.09634,-6.088768 -0.135845,-13.530593 z m 56.480914,12.615473 c -0.73681,-0.39329 -5.96149,-3.055897 -11.6104,-5.916911 -5.64891,-2.861013 -11.07455,-5.624058 -12.05697,-6.1401 l -1.78621,-0.938254 -0.0458,-13.503975 -0.0458,-13.503973 8.97686,4.566156 c 4.93728,2.511387 11.00629,5.589056 13.4867,6.839265 l 4.50983,2.273107 3.6e-4,13.53059 c 1.8e-4,7.441825 -0.0197,13.525765 -0.0443,13.519875 -0.0246,-0.006 -0.64751,-0.3325 -1.38432,-0.72578 z"
             style="fill:#5e5e5e;stroke-width:0.17862166" />
          <path
             id="path4643"
             d="m 100.74899,180.37513 c -0.44209,-0.24438 -4.943355,-2.54331 -10.002814,-5.10874 -5.059458,-2.56544 -9.922433,-5.04476 -10.80661,-5.5096 -0.884177,-0.46485 -2.363883,-1.224 -3.288236,-1.68702 l -1.680638,-0.84183 2.841679,-1.46784 c 1.562925,-0.80731 6.860669,-3.50389 11.772764,-5.9924 4.912096,-2.4885 9.682012,-4.92112 10.599815,-5.4058 l 1.66873,-0.88124 3.95785,2.001 c 2.17682,1.10055 5.72621,2.90462 7.88753,4.00904 2.16132,1.10442 6.42145,3.27472 9.46695,4.82289 3.0455,1.54817 5.56205,2.83575 5.59233,2.86129 0.0591,0.0499 -5.60978,2.96727 -16.48825,8.48539 -3.7332,1.89366 -7.54239,3.83272 -8.46488,4.30902 -0.92248,0.4763 -1.80666,0.86243 -1.96484,0.85807 -0.15817,-0.004 -0.64929,-0.20786 -1.09138,-0.45223 z m -39.74332,-20.0031 c -5.108579,-2.60325 -11.154004,-5.67435 -13.434276,-6.82467 -2.280273,-1.15032 -4.088817,-2.1434 -4.018987,-2.20685 0.118271,-0.10748 11.971066,-6.14354 22.319948,-11.3665 l 4.509441,-2.27586 2.367493,1.20211 c 1.302121,0.66117 4.979834,2.53553 8.172696,4.16526 3.192862,1.62972 8.019071,4.08196 10.724909,5.44942 2.705839,1.36745 5.066415,2.59355 5.245727,2.72467 0.290406,0.21235 -1.140739,0.98328 -13.101736,7.05768 -7.385265,3.75061 -13.443309,6.81673 -13.462322,6.81361 -0.01901,-0.003 -4.214313,-2.13562 -9.322893,-4.73887 z m 64.03586,0.6995 c -4.37176,-2.22111 -10.43289,-5.30712 -13.46917,-6.8578 l -5.5205,-2.81942 1.59083,-0.80632 c 0.87495,-0.44348 4.68545,-2.38133 8.46776,-4.30635 3.78232,-1.92501 9.14915,-4.6438 11.9263,-6.04176 l 5.04936,-2.54173 3.52448,1.81009 c 1.93846,0.99555 6.49853,3.31677 10.13348,5.15827 3.63495,1.8415 8.08617,4.11148 9.89161,5.04441 l 3.2826,1.69623 -1.31777,0.69984 c -0.72477,0.38492 -2.96555,1.53246 -4.97951,2.55011 -2.01396,1.01764 -7.46782,3.78733 -12.11969,6.15487 -4.65186,2.36753 -8.4699,4.30311 -8.48452,4.30127 -0.0146,-0.002 -3.60349,-1.8206 -7.97526,-4.04171 z m -20.85523,-25.88359 0.0458,-13.1382 13.44128,-6.78397 13.44128,-6.78397 0.0335,12.59868 c 0.0184,6.92928 0.0385,12.81973 0.0447,13.0899 0.0102,0.44998 -0.16124,0.57868 -2.04299,1.53341 -1.12978,0.5732 -6.43484,3.25612 -11.78903,5.96203 -5.35418,2.7059 -10.46824,5.31144 -11.36458,5.79007 -0.89634,0.47864 -1.68056,0.87025 -1.74271,0.87025 -0.0622,0 -0.0924,-5.91219 -0.0672,-13.1382 z m 56.31163,12.81248 c -0.29472,-0.17841 -5.72036,-2.94608 -12.05696,-6.15037 -6.3366,-3.2043 -12.10328,-6.13255 -12.81483,-6.50723 l -1.29374,-0.68123 -0.001,-13.4529 -0.001,-13.4529 7.8147,3.96435 c 4.29808,2.1804 10.36541,5.26015 13.48296,6.8439 l 5.66826,2.87954 0.003,13.44128 c 0.002,7.39271 -0.0573,13.44098 -0.131,13.44061 -0.0737,-3.5e-4 -0.3751,-0.14664 -0.66983,-0.32505 z M 42.69695,140.40664 c 0,-4.06102 -0.05225,-9.90865 -0.116102,-12.99473 l -0.116104,-5.61105 11.503235,-5.7897 c 6.326777,-3.18434 12.406903,-6.25886 13.51139,-6.83228 1.104486,-0.57342 2.048948,-1.04258 2.098805,-1.04258 0.04985,0 0.09065,5.89111 0.09065,13.09135 v 13.09134 l -12.190929,6.1412 c -6.70501,3.37766 -12.699976,6.40871 -13.322148,6.73566 -0.622171,0.32695 -1.204924,0.59446 -1.295007,0.59446 -0.09666,0 -0.163787,-3.02616 -0.163787,-7.38367 z m 0,-29.77584 c 0,-3.79587 -0.05236,-9.90888 -0.116345,-13.584466 l -0.116347,-6.68289 11.503478,-5.789698 c 6.326911,-3.184334 12.407146,-6.25886 13.511633,-6.832278 1.104486,-0.57342 2.048948,-1.042581 2.098805,-1.042581 0.04985,0 0.09035,6.128956 0.08999,13.619902 l -7.15e-4,13.619901 -6.652997,3.35051 c -3.659147,1.84279 -9.727522,4.90137 -13.485275,6.79685 l -6.832278,3.44633 v -6.90158 z m 112.88889,3.92242 c -3.09462,-1.57387 -9.1432,-4.63849 -13.44128,-6.81026 l -7.8147,-3.94868 V 90.321011 c 0,-7.4103 0.0603,-13.44544 0.13397,-13.411425 0.54451,0.251383 9.85979,4.97148 10.85126,5.498387 0.6877,0.365467 4.56602,2.34201 8.6185,4.392317 l 7.36814,3.727833 v 13.448247 c 0,7.39654 -0.0201,13.44605 -0.0446,13.44335 -0.0246,-0.003 -2.57662,-1.29262 -5.67124,-2.8665 z M 72.88401,87.902193 v -13.65253 l 9.511604,-4.783336 c 5.231381,-2.630835 11.300552,-5.703376 13.487048,-6.827872 l 3.975444,-2.044537 -0.04577,13.693741 -0.04577,13.693738 -13.44128,6.786664 -13.44128,6.786659 z m 53.31857,11.062929 c -2.35781,-1.208161 -8.3662,-4.265628 -13.35197,-6.794368 l -9.06505,-4.597711 V 74.10153 60.630015 l 0.75914,0.416109 c 0.41753,0.228861 5.48166,2.804441 11.25363,5.723514 5.77197,2.919073 11.47893,5.820756 12.68214,6.448188 l 2.18765,1.140787 0.0458,13.40572 c 0.0252,7.373146 -0.015,13.403857 -0.0893,13.401587 -0.0743,-0.002 -2.06421,-0.99264 -4.42201,-2.200798 z"
             style="fill:#26a63b;stroke-width:0.17862166" />
          <path
             id="path4641"
             d="m 100.74899,180.37513 c -0.44209,-0.24438 -4.943355,-2.54331 -10.002814,-5.10874 -5.059458,-2.56544 -9.922433,-5.04476 -10.80661,-5.5096 -0.884177,-0.46485 -2.363883,-1.224 -3.288236,-1.68702 l -1.680638,-0.84183 2.841679,-1.46784 c 1.562925,-0.80731 6.860669,-3.50389 11.772764,-5.9924 4.912096,-2.4885 9.682012,-4.92112 10.599815,-5.4058 l 1.66873,-0.88124 3.95785,2.001 c 2.17682,1.10055 5.72621,2.90462 7.88753,4.00904 2.16132,1.10442 6.42145,3.27472 9.46695,4.82289 3.0455,1.54817 5.56205,2.83575 5.59233,2.86129 0.0591,0.0499 -5.60978,2.96727 -16.48825,8.48539 -3.7332,1.89366 -7.54239,3.83272 -8.46488,4.30902 -0.92248,0.4763 -1.80666,0.86243 -1.96484,0.85807 -0.15817,-0.004 -0.64929,-0.20786 -1.09138,-0.45223 z m -39.74332,-20.0031 c -5.108579,-2.60325 -11.154004,-5.67435 -13.434276,-6.82467 -2.280273,-1.15032 -4.088817,-2.1434 -4.018987,-2.20685 0.118271,-0.10748 11.971066,-6.14354 22.319948,-11.3665 l 4.509441,-2.27586 2.367493,1.20211 c 1.302121,0.66117 4.979834,2.53553 8.172696,4.16526 3.192862,1.62972 8.019071,4.08196 10.724909,5.44942 2.705839,1.36745 5.066415,2.59355 5.245727,2.72467 0.290406,0.21235 -1.140739,0.98328 -13.101736,7.05768 -7.385265,3.75061 -13.443309,6.81673 -13.462322,6.81361 -0.01901,-0.003 -4.214313,-2.13562 -9.322893,-4.73887 z m 64.03586,0.6995 c -4.37176,-2.22111 -10.43289,-5.30712 -13.46917,-6.8578 l -5.5205,-2.81942 1.59083,-0.80632 c 0.87495,-0.44348 4.68545,-2.38133 8.46776,-4.30635 3.78232,-1.92501 9.14915,-4.6438 11.9263,-6.04176 l 5.04936,-2.54173 3.52448,1.81009 c 1.93846,0.99555 6.49853,3.31677 10.13348,5.15827 3.63495,1.8415 8.08617,4.11148 9.89161,5.04441 l 3.2826,1.69623 -1.31777,0.69984 c -0.72477,0.38492 -2.96555,1.53246 -4.97951,2.55011 -2.01396,1.01764 -7.46782,3.78733 -12.11969,6.15487 -4.65186,2.36753 -8.4699,4.30311 -8.48452,4.30127 -0.0146,-0.002 -3.60349,-1.8206 -7.97526,-4.04171 z m -20.85523,-25.89169 0.0458,-13.14631 10.44305,-5.23857 c 5.74367,-2.88122 10.51859,-5.19189 10.61093,-5.13482 0.0923,0.0571 0.11053,0.011 0.0404,-0.10246 -0.17052,-0.27591 0.12164,-0.26359 0.40436,0.0171 0.18035,0.17902 0.20134,0.16132 0.10592,-0.0893 -0.09,-0.23646 -0.0273,-0.31259 0.25735,-0.31259 0.207,0 0.37636,-0.0938 0.37636,-0.20839 0,-0.11462 0.0487,-0.15965 0.10832,-0.10007 0.0596,0.0596 0.27569,-0.0476 0.48024,-0.23816 0.45774,-0.42645 0.8053,-0.46448 0.38269,-0.0419 -0.19705,0.19706 -0.23309,0.32846 -0.10207,0.37213 0.33533,0.11178 0.22758,0.42685 -0.11004,0.3218 -0.17192,-0.0535 -0.43316,-0.02 -0.58052,0.0745 -0.23816,0.15272 -0.23816,0.17337 0,0.18587 0.14736,0.008 0.0754,0.0911 -0.1599,0.18519 -0.23531,0.0941 -0.38286,0.21612 -0.32789,0.27109 0.055,0.055 0.26925,0.009 0.47618,-0.10141 0.20693,-0.11075 0.46737,-0.14503 0.57877,-0.0762 0.13485,0.0833 0.15389,0.0413 0.057,-0.1257 -0.0801,-0.13798 -0.0837,-0.19521 -0.008,-0.12716 0.0756,0.068 0.1246,5.03149 0.10886,11.02989 -0.0256,9.74668 8.9e-4,10.90617 0.24841,10.90617 0.20055,0 0.27778,0.18491 0.27976,0.66983 10e-4,0.3684 0.0776,0.78828 0.16919,0.93305 0.167,0.26408 -0.0558,0.53511 -0.43986,0.53511 -0.0982,0 -0.0581,-0.0779 0.0893,-0.17316 0.23816,-0.15391 0.23816,-0.17375 0,-0.17862 -0.23816,-0.005 -0.23816,-0.0265 0,-0.19495 0.23816,-0.16843 0.23816,-0.18128 0,-0.11562 -0.18747,0.0517 -0.26155,0.29412 -0.2467,0.80727 0.014,0.48442 -0.0649,0.76647 -0.23255,0.8308 -0.13959,0.0536 -0.21533,0.0351 -0.16832,-0.0409 0.047,-0.0761 -0.0649,-0.1383 -0.24876,-0.1383 -0.27204,0 -0.29453,0.0491 -0.12085,0.26395 0.1674,0.20706 0.16526,0.23503 -0.01,0.1298 -0.12548,-0.0754 -0.22328,-0.0467 -0.22328,0.0656 0,0.10983 -0.0817,0.14921 -0.18154,0.0875 -0.0998,-0.0617 -0.13872,-0.18147 -0.0864,-0.26614 0.0523,-0.0847 0.0205,-0.20006 -0.0707,-0.25644 -0.0912,-0.0564 -0.14304,0.0386 -0.11517,0.21094 0.0279,0.17239 -0.03,0.41485 -0.12858,0.53879 -0.15748,0.19796 -1.52551,0.88294 -1.87737,0.94002 -0.0716,0.0116 -0.25082,0.12571 -0.39818,0.25355 -0.14736,0.12783 -3.64388,1.94085 -7.77004,4.02893 -4.12616,2.08808 -8.40026,4.26859 -9.49799,4.84557 -1.09773,0.57698 -2.04271,1.04905 -2.09995,1.04905 -0.0572,0 -0.0835,-5.91584 -0.0583,-13.1463 z m 56.31163,12.82058 c -0.29472,-0.17841 -5.72036,-2.94608 -12.05696,-6.15037 -6.3366,-3.2043 -12.10328,-6.13255 -12.81483,-6.50723 l -1.29374,-0.68123 -0.001,-13.4529 -0.001,-13.4529 7.8147,3.96435 c 4.29808,2.1804 10.36541,5.26015 13.48296,6.8439 l 5.66826,2.87954 0.003,13.44128 c 0.002,7.39271 -0.0573,13.44098 -0.131,13.44061 -0.0737,-3.5e-4 -0.3751,-0.14664 -0.66983,-0.32505 z M 42.69695,140.40664 c 0,-4.06102 -0.05225,-9.90865 -0.116102,-12.99473 l -0.116104,-5.61105 11.503235,-5.7897 c 6.326777,-3.18434 12.406903,-6.25886 13.51139,-6.83228 1.104486,-0.57342 2.048948,-1.04258 2.098805,-1.04258 0.04985,0 0.09065,5.89111 0.09065,13.09135 v 13.09134 l -12.190929,6.1412 c -6.70501,3.37766 -12.699976,6.40871 -13.322148,6.73566 -0.622171,0.32695 -1.204924,0.59446 -1.295007,0.59446 -0.09666,0 -0.163787,-3.02616 -0.163787,-7.38367 z m 84.92978,-4.23454 c -0.0581,-0.094 0.0599,-0.17082 0.26221,-0.17082 0.43129,0 0.4748,0.0993 0.10557,0.24102 -0.14421,0.0553 -0.30972,0.0238 -0.36778,-0.0702 z m 1.38786,-0.79813 c 0.26007,-0.28387 0.34827,-0.3 0.53587,-0.098 0.18083,0.19474 0.17955,0.21634 -0.007,0.11093 -0.12711,-0.072 -0.36825,-0.0279 -0.53586,0.098 -0.2744,0.20606 -0.27374,0.195 0.007,-0.11094 z M 42.69695,110.6308 c 0,-3.79587 -0.05236,-9.90888 -0.116345,-13.584466 l -0.116347,-6.68289 11.503478,-5.789698 c 6.326911,-3.184334 12.407146,-6.25886 13.511633,-6.832278 1.104486,-0.57342 2.048948,-1.042581 2.098805,-1.042581 0.04985,0 0.09035,6.128956 0.08999,13.619902 l -7.15e-4,13.619901 -6.652997,3.35051 c -3.659147,1.84279 -9.727522,4.90137 -13.485275,6.79685 l -6.832278,3.44633 v -6.90158 z m 112.88889,3.92242 c -3.09462,-1.57387 -9.1432,-4.63849 -13.44128,-6.81026 l -7.8147,-3.94868 V 90.321011 c 0,-7.4103 0.0603,-13.44544 0.13397,-13.411425 0.54451,0.251383 9.85979,4.97148 10.85126,5.498387 0.6877,0.365467 4.56602,2.34201 8.6185,4.392317 l 7.36814,3.727833 v 13.448247 c 0,7.39654 -0.0201,13.44605 -0.0446,13.44335 -0.0246,-0.003 -2.57662,-1.29262 -5.67124,-2.8665 z M 72.88401,87.902193 v -13.65253 l 9.511604,-4.783336 c 5.231381,-2.630835 11.300552,-5.703376 13.487048,-6.827872 l 3.975444,-2.044537 -0.04577,13.693741 -0.04577,13.693738 -13.44128,6.786664 -13.44128,6.786659 z m 53.31857,11.062929 c -2.35781,-1.208161 -8.3662,-4.265628 -13.35197,-6.794368 l -9.06505,-4.597711 V 74.10153 60.630015 l 0.75914,0.416109 c 0.41753,0.228861 5.48166,2.804441 11.25363,5.723514 5.77197,2.919073 11.47893,5.820756 12.68214,6.448188 l 2.18765,1.140787 0.0458,13.40572 c 0.0252,7.373146 -0.015,13.403857 -0.0893,13.401587 -0.0743,-0.002 -2.06421,-0.99264 -4.42201,-2.200798 z"
             style="fill:#303030;stroke-width:0.17862166" />
          <path
             id="path4639"
             d="m 104.1428,134.95978 v -12.83053 l 2.0988,-1.07807 c 6.81455,-3.50036 18.74396,-9.42807 18.93198,-9.40727 0.12174,0.0135 0.17728,-0.0468 0.12342,-0.13397 -0.14752,-0.23869 0.17695,-0.19021 0.43388,0.0648 0.18035,0.17902 0.20134,0.16132 0.10592,-0.0893 -0.09,-0.23646 -0.0273,-0.31259 0.25735,-0.31259 0.207,0 0.37636,-0.0938 0.37636,-0.2084 0,-0.11461 0.0487,-0.15964 0.10832,-0.10006 0.0596,0.0596 0.27569,-0.0476 0.48024,-0.23816 0.45774,-0.42645 0.8053,-0.46448 0.38269,-0.0419 -0.19705,0.19706 -0.23309,0.32846 -0.10207,0.37213 0.33533,0.11178 0.22758,0.42685 -0.11004,0.32179 -0.17192,-0.0535 -0.43316,-0.0199 -0.58052,0.0745 -0.23816,0.15272 -0.23816,0.17337 0,0.18587 0.14736,0.008 0.0754,0.0911 -0.1599,0.18519 -0.23531,0.0941 -0.38286,0.21611 -0.32789,0.27108 0.055,0.055 0.26925,0.009 0.47618,-0.1014 0.20693,-0.11075 0.46737,-0.14503 0.57877,-0.0762 0.13485,0.0833 0.15389,0.0413 0.057,-0.1257 -0.0801,-0.13799 -0.0837,-0.19521 -0.008,-0.12716 0.0756,0.068 0.1246,5.03149 0.10886,11.02989 -0.0256,9.74667 8.9e-4,10.90616 0.24841,10.90616 0.20055,0 0.27778,0.18492 0.27976,0.66984 10e-4,0.3684 0.0776,0.78827 0.16919,0.93305 0.167,0.26408 -0.0558,0.5351 -0.43986,0.5351 -0.0982,0 -0.0581,-0.0779 0.0893,-0.17315 0.23816,-0.15391 0.23816,-0.17376 0,-0.17862 -0.23816,-0.005 -0.23816,-0.0265 0,-0.19495 0.23816,-0.16843 0.23816,-0.18128 0,-0.11562 -0.18747,0.0517 -0.26155,0.29411 -0.2467,0.80727 0.014,0.48442 -0.0649,0.76647 -0.23255,0.83079 -0.13959,0.0536 -0.21533,0.0352 -0.16832,-0.0409 0.047,-0.0761 -0.0649,-0.1383 -0.24876,-0.1383 -0.27204,0 -0.29453,0.0491 -0.12085,0.26395 0.1674,0.20706 0.16526,0.23503 -0.01,0.1298 -0.12548,-0.0754 -0.22328,-0.0467 -0.22328,0.0656 0,0.10983 -0.0817,0.14921 -0.18154,0.0875 -0.0998,-0.0617 -0.13872,-0.18147 -0.0864,-0.26614 0.0523,-0.0847 0.0205,-0.20006 -0.0707,-0.25644 -0.0912,-0.0564 -0.14304,0.0386 -0.11517,0.21094 0.0279,0.17239 -0.03,0.41485 -0.12858,0.53879 -0.17572,0.22088 -1.68239,0.95399 -1.81396,0.88263 -0.0368,-0.0199 -0.21594,0.0962 -0.39818,0.25815 -0.18224,0.16192 -4.40258,2.35227 -9.37853,4.86744 -6.03246,3.04919 -9.23171,4.57304 -9.60092,4.57304 h -0.55372 z m 23.48393,1.21232 c -0.0581,-0.094 0.0599,-0.17082 0.26221,-0.17082 0.43129,0 0.4748,0.0993 0.10557,0.24102 -0.14421,0.0553 -0.30972,0.0238 -0.36778,-0.0702 z m 1.38786,-0.79813 c 0.26007,-0.28387 0.34827,-0.3 0.53587,-0.098 0.18083,0.19474 0.17955,0.21634 -0.007,0.11093 -0.12711,-0.072 -0.36825,-0.0279 -0.53586,0.098 -0.2744,0.20606 -0.27374,0.195 0.007,-0.11094 z"
             style="fill:#005f20;stroke-width:0.17862166" />
        </g>
      </g>
      <path
         style="fill:#000000;stroke-width:0.17862166"
         d="m 79.591263,244.34103 c -0.53426,-0.53425 -0.31991,-0.76446 0.84468,-0.9072 1.47111,-0.1803 1.89258,-0.29967 1.76825,-0.50085 -0.0589,-0.0954 -0.36767,-0.17339 -0.68607,-0.17339 -0.96465,0 -1.0076,-0.14601 -1.0076,-3.42495 v -2.99625 l -0.51317,-0.26538 c -0.43334,-0.22408 -0.72448,-0.70068 -0.73475,-1.20276 -0.001,-0.0656 0.6607,-0.33864 1.47119,-0.60671 0.8105,-0.26809 1.57359,-0.52422 1.69576,-0.56921 0.25092,-0.0924 0.58101,0.63773 0.44724,0.98924 -0.0481,0.12643 -0.31888,0.34954 -0.6017,0.4958 -0.28282,0.14624 -0.51422,0.38843 -0.51422,0.53817 0,0.21858 0.20251,0.2617 1.02707,0.21868 l 1.02708,-0.0536 v -0.60764 c 0,-0.57036 0.0554,-0.62646 0.90226,-0.91481 1.75237,-0.59663 2.72821,-1.31905 2.51882,-1.86472 -0.20169,-0.52558 -1.20147,-0.33424 -1.9201,0.36749 -0.55257,0.53957 -0.71438,0.61166 -1.01359,0.45152 -0.19583,-0.10481 -0.39995,-0.30496 -0.45361,-0.4448 -0.0913,-0.23794 1.00117,-2.21151 1.36051,-2.45776 0.23528,-0.16124 0.85999,0.0272 1.35378,0.4084 0.37514,0.2896 0.78619,0.32884 3.44407,0.32884 2.51996,0 3.03508,0.0443 3.12105,0.26833 0.15199,0.39607 -0.0506,1.00214 -0.53515,1.60113 -0.38474,0.47559 -0.47511,0.5086 -0.88318,0.32268 -0.25629,-0.11677 -0.48005,-0.38683 -0.51297,-0.61911 -0.043,-0.3034 -0.19355,-0.42744 -0.5712,-0.47059 -2.39614,-0.27383 -1.37727,1.45317 1.36125,2.30734 0.66313,0.20685 1.20569,0.41242 1.20569,0.45686 0,0.34667 -0.60826,1.13477 -0.87582,1.13477 -0.63253,0 -0.72173,0.40395 -0.77196,3.49605 l -0.0491,3.02364 -0.44656,0.0534 c -0.2456,0.0294 -0.56487,0.094 -0.70948,0.14357 -0.4268,0.14636 0.10523,0.38683 1.14749,0.51863 1.65036,0.2087 1.81083,0.34004 1.18284,0.96804 -0.18919,0.1892 -0.49061,0.31443 -0.66983,0.27831 -0.17921,-0.0361 -1.14974,-0.24382 -2.15671,-0.46154 -1.79971,-0.38916 -1.83088,-0.40454 -1.83088,-0.9035 v -0.50761 h -1.97626 -1.97626 l 0.0561,0.57705 0.0561,0.57706 -1.35252,0.28826 c -2.42043,0.51589 -2.83386,0.5337 -3.22849,0.13907 z m 10.29689,-3.18904 c 0,-0.22824 -0.56225,-0.27507 -3.79571,-0.31614 -3.71705,-0.0472 -3.79571,-0.0406 -3.79571,0.31614 0,0.3568 0.0786,0.36336 3.79571,0.31615 3.23346,-0.0411 3.79571,-0.0879 3.79571,-0.31615 z m 0,-1.78621 c 0,-0.22825 -0.56225,-0.27508 -3.79571,-0.31614 -3.71705,-0.0472 -3.79571,-0.0407 -3.79571,0.31614 0,0.35679 0.0786,0.36335 3.79571,0.31614 3.23346,-0.0411 3.79571,-0.0879 3.79571,-0.31614 z m 0.0277,-1.70461 c 0.0582,-0.15159 0.0491,-0.33245 -0.0201,-0.4019 -0.15608,-0.15663 -6.61428,-0.27731 -7.18428,-0.13425 -0.25932,0.0651 -0.41476,0.23671 -0.41476,0.45795 0,0.34149 0.13112,0.35383 3.75666,0.35383 3.22114,0 3.77174,-0.0393 3.86243,-0.27563 z m 0.5082,-1.98886 c 0,-0.17891 -0.37276,-0.50368 -1.7942,-1.56319 -0.15002,-0.11182 -0.7238,0.0882 -1.75957,0.61339 -2.25965,1.14575 -2.13733,1.27641 1.13231,1.20962 1.71066,-0.035 2.42146,-0.11122 2.42146,-0.25982 z m 10.847497,8.9181 c -0.12486,-0.0423 -0.34379,-0.30268 -0.4865,-0.57865 -0.32841,-0.63505 -0.14443,-0.80328 1.07078,-0.97904 1.38919,-0.20095 3.66175,-0.97154 3.66175,-1.24165 0,-0.37573 -0.99744,-0.69607 -1.82273,-0.58538 -0.68547,0.0919 -1.74971,-0.22807 -1.74971,-0.52613 0,-0.0583 0.29103,-0.5851 0.64673,-1.17063 0.78868,-1.2983 0.69654,-1.44797 -0.96786,-1.57213 -1.12751,-0.0841 -1.20027,-0.11617 -1.25084,-0.55115 -0.0295,-0.25402 0.0552,-0.55221 0.18829,-0.66267 0.13309,-0.11044 1.00123,-0.22413 1.92922,-0.25264 l 1.68724,-0.0518 0.54172,-1.0588 c 0.6049,-1.18228 0.71816,-1.26337 1.40163,-1.00351 0.44633,0.16969 0.47574,0.24664 0.42896,1.12224 l -0.0502,0.94007 3.66175,0.0893 3.66174,0.0893 0.0554,0.66983 0.0554,0.66983 h -0.98158 c -1.52513,0 -1.77172,0.16448 -2.52142,1.68175 -0.36684,0.74244 -0.62675,1.45146 -0.57756,1.57562 0.0492,0.12417 0.90219,0.57468 1.89558,1.00112 1.91377,0.82155 2.0681,1.00396 1.51617,1.79195 -0.37833,0.54013 -0.735,0.46949 -3.09305,-0.61264 l -1.86477,-0.85576 -0.72525,0.28287 c -2.57887,1.00576 -3.38017,1.273 -4.65492,1.55238 -0.78594,0.17226 -1.53115,0.2786 -1.65602,0.23632 z m 7.17896,-4.63463 c 0.24567,-0.26495 0.54447,-0.71781 0.66399,-1.00637 0.31122,-0.75134 -0.11569,-1.01261 -1.65459,-1.01261 -1.44814,0 -2.00084,0.1865 -2.4119,0.81388 -0.41302,0.63033 -0.18908,0.95573 0.92847,1.34911 1.31337,0.46231 1.94596,0.42549 2.47403,-0.14401 z m 13.14931,4.42314 c -0.1981,-0.37014 -0.25223,-3.76122 -0.0708,-4.43827 0.10645,-0.39734 0.15889,-0.40627 2.09636,-0.35724 l 1.98719,0.0503 0.05,2.16589 c 0.0571,2.47425 0.12225,2.38173 -1.68035,2.38652 -0.59375,0.002 -0.9941,0.0967 -1.13826,0.27037 -0.31338,0.37761 -1.02418,0.3333 -1.24406,-0.0776 z m 2.63731,-1.83368 c 0.52245,-0.52245 0.0624,-1.75049 -0.6558,-1.75049 -0.62863,0 -0.94742,0.85258 -0.62903,1.6823 0.1281,0.3338 0.97431,0.37873 1.28483,0.0682 z m 2.81728,1.89866 c -0.39333,-0.39332 -0.35115,-0.5947 0.1657,-0.7912 0.51112,-0.19433 0.56168,-0.39658 0.17863,-0.71449 -0.3478,-0.28865 -0.39483,-4.80306 -0.0536,-5.1443 0.22635,-0.22635 6.8021,-0.32097 7.36246,-0.10593 0.4275,0.16405 0.42233,5.15837 -0.005,5.32254 -0.23328,0.0895 -0.2461,0.16108 -0.0674,0.37635 0.12134,0.1462 0.33134,0.26583 0.46667,0.26583 0.30304,0 0.32123,0.38925 0.0317,0.67876 -0.5062,0.5062 -2.6436,-0.16451 -2.6436,-0.82954 0,-0.44125 -0.32984,-0.56371 -1.51829,-0.56371 -1.23595,0 -1.51828,0.1215 -1.51828,0.6534 0,0.32523 -0.14804,0.4965 -0.58052,0.6716 -1.07118,0.43371 -1.52029,0.47835 -1.81795,0.18069 z m 6.04561,-2.3286 c 0.1554,-0.0596 0.28254,-0.22038 0.28254,-0.35724 0,-0.19934 -0.44185,-0.24882 -2.22223,-0.24882 -2.15601,0 -2.82989,0.16778 -2.22154,0.5531 0.27787,0.176 3.72623,0.21988 4.16123,0.053 z m 0.28254,-1.74799 c 0,-0.38457 -0.41827,-0.46588 -2.38135,-0.46293 -1.82042,0.003 -2.41503,0.14234 -2.18584,0.51316 0.0794,0.12848 0.90717,0.19859 2.34496,0.19859 1.78038,0 2.22223,-0.0495 2.22223,-0.24882 z m -0.0337,-1.49274 c -0.0523,-0.27286 -0.32064,-0.31831 -2.11191,-0.35757 -2.02096,-0.0443 -2.66312,0.0807 -2.42157,0.47156 0.0795,0.12859 0.91066,0.1986 2.35806,0.1986 2.03262,0 2.22989,-0.0284 2.17542,-0.31259 z m 10.41015,5.60166 c -0.1382,-0.16651 -0.18947,-1.00407 -0.15583,-2.54536 l 0.0501,-2.29716 h 5.71589 5.71589 l 0.0497,2.45139 0.0497,2.45138 -0.43076,0.10812 c -0.23693,0.0595 -0.80465,-0.0188 -1.26161,-0.17396 -1.16923,-0.39697 -7.31728,-0.40749 -8.2587,-0.0141 -0.79847,0.33363 -1.20929,0.33913 -1.47435,0.0197 z m 9.78169,-1.41724 c 0.46428,-0.55942 -0.14169,-0.6567 -4.07325,-0.65391 -2.11711,0.002 -3.96148,0.0738 -4.0986,0.1606 -0.13712,0.0868 -0.19993,0.28654 -0.13957,0.44382 0.0961,0.25043 0.6071,0.28595 4.11245,0.28595 3.10327,0 4.04682,-0.0531 4.19897,-0.23646 z m -0.12923,-1.74082 c 0.28511,-0.1526 0.31432,-0.24255 0.14501,-0.44656 -0.17233,-0.20765 -0.96142,-0.25548 -4.21475,-0.25548 -3.50535,0 -4.01636,0.0355 -4.11245,0.28595 -0.0604,0.15728 0.002,0.357 0.13957,0.44383 0.36427,0.23065 7.60648,0.20566 8.04262,-0.0277 z m 12.34628,3.29494 c -0.16258,-0.0707 -0.22328,-0.74341 -0.22328,-2.47446 0,-2.0031 0.0445,-2.39448 0.28254,-2.48583 0.42702,-0.16386 9.77546,-0.1246 10.03826,0.0422 0.17151,0.10883 0.21616,0.74447 0.17862,2.54262 l -0.05,2.39752 -0.71449,-0.063 c -1.25052,-0.11028 -8.19507,-0.0891 -8.75246,0.0268 -0.29473,0.0613 -0.63634,0.0677 -0.75914,0.0143 z m 8.51055,-1.48099 c 0.13712,-0.0868 0.19993,-0.28654 0.13958,-0.44382 -0.0951,-0.24789 -0.54835,-0.28595 -3.40524,-0.28595 -1.81252,0 -3.42264,0.0488 -3.57803,0.10842 -0.33712,0.12936 -0.3736,0.53954 -0.0593,0.66638 0.39479,0.15932 6.64465,0.11854 6.90296,-0.045 z m 0.16337,-2.02478 c 0.0556,-0.2893 -0.20636,-0.31259 -3.51491,-0.31259 -2.19065,0 -3.61774,0.0692 -3.68539,0.17862 -0.29139,0.47149 0.22421,0.54183 3.62762,0.49495 3.18097,-0.0438 3.51828,-0.0779 3.57268,-0.36098 z m -110.048097,3.32788 c -0.0702,-0.0702 -0.12759,-0.63664 -0.12759,-1.25885 0,-1.0294 -0.0337,-1.13127 -0.37432,-1.13127 -0.20588,0 -0.60671,0.16548 -0.89074,0.36773 -0.683003,0.48633 -3.444583,1.77573 -3.803203,1.77573 -0.34193,0 -0.89983,-0.80095 -0.77837,-1.11749 0.0479,-0.12491 0.6435,-0.40631 1.32346,-0.6253 2.40091,-0.77327 2.45579,-1.29378 0.1364,-1.29378 h -1.50774 v -0.62517 -0.62518 h 2.66657 c 2.230443,0 2.714353,-0.0478 2.958743,-0.29217 0.50935,-0.50936 0.0143,-0.68517 -2.194983,-0.77956 -2.03824,-0.0871 -2.09218,-0.10001 -2.15095,-0.51566 -0.0332,-0.23449 0.0472,-0.4945 0.17862,-0.57779 0.1314,-0.0833 1.13458,-0.15267 2.22929,-0.15417 1.557273,-0.002 2.011663,-0.0582 2.088183,-0.2576 0.1883,-0.4907 -0.36828,-0.62777 -2.750683,-0.67748 l -2.39962,-0.0501 v -0.53586 c 0,-0.52172 0.0277,-0.53883 1.04797,-0.64844 1.15653,-0.12423 1.47951,-0.40239 1.11241,-0.9581 -0.17407,-0.26351 -0.46753,-0.37064 -1.10922,-0.40498 -1.48762,-0.0796 -1.67633,-0.16518 -1.67633,-0.76053 0,-0.41903 0.0786,-0.53245 0.36898,-0.53245 0.71923,0 1.0585,-0.32004 0.94435,-0.89081 -0.0889,-0.44475 -0.0328,-0.55958 0.36168,-0.73931 0.39379,-0.17943 0.52312,-0.16199 0.82497,0.11117 0.19688,0.17818 0.35797,0.50963 0.35797,0.73655 0,0.52341 0.58359,0.86503 1.05071,0.61503 0.42456,-0.22723 0.55688,-0.5729 0.55688,-1.45484 0,-0.67524 0.0211,-0.69988 0.600303,-0.69988 0.59098,0 0.60201,0.0145 0.71132,0.93777 0.22382,1.89049 1.67836,1.87903 1.86032,-0.0146 0.0876,-0.91172 0.0961,-0.9231 0.69115,-0.9231 0.59098,0 0.60245,0.0146 0.60245,0.76967 0,1.53303 0.90043,1.84555 1.51366,0.52534 0.36816,-0.79258 0.61159,-0.89306 1.41958,-0.58584 0.40999,0.15586 0.43702,0.22263 0.26902,0.6645 -0.15319,0.40292 -0.13056,0.53233 0.12584,0.71983 0.17194,0.12572 0.54348,0.22858 0.82566,0.22858 0.47121,0 0.50848,0.0473 0.45707,0.58052 l -0.056,0.58052 -1.33168,0.0532 c -1.39778,0.0559 -1.7942,0.22419 -1.7942,0.7619 0,0.47009 0.30349,0.60285 1.60759,0.70316 1.15112,0.0885 1.16104,0.0939 1.16104,0.62517 v 0.53587 l -2.61667,0.0493 c -2.00492,0.0378 -2.66624,0.10903 -2.82867,0.30476 -0.4221,0.50859 7.1e-4,0.62832 2.21882,0.62832 2.3154,0 2.70556,0.12753 2.56951,0.83988 -0.0541,0.28326 -0.32887,0.3317 -2.32866,0.41047 -2.33201,0.0919 -2.96321,0.28431 -2.4897,0.75914 0.1517,0.15212 1.14505,0.25173 3.11695,0.31259 l 2.89429,0.0893 v 0.53587 0.53586 l -1.59341,0.0893 c -1.05907,0.0594 -1.61842,0.16505 -1.66798,0.31513 -0.0845,0.25582 0.7195,0.63262 2.02576,0.94941 0.48311,0.11715 0.94551,0.27322 1.02755,0.34683 0.15899,0.14261 -0.29051,1.14726 -0.59846,1.33759 -0.30239,0.18687 -1.80332,-0.39983 -3.47505,-1.35839 -0.86383,-0.4953 -1.63616,-0.83477 -1.71629,-0.75435 -0.0801,0.0804 -0.17004,0.66867 -0.19979,1.30724 l -0.0541,1.16104 -0.63156,0.0532 c -0.34736,0.0292 -0.68897,-0.004 -0.75914,-0.0744 z m 2.49638,-9.46189 c 0.54575,-0.74635 0.27445,-0.87689 -1.82262,-0.87689 h -1.96239 v 0.44128 c 0,0.67932 0.65676,0.92901 2.2169,0.84285 1.0314,-0.057 1.37776,-0.14694 1.56811,-0.40724 z m -29.704883,9.13891 c -0.0538,-0.14022 -0.0714,-0.44164 -0.0391,-0.66983 0.0506,-0.35701 0.17516,-0.42241 0.893,-0.46874 0.45883,-0.0296 0.91871,-0.15567 1.02198,-0.2801 0.10648,-0.1283 0.20928,-1.342 0.2375,-2.80407 l 0.0498,-2.57787 0.50201,-0.0576 c 0.93535,-0.10725 1.01628,0.12514 1.01628,2.91828 0,2.15961 0.0432,2.5656 0.28254,2.65745 0.52183,0.20025 1.9911,0.11408 2.19249,-0.12859 0.12525,-0.1509 0.2143,-1.56208 0.24515,-3.88502 l 0.0484,-3.64801 0.66983,-0.0555 0.66983,-0.0554 v 1.15906 c 0,1.62445 0.12992,1.72044 2.32856,1.72044 1.53255,0 1.7905,0.0436 1.94291,0.32836 0.0967,0.18061 0.13029,0.50213 0.0748,0.71449 -0.0953,0.3643 -0.20521,0.38613 -1.94554,0.38613 -2.21364,0 -2.40069,0.14318 -2.40069,1.83769 0,1.75512 -0.0345,1.73474 2.93167,1.73474 2.79963,0 3.10968,0.10514 2.89008,0.9801 l -0.11266,0.44887 h -6.70052 c -5.63949,0 -6.71601,-0.0404 -6.79834,-0.25494 z m 105.59026,-5.52443 c -0.19977,-0.14608 -0.2871,-0.35676 -0.22017,-0.53117 0.0943,-0.24578 0.5199,-0.29646 2.84231,-0.33841 2.28689,-0.0413 2.73139,-0.093 2.73139,-0.31729 0,-0.21983 -0.41656,-0.28397 -2.32005,-0.35724 -2.08984,-0.0805 -2.32643,-0.12265 -2.38431,-0.42516 -0.10383,-0.5426 0.29418,-0.64095 2.60555,-0.64384 1.81217,-0.002 2.18812,-0.0482 2.18812,-0.26725 0,-0.35634 -0.46931,-0.44306 -2.67933,-0.49511 -1.74172,-0.041 -1.87552,-0.0697 -1.87552,-0.40141 0,-0.3334 0.14885,-0.36321 2.23076,-0.44656 1.92746,-0.0772 2.23876,-0.13118 2.28963,-0.39731 0.0534,-0.27943 -0.20308,-0.31255 -2.76662,-0.35724 l -2.8255,-0.0493 v -0.44655 -0.44655 l 2.76863,-0.0893 c 2.30224,-0.0743 2.76864,-0.13444 2.76864,-0.35724 0,-0.21911 -0.40686,-0.2842 -2.23277,-0.35724 -2.08392,-0.0834 -2.23277,-0.11312 -2.23277,-0.44656 0,-0.33243 0.14885,-0.36344 2.14346,-0.44655 1.22077,-0.0509 2.3114,-0.18543 2.53361,-0.31259 0.21459,-0.1228 0.62051,-0.22328 0.90204,-0.22328 0.28154,0 0.61214,0.10048 0.73467,0.22328 0.14792,0.14824 1.07536,0.25329 2.75971,0.31259 l 2.53691,0.0893 0.0893,0.62327 c 0.0654,0.45657 0.22069,0.68608 0.58052,0.8582 0.62798,0.30034 0.64886,0.87884 0.0401,1.11028 -0.46009,0.17494 -0.5099,0.25444 -0.69839,1.11465 l -0.10763,0.49121 -2.36334,0.003 c -2.33046,0.003 -2.97375,0.12348 -2.73292,0.51316 0.0799,0.12923 0.94565,0.19954 2.47894,0.20133 1.2959,0.002 2.46457,0.0714 2.59704,0.15536 0.13247,0.0839 0.21191,0.30376 0.17653,0.48848 -0.0585,0.30524 -0.30011,0.34399 -2.65224,0.42515 -2.1416,0.0739 -2.58792,0.13552 -2.58792,0.35725 0,0.22454 0.50585,0.2824 3.1237,0.35724 2.87669,0.0823 3.1288,0.11587 3.18811,0.42515 0.0354,0.18472 -0.044,0.40453 -0.17645,0.48848 -0.13247,0.0839 -3.13925,0.15387 -6.68174,0.15537 -5.14124,0.002 -6.50771,-0.0461 -6.77199,-0.23937 z m 10.8908,-4.58068 c 0,-0.21551 -0.32884,-0.27806 -1.68089,-0.31966 -1.6387,-0.0504 -2.14933,0.0812 -1.89727,0.48901 0.0815,0.13184 0.71521,0.18303 1.85103,0.14952 1.3935,-0.0411 1.72713,-0.1027 1.72713,-0.31887 z m 0.0123,-1.62757 c 0.21842,-0.3534 -0.33867,-0.51035 -1.82134,-0.51316 -0.99941,-0.002 -1.51375,0.072 -1.6507,0.23698 -0.10942,0.13184 -0.14606,0.2926 -0.0814,0.35724 0.20631,0.20633 3.42117,0.13299 3.55345,-0.0811 z m 11.27303,6.33369 c -0.0668,-0.0668 -0.12152,-0.95592 -0.12152,-1.97578 0,-1.71509 -0.0315,-1.88382 -0.41938,-2.24765 -0.23066,-0.21637 -0.5103,-0.56579 -0.62142,-0.77652 -0.26223,-0.49729 -0.1359,-0.58942 1.66598,-1.2152 0.78593,-0.27296 2.29581,-0.90215 3.35528,-1.39822 l 1.92632,-0.90193 0.5195,0.38409 c 0.65129,0.48153 2.70315,1.30197 4.71404,1.88496 0.84745,0.24567 1.62112,0.49633 1.71928,0.55699 0.24256,0.1499 -0.25994,1.09774 -0.70953,1.33834 -0.31191,0.16694 -0.3552,0.41398 -0.40005,2.28274 l -0.0503,2.09553 -5.72835,0.0471 c -3.15059,0.0259 -5.78302,-0.008 -5.84985,-0.0744 z m 2.49082,-2.08562 c 0.0245,-0.94508 -0.19464,-1.17224 -0.81216,-0.84175 -0.27583,0.14761 -0.3712,0.37296 -0.3712,0.87708 0,0.81166 0.11103,0.94974 0.70777,0.88014 0.41166,-0.048 0.45526,-0.13193 0.47559,-0.91547 z m 2.35326,0.13268 c 0.0607,-0.82862 -0.26843,-1.24317 -0.84244,-1.06099 -0.30844,0.0979 -0.34894,0.23326 -0.28496,0.95252 0.041,0.46113 0.0784,0.86385 0.083,0.89493 0.005,0.0311 0.2295,0.0311 0.49967,0 0.43593,-0.0502 0.49723,-0.13867 0.54471,-0.78646 z m 2.7702,-0.0538 c 0.15565,-0.79052 0.0129,-1.08193 -0.53352,-1.08903 -0.63483,-0.008 -1.03585,1.26946 -0.55071,1.7546 0.45134,0.45134 0.92109,0.16297 1.08423,-0.66557 z m 2.40991,0.65873 c 0.30703,-0.30702 0.26436,-1.13911 -0.0759,-1.47931 -0.40446,-0.40446 -1.06616,-0.28757 -0.99313,0.17546 0.031,0.19643 0.0513,0.54606 0.0452,0.77695 -0.006,0.23088 0.0335,0.49212 0.0882,0.58052 0.14188,0.22956 0.68349,0.19852 0.93563,-0.0536 z m 0.75021,-3.18951 c 0,-0.10378 -0.36075,-0.34826 -0.80167,-0.54329 -0.63212,-0.27962 -0.88004,-0.31268 -1.1722,-0.15632 -0.24375,0.13045 -1.55441,0.18322 -3.83049,0.15421 -3.41904,-0.0436 -4.01983,0.0427 -4.01983,0.5773 0,0.0862 2.21045,0.15676 4.9121,0.15676 3.32998,0 4.91209,-0.0608 4.91209,-0.18866 z m -4.56946,-1.52736 c 0.42801,-0.16424 0.33815,-0.5853 -0.15112,-0.70809 -0.5534,-0.1389 -1.17393,0.0552 -1.17393,0.36712 0,0.38031 0.73181,0.56863 1.32505,0.34097 z m -49.42796,5.88971 c -0.23885,-0.23885 -0.12667,-1.09823 0.1576,-1.20732 0.1554,-0.0596 0.90364,-0.10842 1.66277,-0.10842 1.56276,0 2.05226,0.22594 1.95668,0.90311 -0.0601,0.42598 -0.10513,0.43778 -1.85687,0.48706 -0.98739,0.0278 -1.85147,-0.006 -1.92018,-0.0744 z m 5.1296,-1.91507 c -0.0511,-0.13316 -0.0687,-0.75611 -0.0391,-1.38432 l 0.0539,-1.14223 3.9965,-0.0481 c 2.79769,-0.0337 4.07021,0.013 4.24226,0.15585 0.15199,0.12614 0.24577,0.56489 0.24577,1.14991 0,1.62103 0.31394,1.51101 -4.31164,1.51101 -3.28077,0 -4.11326,-0.0481 -4.18769,-0.24208 z m 2.33688,-1.18689 c 0,-0.51998 -0.61387,-0.712 -0.95647,-0.29919 -0.3336,0.40195 -0.0525,0.86276 0.48808,0.80006 0.36605,-0.0425 0.46839,-0.15188 0.46839,-0.50087 z m 2.37927,0.0438 c 0.071,-0.49999 -0.42815,-0.73186 -0.79209,-0.36792 -0.3574,0.3574 -0.12617,0.89348 0.35574,0.82473 0.23598,-0.0337 0.40076,-0.20618 0.43635,-0.45681 z m 2.26489,-0.0438 c 0,-0.32736 -0.10748,-0.46181 -0.40269,-0.50373 -0.4389,-0.0623 -0.68817,0.32073 -0.51032,0.78419 0.0645,0.16822 0.26877,0.25759 0.51032,0.22327 0.29521,-0.0419 0.40269,-0.17637 0.40269,-0.50373 z m -96.29499,0.93503 c -0.31713,-0.21175 -0.64275,-0.94214 -0.53972,-1.21064 0.0523,-0.13622 0.64768,-0.52599 1.32312,-0.86614 1.37462,-0.69225 3.27281,-1.94747 4.54416,-3.00493 1.03055,-0.85715 1.4722,-0.83647 2.10591,0.0987 0.50772,0.74925 2.51365,2.01361 4.76273,3.00201 0.71921,0.31607 1.30765,0.68471 1.30765,0.81919 0,0.39506 -0.52656,1.29851 -0.75682,1.29851 -0.43721,0 -3.13764,-1.48245 -4.56867,-2.50806 -0.81682,-0.5854 -1.6608,-1.06369 -1.87553,-1.06287 -0.21472,0 -1.05922,0.48062 -1.87668,1.06621 -1.25331,0.8978 -3.93722,2.51113 -4.16229,2.50199 -0.037,-0.002 -0.15576,-0.0618 -0.26386,-0.13397 z m 84.34452,-0.0966 c -0.19611,-0.1434 -0.29529,-0.40149 -0.25742,-0.66983 0.0609,-0.43135 0.0839,-0.43655 1.93715,-0.43655 h 1.87553 l 0.0542,0.5563 c 0.0485,0.49823 -0.005,0.56812 -0.51354,0.66983 -0.97607,0.1952 -2.75948,0.12623 -3.09588,-0.11975 z m -21.28337,-1.60445 c -0.0532,-0.13852 -0.0726,-0.80655 -0.0432,-1.48449 l 0.0534,-1.23263 2.59002,-0.0458 c 2.38446,-0.0422 2.61482,-0.0756 2.9026,-0.42169 0.17193,-0.20672 0.31259,-0.52772 0.31259,-0.71332 0,-0.27301 0.13266,-0.33746 0.69461,-0.33746 0.65211,0 0.70177,0.0382 0.81162,0.62373 0.14543,0.77526 0.2231,0.79517 3.31656,0.85103 l 2.41139,0.0435 0.0519,1.47363 0.0519,1.47363 h -0.69889 c -0.67397,0 -0.70284,-0.0248 -0.81001,-0.69498 -0.0624,-0.39044 -0.23539,-0.74268 -0.39468,-0.8038 -0.15595,-0.0599 -2.31682,-0.10882 -4.80192,-0.10882 -4.88209,0 -4.83635,-0.009 -4.94821,0.98242 -0.0539,0.47756 -0.13351,0.5419 -0.73173,0.59138 -0.45315,0.0375 -0.70267,-0.0263 -0.76792,-0.19634 z m 20.84999,-0.64043 c -0.13494,-0.0855 -0.21211,-0.37375 -0.17862,-0.6671 l 0.059,-0.51648 2.36204,-0.0498 2.36204,-0.0498 0.11395,0.45402 c 0.21313,0.84919 -0.12045,0.98553 -2.40385,0.98253 -1.14232,-0.002 -2.18385,-0.0705 -2.31452,-0.15335 z m 5.92558,-1.01325 c -0.17583,-0.4582 0.13061,-0.59543 1.45687,-0.65245 0.96845,-0.0416 1.25035,-0.11416 1.25035,-0.32168 0,-0.2117 -0.3374,-0.28667 -1.60759,-0.35724 -1.45875,-0.081 -1.6076,-0.1224 -1.6076,-0.44656 0,-0.3255 0.13486,-0.36144 1.51828,-0.40459 1.01714,-0.0317 1.71207,-0.14947 2.10537,-0.35675 0.5573,-0.29369 0.61467,-0.29354 1.13086,0.003 0.38632,0.22173 0.94043,0.31288 1.91362,0.31482 1.47498,0.003 1.93028,0.15735 1.76144,0.59735 -0.0835,0.21765 -0.45202,0.29024 -1.67828,0.33061 -1.2546,0.0413 -1.57126,0.10573 -1.57126,0.31966 0,0.20642 0.30762,0.28844 1.33966,0.35725 1.19081,0.0794 1.33966,0.129 1.33966,0.44655 0,0.3439 -0.1352,0.35905 -3.62127,0.40561 -3.17211,0.0424 -3.63477,0.0132 -3.73011,-0.23528 z m -47.717377,-1.08204 c -0.0924,-0.16504 -0.12812,-0.4523 -0.0795,-0.63835 0.0799,-0.3057 0.24543,-0.33337 1.7182,-0.28723 l 1.62974,0.0511 v 0.53587 0.53586 l -1.55027,0.0514 c -1.30073,0.0431 -1.57731,0.003 -1.71821,-0.24865 z m 42.237767,-0.1898 c -0.0655,-0.0655 -0.11908,-0.3051 -0.11908,-0.53245 0,-0.52492 0.40629,-0.63243 2.12685,-0.56284 1.38217,0.0559 1.8058,0.30489 1.56893,0.92217 -0.0928,0.24175 -0.401,0.29221 -1.78487,0.29221 -0.92001,0 -1.72633,-0.0536 -1.79183,-0.11909 z M 61.28221,217.19756 c -0.3093,-0.0882 -0.81533,-0.44841 -1.12451,-0.80053 -0.51869,-0.59076 -0.55805,-0.72533 -0.50935,-1.74116 l 0.0528,-1.10092 8.573843,-0.0893 c 6.13845,-0.064 8.67531,-0.14936 8.93108,-0.30072 0.19648,-0.11627 1.2803,-1.14111 2.40848,-2.27742 1.12818,-1.13632 2.13424,-2.06603 2.23568,-2.06603 0.10145,0 1.10751,0.92998 2.23569,2.06662 1.12818,1.13665 2.26828,2.18158 2.53357,2.32209 0.39454,0.20895 1.75417,0.25546 7.4692,0.25546 4.76358,0 7.111007,-0.0631 7.377007,-0.19816 0.21459,-0.10899 1.21142,-1.0092 2.21517,-2.00047 1.00376,-0.99126 1.8685,-1.75882 1.92164,-1.70568 0.0531,0.0531 0.14117,0.57155 0.19561,1.15201 0.13157,1.40263 0.52112,2.03424 1.57919,2.56042 l 0.87129,0.4333 -1.76903,1.72511 c -1.47476,1.43814 -1.88762,1.74392 -2.48189,1.83827 -1.23144,0.19548 -12.798067,0.12989 -13.573607,-0.077 -0.55789,-0.14881 -1.20569,-0.67608 -2.9557,-2.40575 -1.23267,-1.21834 -2.31399,-2.21517 -2.40295,-2.21517 -0.089,0 -1.17028,0.99683 -2.40295,2.21517 -1.755,1.7346 -2.39717,2.25687 -2.96011,2.40743 -0.88583,0.23693 -17.589783,0.23912 -18.420133,0.002 z m 49.50471,-0.0649 c -1.2108,-0.43939 -1.8057,-1.49798 -1.666,-2.96455 l 0.0584,-0.61317 3.75105,-0.0893 c 3.19594,-0.0761 3.81985,-0.13606 4.2159,-0.40517 0.74816,-0.50837 1.06024,-1.32553 1.20958,-3.16727 l 0.1376,-1.6969 0.98715,2.05415 c 0.54293,1.12978 1.20026,2.30689 1.46072,2.6158 0.92331,1.09502 0.45856,3.42307 -0.82318,4.12349 -0.49755,0.27188 -1.14275,0.3223 -4.59776,0.35924 -3.15038,0.0337 -4.1734,-0.013 -4.73347,-0.21631 z m 14.2921,0 c -0.39167,-0.1427 -0.82023,-0.40304 -0.95237,-0.57856 -0.48055,-0.63828 -1.47058,-2.74973 -1.36751,-2.9165 0.0626,-0.1012 1.78883,-0.17122 4.22124,-0.17122 3.47428,0 4.21335,-0.0465 4.74402,-0.29829 0.81036,-0.38454 1.2994,-1.19612 1.30025,-2.15776 3.6e-4,-0.41753 0.063,-0.75914 0.1391,-0.75914 0.0761,0 0.73928,0.60874 1.47363,1.35275 0.73436,0.74402 1.55225,1.46744 1.81753,1.6076 0.39955,0.21109 2.05061,0.25484 9.61858,0.25484 10.1309,0 9.98088,0.0163 10.70975,-1.16305 0.35408,-0.57292 0.36198,-0.78534 0.28641,-7.70638 -0.0427,-3.91446 -0.0857,-7.31816 -0.0955,-7.56377 -0.0376,-0.94366 0.20335,-3.84708 0.33037,-3.98077 0.17289,-0.18197 2.4803,2.46548 2.80285,3.2159 0.341,0.79332 0.31783,3.08149 -0.0403,3.97645 -0.26402,0.65985 -0.26402,0.77635 0,1.4362 0.24523,0.61289 0.28733,1.65151 0.28733,7.08847 0,6.10874 -0.0154,6.40223 -0.37553,7.14613 -0.69073,1.42685 -0.39826,1.38415 -9.89521,1.44482 -4.61737,0.0295 -8.82905,0.002 -9.35929,-0.0608 -0.92286,-0.10953 -1.03809,-0.18627 -2.69617,-1.79519 -0.95266,-0.92517 -1.78328,-1.68152 -1.84581,-1.68152 -0.0625,0 -0.0702,0.34161 -0.017,0.75914 0.12117,0.95134 -0.338,1.8604 -1.19545,2.36674 -0.55344,0.32681 -0.9702,0.36089 -4.8919,0.39993 -3.38572,0.0337 -4.43662,-0.0118 -4.99904,-0.21677 z m -66.23764,-6.46185 c -0.17409,-0.17408 -0.14767,-21.53903 0.027,-21.8142 0.1105,-0.17411 0.97538,-0.21582 3.70366,-0.17862 l 3.559503,0.0485 v 10.98523 10.98523 l -3.583733,0.0482 c -1.97105,0.0265 -3.63893,-0.007 -3.7064,-0.0744 z m 8.570253,-0.004 c -0.0655,-0.0655 -0.11909,-0.98002 -0.11909,-2.03228 0,-1.36457 0.0675,-1.96918 0.23525,-2.10843 0.13825,-0.11474 1.26146,-0.21582 2.72398,-0.24515 l 2.48873,-0.0499 v -2.23277 -2.23277 l -2.67932,-0.0893 -2.67933,-0.0893 v -1.78622 -1.78622 l 2.53713,-0.0893 c 1.46121,-0.0514 2.61888,-0.17136 2.72991,-0.28279 0.12239,-0.12283 0.17431,-0.97069 0.1422,-2.32208 l -0.0506,-2.1286 -2.67933,-0.0893 -2.67932,-0.0893 v -2.14346 -2.14346 l 4.281,-0.048 4.28101,-0.048 2.19403,2.18876 2.19403,2.18876 v 2.30861 2.30861 l -0.98242,1.02996 c -0.54033,0.56649 -0.98242,1.09897 -0.98242,1.1833 0,0.0843 0.44209,0.58992 0.98242,1.12354 l 0.98242,0.97022 v 2.33768 2.33769 l -2.11536,2.0893 -2.11536,2.0893 h -4.28525 c -2.35689,0 -4.33884,-0.0536 -4.40433,-0.11908 z m 18.14498,-2.0436 -2.18812,-2.16179 v -6.72687 -6.72687 l 2.19543,-2.19016 2.19544,-2.19016 2.85063,0.0494 2.85063,0.0494 v 2.14346 2.14346 l -1.19031,0.0525 c -0.71153,0.0314 -1.26927,0.14762 -1.38663,0.28902 -0.13653,0.16451 -0.18202,2.16132 -0.14935,6.55654 l 0.047,6.31998 1.33966,0.0893 1.33966,0.0893 v 2.14346 2.14346 l -2.85795,0.0442 -2.85794,0.0442 z m 9.14237,1.92793 c -0.0496,-0.12912 -0.0671,-1.11377 -0.039,-2.18812 l 0.051,-1.95336 1.33966,-0.0893 1.33967,-0.0893 v -6.51969 -6.51969 l -1.33967,-0.0893 -1.33966,-0.0893 v -2.14346 -2.14346 l 2.85795,-0.0407 2.857947,-0.0407 2.18811,2.11966 2.18812,2.11966 v 6.86159 6.86159 l -2.11536,2.0893 -2.11536,2.0893 h -2.891647 c -2.22396,0 -2.91246,-0.0542 -2.98174,-0.23475 z m 13.719837,-10.79514 0.046,-11.02988 3.61709,-0.0484 3.61709,-0.0483 v 11.07824 11.07824 h -3.66311 -3.66311 z m 12.6294,7.72539 -1.59127,-3.3045 h -1.25946 -1.25946 l 0.0503,-2.0988 0.0503,-2.09881 2.67932,-0.0893 2.67933,-0.0893 v -3.3045 -3.3045 l -2.67933,-0.0893 -2.67932,-0.0893 v -2.14346 -2.14346 l 4.19163,-0.048 4.19164,-0.048 2.19409,2.18882 2.19409,2.18883 v 3.40021 3.40022 l -1.6076,1.60015 c -0.88417,0.88008 -1.60759,1.70428 -1.60759,1.83156 0,0.12728 0.84399,1.78549 1.87553,3.68491 1.03154,1.89941 1.87552,3.54521 1.87552,3.65732 0,0.14641 -1.08568,0.20384 -3.85325,0.20384 h -3.85326 z m 4.71856,-3.77541 c 0.98437,-0.98437 0.62663,-1.0627 -2.76294,-0.60499 -3.44746,0.46554 -3.55377,0.48981 -3.55377,0.81137 0,0.22285 0.46056,0.26453 2.9229,0.26453 2.91991,0 2.92338,-5.3e-4 3.39381,-0.47091 z m 9.62527,4.89203 -2.18811,-2.19351 v -6.6798 -6.67981 l 2.18544,-2.21059 2.18543,-2.21058 1.43165,0.0512 1.43166,0.0512 0.0893,8.75246 0.0893,8.75246 2.93447,0.0492 c 1.83658,0.0308 3.02488,0.12427 3.17614,0.2498 0.18253,0.15149 0.22937,0.68572 0.1914,2.18354 l -0.0503,1.98297 -4.64417,0.0475 -4.64416,0.0475 z m 12.78044,2.14323 c -0.0196,-0.0246 -0.0799,-1.77282 -0.13397,-3.88502 l -0.0983,-3.84037 -1.69691,-0.0893 -1.69691,-0.0893 -0.0502,-1.98298 c -0.0388,-1.53159 0.007,-2.03034 0.20049,-2.19107 0.18039,-0.14972 1.59773,-0.19474 5.05166,-0.16049 l 4.80092,0.0476 0.047,6.11779 0.047,6.11779 h -3.21754 c -1.76964,0 -3.23358,-0.0201 -3.2532,-0.0446 z m -18.23557,-6.29326 c -0.32614,-0.68392 -0.25536,-1.08282 0.23909,-1.34744 0.26392,-0.14125 0.3344,-0.099 0.38088,0.22824 0.0827,0.58194 -0.0482,1.74122 -0.19658,1.74122 -0.0697,0 -0.26025,-0.27991 -0.42339,-0.62202 z m -36.547357,-0.69523 c -0.14251,-0.17171 -0.18954,-1.39814 -0.15584,-4.06364 l 0.0483,-3.81771 h 0.8038 0.8038 l 0.0483,3.81771 c 0.052,4.11315 0.0132,4.30958 -0.85207,4.30958 -0.27067,0 -0.58397,-0.11067 -0.69623,-0.24594 z m 24.988777,-7.16686 v -0.8038 h 0.71449 0.71448 v 0.8038 0.8038 h -0.71448 -0.71449 z m 24.82841,-0.52167 c 0,-0.21231 0.18567,-0.28213 0.75021,-0.28213 0.84215,0 0.7466,0.24886 -0.16969,0.44193 -0.46154,0.0973 -0.58052,0.0645 -0.58052,-0.1598 z m 4.07256,-1.84507 -0.0536,-1.02707 -2.67933,-0.0893 -2.67932,-0.0893 v -2.14346 -2.14346 l 4.4834,-0.0477 4.4834,-0.0477 1.90233,2.18545 1.90232,2.18545 v 1.12206 1.12206 h -3.65283 -3.65283 z"
         id="path4635" />
    </g>
  </g>
</svg>
