<?xml version="1.0" encoding="UTF-8" standalone="no"?>
<svg
   xmlns:dc="http://purl.org/dc/elements/1.1/"
   xmlns:cc="http://creativecommons.org/ns#"
   xmlns:rdf="http://www.w3.org/1999/02/22-rdf-syntax-ns#"
   xmlns:svg="http://www.w3.org/2000/svg"
   xmlns="http://www.w3.org/2000/svg"
   viewBox="0 0 233.33493 40.944001"
   height="40.944"
   width="233.33493"
   xml:space="preserve"
   id="svg2"
   version="1.1"><metadata
     id="metadata8"><rdf:RDF><cc:Work
         rdf:about=""><dc:format>image/svg+xml</dc:format><dc:type
           rdf:resource="http://purl.org/dc/dcmitype/StillImage" /><dc:title></dc:title></cc:Work></rdf:RDF></metadata><defs
     id="defs6"><clipPath
       id="clipPath18"
       clipPathUnits="userSpaceOnUse"><path
         id="path16"
         d="M 0,178 H 178 V 0 H 0 Z" /></clipPath></defs><g
     transform="matrix(1.3333333,0,0,-1.3333333,-2.4877333,139.6184)"
     id="g10"><g
       id="g12"><g
         clip-path="url(#clipPath18)"
         id="g14"><g
           transform="translate(116.999,76.2285)"
           id="g20"><path
             id="path22"
             style="fill:#7a7c7d;fill-opacity:1;fill-rule:nonzero;stroke:none"
             d="m 0,0 v 1.158 l -0.388,0.388 h -14.29 l -0.388,0.385 v 10.044 l 0.388,0.384 H -1.16 l 0.386,0.388 v 1.158 l -0.386,0.387 h -13.518 l -0.388,0.385 v 9.658 l 0.388,0.386 h 14.29 L 0,25.106 v 1.16 l -0.388,0.386 h -16.608 l -0.386,-0.386 V 0 l 0.386,-0.388 H -0.388 Z M 32.442,0 V 26.266 L 32.06,26.652 H 29.354 L 28.969,26.266 18.926,2.704 H 18.538 L 8.496,26.266 8.11,26.652 H 5.407 L 5.019,26.266 V 0 L 5.407,-0.388 H 6.951 L 7.338,0 V 22.401 H 7.726 L 17.38,0 17.768,-0.388 h 1.93 L 20.085,0 29.739,22.401 h 0.388 V 0 l 0.388,-0.388 h 1.545 z m 16.997,-0.772 c 5.41,0 9.659,2.703 10.429,8.496 L 59.483,8.111 H 57.938 L 57.552,7.724 C 56.779,3.478 54.074,1.158 49.439,1.158 c -5.792,0 -10.042,4.249 -10.042,11.975 0,7.725 4.25,11.973 10.042,11.973 4.635,0 7.34,-2.317 8.113,-6.178 l 0.386,-0.388 h 1.545 l 0.385,0.388 c -0.77,5.407 -5.019,8.11 -10.429,8.11 -6.565,0 -12.362,-4.637 -12.362,-13.905 0,-9.271 5.797,-13.905 12.362,-13.905" /></g><g
           transform="translate(8.0088,81.2148)"
           id="g24"><path
             id="path26"
             style="fill:#3a84c9;fill-opacity:1;fill-rule:nonzero;stroke:none"
             d="m 0,0 v 16.291 h 4.82 c 4.074,0 7.376,-3.646 7.376,-8.145 C 12.196,3.646 8.894,0 4.82,0 Z m 4.82,-5.374 c 6.289,0 11.577,4.297 13.086,10.117 L 33.204,-7.209 48.49,4.736 V -5.374 H 65.933 V 0 H 54.632 V 21.666 H 48.49 V 11.554 L 33.827,0.1 l -3.28,2.562 7.02,5.484 7.645,5.972 -4.366,3.41 L 26.183,6.07 22.905,8.633 37.567,20.089 33.204,23.499 17.906,11.547 C 16.397,17.367 11.109,21.666 4.82,21.666 H -6.143 v -27.04 z m 63.204,27.04 h 6.14 M 85.467,0 V -5.374 H 68.024 v 27.04 h 6.14 V 0 Z" /></g></g></g></g></svg>