<?xml version="1.0" encoding="UTF-8" standalone="no"?>
<svg
   xmlns:dc="http://purl.org/dc/elements/1.1/"
   xmlns:cc="http://creativecommons.org/ns#"
   xmlns:rdf="http://www.w3.org/1999/02/22-rdf-syntax-ns#"
   xmlns:svg="http://www.w3.org/2000/svg"
   xmlns="http://www.w3.org/2000/svg"
   xmlns:sodipodi="http://sodipodi.sourceforge.net/DTD/sodipodi-0.dtd"
   xmlns:inkscape="http://www.inkscape.org/namespaces/inkscape"
   viewBox="0 0 600.50665 133.45332"
   height="133.45332"
   width="600.50665"
   xml:space="preserve"
   id="svg2"
   version="1.1"
   sodipodi:docname="imperva.svg"
   inkscape:version="0.92.2 2405546, 2018-03-11"><sodipodi:namedview
     pagecolor="#ffffff"
     bordercolor="#666666"
     borderopacity="1"
     objecttolerance="10"
     gridtolerance="10"
     guidetolerance="10"
     inkscape:pageopacity="0"
     inkscape:pageshadow="2"
     inkscape:window-width="901"
     inkscape:window-height="480"
     id="namedview16"
     showgrid="false"
     inkscape:zoom="0.5478707"
     inkscape:cx="300.25333"
     inkscape:cy="66.726662"
     inkscape:window-x="0"
     inkscape:window-y="30"
     inkscape:window-maximized="0"
     inkscape:current-layer="svg2" /><metadata
     id="metadata8"><rdf:RDF><cc:Work
         rdf:about=""><dc:format>image/svg+xml</dc:format><dc:type
           rdf:resource="http://purl.org/dc/dcmitype/StillImage" /><dc:title /></cc:Work></rdf:RDF></metadata><defs
     id="defs6" /><g
     transform="matrix(1.3333333,0,0,-1.3333333,0,133.45333)"
     id="g10"
     style="fill:#2f1a45;fill-opacity:1"><g
       style="fill:#2f1a45;fill-opacity:1"
       transform="scale(0.1)"
       id="g12"><path
         id="path14"
         style="fill:#2f1a45;fill-opacity:1;fill-rule:nonzero;stroke:none"
         d="M 410.02,250.191 H 250.16 V 750.555 H 410.02 V 250.191" /><path
         id="path16"
         style="fill:#2f1a45;fill-opacity:1;fill-rule:nonzero;stroke:none"
         d="m 1666.22,511.855 h -106.26 v 134.606 l 0.35,-0.117 h 105.91 c 54.17,0 68.73,-38.571 68.73,-66.75 0,-42.426 -29.11,-67.739 -68.73,-67.739 z m 37.9,238.7 H 1391.98 V 250.191 h 167.98 v 152.368 h 155.06 c 114.55,0 189.16,67.218 189.16,182.125 0,118.007 -70.69,165.871 -200.06,165.871" /><path
         id="path18"
         style="fill:#2f1a45;fill-opacity:1;fill-rule:nonzero;stroke:none"
         d="m 2146.74,359.488 v 0.18 l -0.12,-0.18 v 90.18 h 290.13 v 99.184 h -290.13 v 93.578 l 0.12,-0.063 v 0.063 h 290.01 V 750.555 H 1980.13 V 250.191 h 456.62 v 109.297 h -290.01" /><path
         id="path20"
         style="fill:#2f1a45;fill-opacity:1;fill-rule:nonzero;stroke:none"
         d="M 3723.4,750.555 H 3564.32 L 3395.3,391.402 3238.63,750.555 h -172.12 l 230.3,-500.364 h 182.38 l 244.21,500.364" /><path
         id="path22"
         style="fill:#2f1a45;fill-opacity:1;fill-rule:nonzero;stroke:none"
         d="m 3825.65,750.555 h 194.36 l 233.23,-500.364 h -178.96 l -37,91.934 h -219.42 l 54.17,109.184 h 122.15 L 3922.9,619.867 3740.52,250.191 h -151.93 l 237.06,500.364" /><path
         id="path24"
         style="fill:#2f1a45;fill-opacity:1;fill-rule:nonzero;stroke:none"
         d="m 2708.88,519.457 v 127.004 l 0.4,-0.117 h 105.85 c 54.18,0 68.76,-35.242 68.76,-63.473 0,-42.316 -29.14,-63.414 -68.76,-63.414 z m 203.74,-269.266 h 178.99 l -114.79,199.715 c 48.19,23.559 76.3,64.231 76.3,134.778 0,118.007 -70.75,165.871 -200.12,165.871 H 2540.95 V 250.191 h 167.93 v 167.45 h 113.35 l 90.39,-167.45" /><path
         id="path26"
         style="fill:#2f1a45;fill-opacity:1;fill-rule:nonzero;stroke:none"
         d="M 884.98,466.004 760.715,750.555 H 516.879 V 250.191 h 152.285 v 322.852 l 132.152,-286.82 83.664,179.781" /><path
         id="path28"
         style="fill:#2f1a45;fill-opacity:1;fill-rule:nonzero;stroke:none"
         d="m 1051.19,750.555 v 0 l -235.124,-499.61 0.344,-0.754 H 966.066 L 1133.05,592.422 V 250.191 h 152.29 v 500.364 h -234.15" /><path
         id="path30"
         style="fill:#2f1a45;fill-opacity:1;fill-rule:nonzero;stroke:none"
         d="m 4174.77,713.91 h 6.29 c 8.89,0 13.33,3.395 13.33,10.188 0,3.461 -1.08,5.902 -3.25,7.312 -2.16,1.414 -5.57,2.121 -10.22,2.121 h -6.15 z m 28.85,10.461 c 0,-3.555 -1.09,-6.769 -3.25,-9.641 -2.16,-2.871 -5.18,-5.101 -9.06,-6.699 l 15.52,-26.316 h -10.18 l -14.16,24.062 h -7.72 v -24.062 h -8.68 v 60.156 h 15.65 c 7.43,0 12.93,-1.433 16.51,-4.308 3.58,-2.872 5.37,-7.27 5.37,-13.192 z m -64.94,-12.578 c 0,-7.887 1.98,-15.254 5.94,-22.113 3.97,-6.864 9.38,-12.262 16.23,-16.203 6.87,-3.942 14.21,-5.914 22.05,-5.914 7.93,0 15.3,1.984 22.09,5.949 6.78,3.965 12.17,9.332 16.16,16.097 3.99,6.77 5.98,14.161 5.98,22.184 0,7.93 -1.98,15.289 -5.94,22.082 -3.97,6.789 -9.34,12.176 -16.11,16.164 -6.76,3.988 -14.16,5.981 -22.18,5.981 -7.92,0 -15.29,-1.981 -22.08,-5.946 -6.78,-3.965 -12.17,-9.332 -16.17,-16.097 -3.98,-6.77 -5.97,-14.161 -5.97,-22.184 z m -7.18,0 c 0,9.117 2.27,17.66 6.83,25.637 4.57,7.972 10.82,14.261 18.8,18.867 7.98,4.601 16.57,6.902 25.77,6.902 8.98,0 17.42,-2.211 25.3,-6.633 7.88,-4.418 14.19,-10.617 18.93,-18.589 4.74,-7.977 7.11,-16.707 7.11,-26.184 0,-9.297 -2.29,-17.875 -6.87,-25.738 -4.58,-7.86 -10.8,-14.09 -18.66,-18.696 -7.87,-4.605 -16.46,-6.902 -25.81,-6.902 -9.43,0 -18.13,2.356 -26.11,7.074 -7.98,4.715 -14.19,11.016 -18.63,18.903 -4.44,7.882 -6.66,16.336 -6.66,25.359" /></g></g></svg>