<?xml version="1.0" encoding="UTF-8" standalone="no"?>
<svg
   xmlns:dc="http://purl.org/dc/elements/1.1/"
   xmlns:cc="http://creativecommons.org/ns#"
   xmlns:rdf="http://www.w3.org/1999/02/22-rdf-syntax-ns#"
   xmlns:svg="http://www.w3.org/2000/svg"
   xmlns="http://www.w3.org/2000/svg"
   viewBox="0 0 787.65917 188.97613"
   height="188.97614"
   width="787.65918"
   xml:space="preserve"
   id="svg2"
   version="1.1"><metadata
     id="metadata8"><rdf:RDF><cc:Work
         rdf:about=""><dc:format>image/svg+xml</dc:format><dc:type
           rdf:resource="http://purl.org/dc/dcmitype/StillImage" /><dc:title></dc:title></cc:Work></rdf:RDF></metadata><defs
     id="defs6"><clipPath
       id="clipPath22"
       clipPathUnits="userSpaceOnUse"><path
         id="path20"
         d="M 0,1190.551 H 841.89 V 0 H 0 Z" /></clipPath><clipPath
       id="clipPath108"
       clipPathUnits="userSpaceOnUse"><path
         id="path106"
         d="m 192.115,1046 c -1.777,-6.01 -2.734,-12.372 -2.734,-18.958 v 0 c 0,-31.335 21.582,-57.626 50.69,-64.83 v 0 c 29.11,7.204 50.692,33.495 50.692,64.83 v 0 c 0,6.586 -0.958,12.948 -2.734,18.958 v 0 c -12.139,12.524 -29.138,20.31 -47.958,20.31 v 0 c -18.819,0 -35.817,-7.786 -47.956,-20.31 m 35.733,-8.367 c 0,1.844 1.495,3.339 3.339,3.339 v 0 h 6.549 4.668 6.55 c 1.844,0 3.34,-1.495 3.34,-3.339 v 0 -14.947 l 5.976,6.386 c 0.631,0.675 1.514,1.057 2.438,1.057 v 0 h 7.89 c 1.343,0 2.556,-0.804 3.077,-2.043 v 0 c 0.522,-1.238 0.25,-2.668 -0.689,-3.63 v 0 l -9.345,-9.567 10.079,-14.536 c 0.707,-1.022 0.79,-2.351 0.214,-3.452 v 0 c -0.577,-1.101 -1.716,-1.791 -2.959,-1.791 v 0 h -7.517 c -1.092,0 -2.114,0.535 -2.739,1.43 v 0 l -6.206,8.9 -0.219,-0.227 v -6.764 c 0,-1.843 -1.496,-3.339 -3.34,-3.339 v 0 h -6.55 -4.668 -6.549 c -1.844,0 -3.339,1.496 -3.339,3.339 v 0 6.764 l -0.22,0.227 -6.207,-8.9 c -0.625,-0.895 -1.647,-1.43 -2.739,-1.43 v 0 h -7.513 c -1.243,0 -2.383,0.69 -2.959,1.791 v 0 c -0.576,1.1 -0.495,2.43 0.214,3.451 v 0 l 10.075,14.537 -9.345,9.567 c -0.939,0.962 -1.211,2.392 -0.69,3.63 v 0 c 0.521,1.239 1.735,2.043 3.078,2.043 v 0 h 7.892 c 0.924,0 1.806,-0.382 2.437,-1.057 v 0 l 5.977,-6.386 z" /></clipPath><clipPath
       id="clipPath240"
       clipPathUnits="userSpaceOnUse"><path
         id="path238"
         d="M 0,1190.551 H 841.89 V 0 H 0 Z" /></clipPath></defs><g
     transform="matrix(1.3333333,0,0,-1.3333333,-225.60773,1452.1844)"
     id="g10"><path
       id="path12"
       style="fill:#060000;fill-opacity:1;fill-rule:nonzero;stroke:none"
       d="m 389.393,1072.243 h 11.569 v -69.235 h -11.569 z" /><path
       id="path14"
       style="fill:#060000;fill-opacity:1;fill-rule:nonzero;stroke:none"
       d="m 412.803,1053.086 h 11.572 v -50.079 h -11.572 z m -0.474,18.588 h 12.423 v -10.908 h -12.423 z" /><g
       id="g16"><g
         clip-path="url(#clipPath22)"
         id="g18"><g
           transform="translate(459.3877,1001.8666)"
           id="g24"><path
             id="path26"
             style="fill:#060000;fill-opacity:1;fill-rule:nonzero;stroke:none"
             d="m 0,0 c -3.73,0 -7.181,0.68 -10.343,2.043 -3.16,1.354 -5.905,3.208 -8.234,5.546 -2.325,2.336 -4.144,5.088 -5.45,8.252 -1.306,3.157 -1.958,6.512 -1.958,10.051 v 0.195 c 0,3.539 0.652,6.904 1.958,10.096 1.306,3.196 3.125,5.977 5.45,8.346 2.329,2.374 5.089,4.251 8.284,5.643 3.193,1.392 6.655,2.089 10.387,2.089 4.744,0 8.68,-0.791 11.808,-2.37 3.133,-1.582 5.867,-3.668 8.204,-6.264 L 12.993,35.95 C 11.224,37.779 9.343,39.282 7.352,40.451 5.36,41.621 2.91,42.204 0,42.204 c -2.086,0 -4.016,-0.424 -5.785,-1.278 -1.77,-0.853 -3.286,-1.992 -4.553,-3.413 -1.265,-1.423 -2.261,-3.118 -2.987,-5.077 -0.729,-1.962 -1.09,-4.017 -1.09,-6.163 v -0.186 c 0,-2.217 0.361,-4.305 1.09,-6.262 0.726,-1.962 1.753,-3.668 3.082,-5.126 1.327,-1.452 2.909,-2.61 4.742,-3.463 1.833,-0.847 3.855,-1.278 6.072,-1.278 2.715,0 5.103,0.588 7.157,1.755 2.054,1.17 4.002,2.67 5.835,4.508 L 20.484,9.394 C 18.021,6.61 15.206,4.349 12.044,2.608 8.88,0.875 4.868,0 0,0" /></g><g
           transform="translate(527.9746,1003.0078)"
           id="g28"><path
             id="path30"
             style="fill:#060000;fill-opacity:1;fill-rule:nonzero;stroke:none"
             d="M 0,0 H -11.573 V 14.319 L -18.59,21.62 -33.672,0 h -13.277 l 20.581,29.687 -19.918,20.392 h 13.947 L -11.573,27.881 V 69.235 H 0 Z" /></g><g
           transform="translate(536.2246,1072.243)"
           id="g32"><path
             id="path34"
             style="fill:#060000;fill-opacity:1;fill-rule:nonzero;stroke:none"
             d="M 0,0 H 11.569 V -41.354 L 32.34,-19.157 H 46.282 L 26.363,-39.548 46.944,-69.235 H 33.661 l -15.074,21.619 -7.018,-7.3 V -69.235 H 0 Z" /></g><path
           id="path36"
           style="fill:#060000;fill-opacity:1;fill-rule:nonzero;stroke:none"
           d="m 592.087,1072.243 h 11.563 v -69.235 h -11.563 z" /><g
           transform="translate(645.6035,1023.9687)"
           id="g38"><path
             id="path40"
             style="fill:#060000;fill-opacity:1;fill-rule:nonzero;stroke:none"
             d="m 0,0 c -1.46,0.565 -3.186,1.044 -5.171,1.419 -1.989,0.381 -4.096,0.566 -6.305,0.566 -3.61,0 -6.42,-0.691 -8.445,-2.083 -2.022,-1.391 -3.037,-3.288 -3.037,-5.691 v -0.19 c 0,-2.403 0.937,-4.235 2.804,-5.501 1.863,-1.267 4.155,-1.898 6.876,-1.898 1.894,0 3.656,0.257 5.267,0.761 1.615,0.506 3.015,1.213 4.213,2.137 1.201,0.914 2.133,2.023 2.803,3.322 C -0.332,-5.87 0,-4.429 0,-2.848 Z m -0.286,-20.961 v 6.165 c -1.707,-2.028 -3.891,-3.734 -6.54,-5.122 -2.658,-1.391 -5.88,-2.086 -9.676,-2.086 -2.406,0 -4.686,0.331 -6.834,0.994 -2.147,0.663 -4.028,1.642 -5.64,2.941 -1.616,1.294 -2.907,2.902 -3.888,4.839 -0.988,1.924 -1.472,4.152 -1.472,6.686 v 0.19 c 0,2.777 0.503,5.196 1.52,7.252 1.007,2.055 2.415,3.767 4.218,5.126 1.803,1.359 3.956,2.369 6.445,3.034 2.501,0.662 5.203,0.994 8.11,0.994 3.042,0 5.617,-0.19 7.736,-0.571 2.115,-0.375 4.152,-0.881 6.114,-1.517 v 0.951 c 0,3.476 -1.061,6.13 -3.178,7.966 -2.12,1.829 -5.165,2.749 -9.147,2.749 -2.854,0 -5.378,-0.285 -7.593,-0.85 -2.208,-0.573 -4.455,-1.329 -6.734,-2.281 l -3.128,9.201 c 2.781,1.262 5.626,2.276 8.532,3.036 2.912,0.757 6.42,1.135 10.532,1.135 7.462,0 12.991,-1.846 16.597,-5.545 3.601,-3.7 5.406,-8.902 5.406,-15.6 v -29.687 z" /></g><g
           transform="translate(689.7275,1001.8666)"
           id="g42"><path
             id="path44"
             style="fill:#060000;fill-opacity:1;fill-rule:nonzero;stroke:none"
             d="m 0,0 c -3.731,0 -7.178,0.68 -10.339,2.043 -3.17,1.354 -5.912,3.208 -8.241,5.546 -2.325,2.336 -4.145,5.088 -5.447,8.252 -1.308,3.157 -1.961,6.512 -1.961,10.051 v 0.195 c 0,3.539 0.653,6.904 1.961,10.096 1.302,3.196 3.122,5.977 5.447,8.346 2.329,2.374 5.094,4.251 8.284,5.643 3.197,1.392 6.66,2.089 10.391,2.089 4.74,0 8.678,-0.791 11.804,-2.37 3.131,-1.582 5.867,-3.668 8.201,-6.264 L 12.989,35.95 c -1.766,1.829 -3.65,3.332 -5.642,4.501 -1.993,1.17 -4.442,1.753 -7.347,1.753 -2.094,0 -4.015,-0.424 -5.787,-1.278 -1.769,-0.853 -3.285,-1.992 -4.552,-3.413 -1.266,-1.423 -2.263,-3.118 -2.99,-5.077 -0.73,-1.962 -1.085,-4.017 -1.085,-6.163 v -0.186 c 0,-2.217 0.355,-4.305 1.085,-6.262 0.727,-1.962 1.761,-3.668 3.085,-5.126 1.329,-1.452 2.908,-2.61 4.74,-3.463 1.834,-0.847 3.857,-1.278 6.069,-1.278 2.718,0 5.108,0.588 7.165,1.755 2.055,1.17 3.999,2.67 5.833,4.508 L 20.486,9.394 C 18.018,6.61 15.201,4.349 12.044,2.608 8.885,0.875 4.87,0 0,0" /></g><g
           transform="translate(334.7534,1072.2567)"
           id="g46"><path
             id="path48"
             style="fill:#060000;fill-opacity:1;fill-rule:nonzero;stroke:none"
             d="m 0,0 h 11.572 v -41.351 l 20.77,22.194 H 46.286 L 26.367,-39.546 46.949,-69.232 H 33.671 L 18.59,-47.608 11.572,-54.913 V -69.232 H 0 Z" /></g><g
           transform="translate(759.9502,1003.0244)"
           id="g50"><path
             id="path52"
             style="fill:#060000;fill-opacity:1;fill-rule:nonzero;stroke:none"
             d="M 0,0 H -11.575 V 14.319 L -18.594,21.624 -33.673,0 h -13.281 l 20.58,29.686 -19.916,20.39 h 13.945 l 20.77,-22.194 v 41.35 H 0 Z" /></g><path
           id="path54"
           style="fill:#231916;fill-opacity:1;fill-rule:nonzero;stroke:none"
           d="m 352.519,973.834 h -9.116 v -7.683 h 9.116 z m -9.116,-10.628 v -4.937 h -3.663 c 0.239,2.601 0.359,5.149 0.359,7.644 v 5.493 c 0,2.017 -0.094,3.967 -0.279,5.852 1.725,-0.186 4.504,-0.279 8.34,-0.279 3.835,0 6.429,0.093 7.783,0.279 -0.187,-2.176 -0.279,-4.127 -0.279,-5.852 v -5.493 c 0,-1.965 0.119,-3.822 0.358,-5.573 h -3.503 v 2.866 z m 17.356,18.312 h -15.803 c -4.539,0 -7.538,-0.107 -8.998,-0.319 v 3.742 c 1.327,-0.292 4.326,-0.438 8.998,-0.438 h 15.963 c 3.954,0 6.926,0.146 8.917,0.438 v -3.782 c -1.54,0.186 -3.424,0.292 -5.653,0.319 V 956.04 c 0,-1.247 -0.199,-2.189 -0.598,-2.826 -0.398,-0.637 -1.208,-1.088 -2.428,-1.354 -1.22,-0.264 -3.105,-0.358 -5.652,-0.279 -0.107,1.62 -0.717,3.013 -1.832,4.181 2.123,-0.346 3.629,-0.518 4.518,-0.518 0.889,0 1.539,0.113 1.951,0.338 0.411,0.226 0.617,0.803 0.617,1.732 z" /><g
           transform="translate(396.2686,982.3535)"
           id="g56"><path
             id="path58"
             style="fill:#231916;fill-opacity:1;fill-rule:nonzero;stroke:none"
             d="m 0,0 -3.941,-1.393 c -0.664,2.176 -1.433,4.1 -2.309,5.772 l 3.98,1.353 C -1.686,3.715 -0.93,1.805 0,0 m -6.011,-21.417 -3.981,-1.035 c -0.69,4.405 -1.831,8.838 -3.424,13.296 l 3.424,1.075 c 1.538,-4.804 2.866,-9.249 3.981,-13.336 m 17.754,15.446 c -2.044,0.292 -7.053,0.438 -15.028,0.438 -7.975,0 -12.984,-0.146 -15.027,-0.438 v 3.822 c 2.707,-0.266 7.729,-0.398 15.067,-0.398 7.338,0 12.334,0.132 14.988,0.398 z M -2.309,-24.88 c 2.627,6.449 4.286,12.393 4.976,17.834 1.831,-0.876 3.397,-1.433 4.698,-1.672 0.264,-0.079 0.397,-0.166 0.397,-0.259 0,-0.093 -0.119,-0.206 -0.358,-0.338 -1.035,-0.477 -3.039,-5.653 -6.011,-15.525 5.016,0.052 9.063,0.185 12.141,0.398 v -3.901 c -1.99,0.292 -7.722,0.437 -17.197,0.437 -9.474,0 -15.193,-0.145 -17.157,-0.437 v 3.901 c 3.449,-0.292 7.51,-0.438 12.181,-0.438 z" /></g><path
           id="path60"
           style="fill:#231916;fill-opacity:1;fill-rule:nonzero;stroke:none"
           d="m 432.136,973.834 h -9.116 v -7.683 h 9.116 z m -9.116,-10.628 v -4.937 h -3.663 c 0.239,2.601 0.359,5.149 0.359,7.644 v 5.493 c 0,2.017 -0.094,3.967 -0.279,5.852 1.725,-0.186 4.504,-0.279 8.339,-0.279 3.835,0 6.43,0.093 7.784,0.279 -0.187,-2.176 -0.28,-4.127 -0.28,-5.852 v -5.493 c 0,-1.965 0.12,-3.822 0.359,-5.573 h -3.503 v 2.866 z m 17.356,18.312 h -15.804 c -4.538,0 -7.537,-0.107 -8.997,-0.319 v 3.742 c 1.327,-0.292 4.326,-0.438 8.997,-0.438 h 15.963 c 3.954,0 6.927,0.146 8.917,0.438 v -3.782 c -1.539,0.186 -3.423,0.292 -5.652,0.319 V 956.04 c 0,-1.247 -0.199,-2.189 -0.598,-2.826 -0.397,-0.637 -1.208,-1.088 -2.428,-1.354 -1.22,-0.264 -3.105,-0.358 -5.653,-0.279 -0.105,1.62 -0.717,3.013 -1.831,4.181 2.123,-0.346 3.629,-0.518 4.519,-0.518 0.888,0 1.538,0.113 1.95,0.338 0.411,0.226 0.617,0.803 0.617,1.732 z" /><g
           transform="translate(488.7832,954.249)"
           id="g62"><path
             id="path64"
             style="fill:#231916;fill-opacity:1;fill-rule:nonzero;stroke:none"
             d="m 0,0 -1.911,-2.866 c -3.105,1.885 -7.033,3.304 -11.783,4.259 l 1.512,2.27 C -7.723,2.68 -3.662,1.459 0,0 m -11.783,24.363 c -1.46,-2.814 -4.167,-4.778 -8.121,-5.892 h 15.127 c -2.681,1.247 -5.016,3.211 -7.006,5.892 M -7.285,8.081 H -25.796 V 6.21 h 18.511 z m 0,3.941 h -18.511 v -1.871 h 18.511 z m 0,4.061 h -18.511 v -1.911 h 18.511 z m -6.051,11.385 h -3.543 c -0.77,-1.089 -1.593,-2.164 -2.468,-3.225 -0.797,0.637 -1.739,1.088 -2.827,1.354 2.601,2.07 4.34,4.79 5.216,8.16 0.796,-0.451 1.764,-0.849 2.905,-1.194 0.372,-0.106 0.558,-0.232 0.558,-0.378 0,-0.146 -0.133,-0.299 -0.399,-0.458 -0.265,-0.159 -0.73,-0.756 -1.393,-1.791 h 7.246 c 3.344,0 5.864,0.106 7.563,0.318 l -2.508,-6.29 -3.105,0.558 1.394,2.946 h -5.733 c -0.106,-0.319 -0.199,-0.558 -0.279,-0.717 2.653,-3.848 6.768,-5.958 12.341,-6.329 -0.982,-0.956 -1.698,-2.124 -2.15,-3.504 -1.486,0.425 -2.694,0.85 -3.623,1.274 C -4.22,16.759 -4.26,15.817 -4.26,15.366 V 6.887 c 0,-1.54 0.079,-2.655 0.239,-3.344 -1.884,0.105 -6.05,0.159 -12.5,0.159 -6.449,0 -10.628,-0.054 -12.54,-0.159 0.24,1.008 0.359,2.123 0.359,3.344 v 8.479 c 0,1.645 -0.119,2.747 -0.359,3.304 1.487,-0.08 3.477,-0.146 5.972,-0.199 -0.213,0.53 -0.637,1.075 -1.274,1.632 6.29,0.902 9.966,3.357 11.027,7.365 M -23.407,29.1 -25.04,26.393 c -2.176,1.406 -4.538,2.561 -7.086,3.463 l 1.513,2.468 c 3.025,-1.194 5.427,-2.269 7.206,-3.224 m 2.07,-25.477 c 0.69,-0.664 1.538,-1.222 2.547,-1.672 0.292,-0.134 0.438,-0.273 0.438,-0.418 0,-0.147 -0.172,-0.233 -0.517,-0.259 -0.346,-0.027 -1.487,-0.424 -3.424,-1.194 -2.973,-1.195 -6.117,-2.11 -9.435,-2.747 -0.424,1.088 -1.061,1.951 -1.91,2.587 2.309,0.346 4.637,0.87 6.986,1.573 2.349,0.703 4.121,1.413 5.315,2.13 m -1.234,19.068 c -3.079,-1.248 -6.476,-2.8 -10.192,-4.658 -0.372,0.929 -0.902,1.897 -1.591,2.906 1.247,0.239 3.031,0.81 5.353,1.712 2.322,0.902 4.253,1.844 5.792,2.827 0.053,-1.169 0.266,-2.098 0.638,-2.787" /></g><g
           transform="translate(517.7637,968.2612)"
           id="g66"><path
             id="path68"
             style="fill:#231916;fill-opacity:1;fill-rule:nonzero;stroke:none"
             d="m 0,0 h -10.071 l -2.151,-4.06 c 1.992,-0.558 4.778,-1.513 8.361,-2.866 C -2.164,-5.229 -0.876,-2.919 0,0 m -6.568,14.053 c -0.478,1.937 -1.116,3.622 -1.911,5.055 1.433,0.266 2.613,0.583 3.542,0.955 0.664,-1.91 1.181,-3.914 1.553,-6.01 5.971,0 10.39,0.132 13.256,0.398 V 7.166 H 6.488 v 4.299 h -24.124 v -4.22 h -3.303 v 7.206 c 2.362,-0.266 7.152,-0.398 14.371,-0.398 M -13.177,0 c -4.485,-0.08 -7.656,-0.212 -9.513,-0.398 v 3.225 c 1.564,-0.266 5.147,-0.398 10.747,-0.398 1.327,2.733 2.229,5.175 2.708,7.324 1.379,-0.743 2.548,-1.26 3.503,-1.552 0.318,-0.107 0.477,-0.253 0.477,-0.438 0,-0.186 -0.093,-0.372 -0.278,-0.557 C -6.038,6.701 -7.086,5.109 -8.679,2.429 h 8.877 c 6.211,0 9.966,0.132 11.267,0.398 V -0.398 C 9.872,-0.133 7.231,0 3.543,0 c -1.089,-3.317 -2.522,-6.024 -4.3,-8.121 3.689,-1.46 7.418,-3.224 11.187,-5.294 -1.009,-0.663 -1.938,-1.752 -2.786,-3.265 -2.92,2.309 -6.57,4.392 -10.949,6.25 -3.741,-2.839 -9.354,-4.922 -16.839,-6.25 -0.53,1.274 -1.193,2.495 -1.99,3.663 6.396,0.345 11.558,1.672 15.486,3.981 -4.14,1.751 -7.538,2.906 -10.191,3.463 1.194,1.459 2.414,3.317 3.662,5.573" /></g><g
           transform="translate(298.2588,1058.7313)"
           id="g70"><path
             id="path72"
             style="fill:#231916;fill-opacity:1;fill-rule:nonzero;stroke:none"
             d="m 0,0 c 8.295,-11.905 12.679,-25.895 12.679,-40.459 0,-0.758 -0.012,-1.519 -0.037,-2.282 -0.018,0.076 -0.04,0.149 -0.059,0.224 -0.17,0.679 -0.347,1.354 -0.536,2.025 -0.006,0.023 -0.013,0.047 -0.019,0.07 -0.194,0.684 -0.4,1.363 -0.612,2.039 -0.041,0.129 -0.081,0.259 -0.122,0.387 -0.211,0.656 -0.43,1.309 -0.659,1.958 -0.04,0.115 -0.082,0.229 -0.123,0.344 -0.23,0.639 -0.466,1.276 -0.713,1.908 -0.016,0.041 -0.031,0.082 -0.047,0.123 -0.257,0.655 -0.526,1.304 -0.802,1.95 -0.054,0.125 -0.107,0.251 -0.161,0.377 -0.274,0.63 -0.556,1.258 -0.848,1.88 -0.049,0.105 -0.099,0.209 -0.149,0.313 -0.287,0.605 -0.581,1.206 -0.884,1.803 -0.027,0.053 -0.053,0.106 -0.08,0.159 -0.319,0.622 -0.649,1.239 -0.985,1.852 -0.067,0.121 -0.134,0.243 -0.201,0.364 -0.336,0.603 -0.679,1.201 -1.032,1.795 -0.056,0.093 -0.113,0.185 -0.169,0.278 -0.342,0.57 -0.692,1.136 -1.051,1.697 -0.039,0.061 -0.077,0.124 -0.117,0.185 -0.378,0.588 -0.768,1.169 -1.163,1.746 -0.08,0.117 -0.159,0.232 -0.24,0.348 -0.396,0.571 -0.799,1.137 -1.212,1.698 -0.06,0.081 -0.122,0.161 -0.182,0.242 -0.398,0.536 -0.803,1.066 -1.217,1.591 -0.052,0.067 -0.103,0.134 -0.156,0.2 -0.436,0.551 -0.884,1.096 -1.338,1.636 -0.09,0.108 -0.18,0.215 -0.271,0.321 -0.457,0.538 -0.92,1.071 -1.394,1.597 -0.06,0.067 -0.122,0.132 -0.182,0.199 -0.455,0.501 -0.918,0.998 -1.388,1.489 -0.045,0.047 -0.088,0.095 -0.132,0.142 -0.019,0.061 -0.04,0.121 -0.059,0.183 -0.196,0.649 -0.401,1.294 -0.616,1.937 -0.027,0.08 -0.052,0.16 -0.079,0.241 -0.227,0.67 -0.465,1.336 -0.711,1.999 -0.048,0.129 -0.097,0.257 -0.145,0.386 -0.25,0.661 -0.508,1.32 -0.778,1.974 -0.032,0.079 -0.066,0.156 -0.098,0.234 -0.262,0.629 -0.533,1.253 -0.812,1.874 -0.036,0.08 -0.07,0.16 -0.106,0.24 -0.293,0.645 -0.597,1.284 -0.909,1.92 -0.059,0.122 -0.119,0.243 -0.179,0.363 -0.316,0.637 -0.639,1.27 -0.974,1.897 -0.036,0.067 -0.073,0.134 -0.109,0.2 -0.324,0.603 -0.657,1.201 -0.998,1.795 -0.045,0.079 -0.09,0.16 -0.136,0.239 -0.355,0.613 -0.72,1.22 -1.092,1.822 -0.071,0.115 -0.141,0.228 -0.212,0.342 -0.379,0.604 -0.764,1.204 -1.159,1.798 -0.039,0.058 -0.079,0.114 -0.117,0.172 -0.382,0.57 -0.773,1.134 -1.171,1.693 -0.057,0.08 -0.112,0.159 -0.168,0.239 -0.413,0.574 -0.834,1.141 -1.263,1.704 -0.082,0.107 -0.164,0.215 -0.247,0.321 -0.435,0.565 -0.877,1.125 -1.328,1.678 -0.043,0.051 -0.086,0.102 -0.129,0.154 -0.433,0.527 -0.875,1.048 -1.324,1.563 -0.069,0.081 -0.138,0.162 -0.208,0.242 -0.464,0.528 -0.936,1.049 -1.414,1.563 -0.096,0.103 -0.192,0.206 -0.289,0.308 -0.486,0.518 -0.979,1.031 -1.48,1.534 -0.047,0.047 -0.095,0.093 -0.142,0.14 -0.478,0.478 -0.965,0.947 -1.456,1.412 -0.057,0.054 -0.112,0.11 -0.169,0.164 C -15.45,17.253 -6.665,9.566 0,0" /></g><g
           transform="translate(265.6006,1084.3973)"
           id="g74"><path
             id="path76"
             style="fill:#231916;fill-opacity:1;fill-rule:nonzero;stroke:none"
             d="m 0,0 c 0.04,-0.03 0.078,-0.061 0.117,-0.09 0.601,-0.459 1.194,-0.928 1.779,-1.406 0.048,-0.039 0.097,-0.078 0.146,-0.117 0.584,-0.481 1.159,-0.972 1.728,-1.471 0.091,-0.08 0.182,-0.158 0.272,-0.238 0.548,-0.485 1.086,-0.979 1.618,-1.48 0.101,-0.095 0.202,-0.191 0.302,-0.287 0.526,-0.502 1.046,-1.012 1.556,-1.53 0.09,-0.091 0.179,-0.183 0.269,-0.276 0.521,-0.534 1.035,-1.074 1.539,-1.624 0.054,-0.06 0.107,-0.12 0.161,-0.179 0.5,-0.549 0.991,-1.105 1.472,-1.669 0.042,-0.049 0.085,-0.097 0.127,-0.146 0.486,-0.572 0.961,-1.154 1.429,-1.741 0.078,-0.098 0.156,-0.194 0.234,-0.292 0.449,-0.57 0.888,-1.146 1.32,-1.729 0.085,-0.115 0.17,-0.229 0.254,-0.345 0.427,-0.583 0.845,-1.172 1.254,-1.768 0.075,-0.109 0.148,-0.218 0.222,-0.327 0.416,-0.614 0.825,-1.232 1.222,-1.858 0.046,-0.073 0.09,-0.146 0.136,-0.219 0.396,-0.63 0.783,-1.265 1.16,-1.907 0.027,-0.047 0.056,-0.093 0.083,-0.14 0.381,-0.653 0.75,-1.314 1.11,-1.979 0.055,-0.103 0.113,-0.205 0.168,-0.308 0.344,-0.645 0.678,-1.295 1.003,-1.95 0.06,-0.12 0.12,-0.241 0.179,-0.362 0.32,-0.655 0.631,-1.314 0.931,-1.979 0.05,-0.112 0.1,-0.226 0.15,-0.338 0.305,-0.684 0.6,-1.371 0.882,-2.064 0.03,-0.072 0.057,-0.144 0.086,-0.217 0.288,-0.712 0.565,-1.429 0.829,-2.151 0.007,-0.02 0.015,-0.04 0.022,-0.06 -13.484,12.388 -30.824,19.161 -49.289,19.161 -18.464,0 -35.805,-6.773 -49.289,-19.161 0.008,0.021 0.016,0.043 0.024,0.064 0.263,0.72 0.54,1.434 0.826,2.144 0.03,0.074 0.058,0.147 0.088,0.221 0.281,0.692 0.577,1.379 0.88,2.062 0.051,0.113 0.101,0.226 0.152,0.339 0.3,0.665 0.611,1.325 0.931,1.98 0.059,0.12 0.118,0.24 0.177,0.359 0.326,0.657 0.661,1.309 1.007,1.955 0.053,0.1 0.108,0.198 0.161,0.297 0.363,0.67 0.734,1.335 1.117,1.993 0.023,0.039 0.047,0.078 0.071,0.117 0.382,0.654 0.776,1.299 1.179,1.94 0.041,0.066 0.081,0.131 0.122,0.196 0.402,0.633 0.815,1.259 1.236,1.879 0.069,0.101 0.137,0.202 0.206,0.304 0.413,0.603 0.837,1.199 1.269,1.79 0.079,0.107 0.157,0.212 0.236,0.319 0.437,0.591 0.883,1.176 1.339,1.753 0.069,0.088 0.14,0.175 0.21,0.263 0.475,0.597 0.958,1.187 1.452,1.768 0.032,0.038 0.065,0.075 0.097,0.112 0.494,0.579 0.998,1.15 1.511,1.713 0.046,0.051 0.09,0.102 0.137,0.153 0.51,0.556 1.03,1.104 1.558,1.644 0.083,0.086 0.165,0.171 0.249,0.256 0.516,0.523 1.04,1.038 1.571,1.545 0.096,0.091 0.192,0.182 0.287,0.272 0.536,0.505 1.079,1.002 1.63,1.491 0.086,0.076 0.174,0.152 0.261,0.229 0.572,0.501 1.149,0.995 1.737,1.478 0.046,0.037 0.093,0.073 0.139,0.111 0.586,0.479 1.181,0.949 1.784,1.41 0.039,0.03 0.077,0.06 0.116,0.09 8.142,3.146 16.731,4.741 25.529,4.741 C -16.73,4.741 -8.142,3.146 0,0" /></g><g
           transform="translate(181.8848,1058.7313)"
           id="g78"><path
             id="path80"
             style="fill:#231916;fill-opacity:1;fill-rule:nonzero;stroke:none"
             d="M 0,0 C 6.665,9.566 15.45,17.253 25.679,22.529 25.62,22.475 25.564,22.417 25.506,22.363 25.019,21.901 24.536,21.435 24.061,20.96 24.011,20.911 23.959,20.861 23.91,20.811 23.41,20.31 22.92,19.8 22.436,19.286 22.337,19.18 22.237,19.074 22.139,18.968 21.663,18.456 21.195,17.939 20.734,17.415 20.659,17.329 20.585,17.242 20.511,17.157 20.069,16.648 19.633,16.134 19.206,15.614 19.159,15.558 19.111,15.502 19.065,15.446 18.617,14.897 18.178,14.341 17.746,13.78 17.66,13.668 17.573,13.557 17.488,13.444 17.062,12.886 16.644,12.322 16.235,11.752 16.174,11.667 16.114,11.581 16.053,11.496 15.662,10.945 15.277,10.389 14.9,9.828 14.857,9.765 14.813,9.702 14.771,9.638 14.378,9.048 13.996,8.452 13.62,7.852 13.546,7.734 13.473,7.616 13.399,7.498 13.029,6.898 12.666,6.295 12.313,5.686 12.265,5.602 12.218,5.517 12.169,5.433 11.832,4.845 11.502,4.253 11.182,3.656 11.144,3.585 11.104,3.515 11.066,3.444 10.733,2.819 10.411,2.189 10.096,1.556 10.035,1.432 9.973,1.308 9.913,1.183 9.602,0.549 9.299,-0.089 9.007,-0.731 8.97,-0.813 8.935,-0.895 8.898,-0.976 8.62,-1.595 8.35,-2.218 8.089,-2.844 8.056,-2.924 8.022,-3.002 7.989,-3.082 7.72,-3.735 7.462,-4.394 7.212,-5.055 7.163,-5.184 7.115,-5.312 7.067,-5.441 6.821,-6.104 6.583,-6.771 6.356,-7.44 6.329,-7.521 6.303,-7.601 6.277,-7.681 6.062,-8.323 5.857,-8.969 5.661,-9.618 5.642,-9.679 5.621,-9.74 5.602,-9.802 5.557,-9.848 5.515,-9.896 5.47,-9.943 5,-10.434 4.537,-10.931 4.082,-11.433 4.021,-11.499 3.96,-11.565 3.9,-11.631 3.427,-12.157 2.963,-12.69 2.506,-13.227 2.415,-13.334 2.324,-13.442 2.233,-13.55 c -0.453,-0.54 -0.9,-1.084 -1.337,-1.635 -0.052,-0.066 -0.103,-0.133 -0.155,-0.2 -0.414,-0.526 -0.82,-1.056 -1.218,-1.592 -0.06,-0.081 -0.121,-0.16 -0.18,-0.241 -0.414,-0.561 -0.818,-1.128 -1.215,-1.7 -0.079,-0.114 -0.158,-0.229 -0.237,-0.344 -0.396,-0.578 -0.786,-1.16 -1.164,-1.748 -0.04,-0.061 -0.077,-0.123 -0.116,-0.184 -0.36,-0.562 -0.711,-1.129 -1.054,-1.701 -0.055,-0.091 -0.111,-0.182 -0.166,-0.274 -0.354,-0.595 -0.698,-1.194 -1.034,-1.797 -0.066,-0.12 -0.132,-0.241 -0.199,-0.362 -0.337,-0.613 -0.668,-1.231 -0.987,-1.855 -0.026,-0.05 -0.051,-0.102 -0.077,-0.153 -0.304,-0.599 -0.6,-1.203 -0.888,-1.81 -0.049,-0.103 -0.099,-0.205 -0.146,-0.308 -0.293,-0.624 -0.575,-1.252 -0.849,-1.884 -0.054,-0.124 -0.107,-0.249 -0.16,-0.374 -0.277,-0.647 -0.547,-1.297 -0.804,-1.953 -0.015,-0.038 -0.028,-0.076 -0.043,-0.113 -0.249,-0.637 -0.487,-1.277 -0.717,-1.921 -0.04,-0.112 -0.082,-0.224 -0.121,-0.337 -0.23,-0.65 -0.449,-1.304 -0.66,-1.962 -0.041,-0.127 -0.081,-0.255 -0.121,-0.382 -0.213,-0.678 -0.419,-1.358 -0.613,-2.043 -0.006,-0.021 -0.011,-0.042 -0.017,-0.063 -0.19,-0.674 -0.368,-1.352 -0.538,-2.033 -0.019,-0.074 -0.041,-0.147 -0.059,-0.222 -0.025,0.763 -0.037,1.524 -0.037,2.282 0,14.564 4.384,28.554 12.679,40.459" /></g><g
           transform="translate(169.9082,1008.2963)"
           id="g82"><path
             id="path84"
             style="fill:#231916;fill-opacity:1;fill-rule:nonzero;stroke:none"
             d="m 0,0 c 0.006,0.047 0.014,0.093 0.021,0.14 0.107,0.756 0.227,1.509 0.358,2.258 0.01,0.056 0.019,0.113 0.029,0.169 0.133,0.749 0.28,1.494 0.437,2.236 0.024,0.112 0.046,0.223 0.07,0.334 0.155,0.717 0.322,1.43 0.498,2.139 0.032,0.127 0.064,0.254 0.096,0.381 0.179,0.707 0.369,1.41 0.571,2.109 0.032,0.113 0.066,0.227 0.1,0.339 0.21,0.718 0.429,1.431 0.662,2.14 0.022,0.068 0.046,0.134 0.068,0.202 0.238,0.718 0.486,1.431 0.747,2.14 0.014,0.038 0.028,0.078 0.042,0.116 0.263,0.71 0.539,1.414 0.825,2.114 0.04,0.099 0.08,0.199 0.121,0.298 0.277,0.673 0.566,1.341 0.865,2.004 0.052,0.117 0.105,0.234 0.159,0.351 0.3,0.657 0.61,1.31 0.93,1.958 0.054,0.109 0.109,0.217 0.163,0.325 0.331,0.661 0.671,1.316 1.022,1.966 0.039,0.072 0.08,0.143 0.119,0.215 0.363,0.665 0.736,1.325 1.12,1.979 0.015,0.023 0.028,0.048 0.042,0.072 0.388,0.656 0.789,1.305 1.199,1.95 0.055,0.086 0.11,0.175 0.165,0.262 0.395,0.615 0.801,1.223 1.216,1.827 0.073,0.108 0.147,0.215 0.221,0.322 0.414,0.595 0.837,1.185 1.269,1.768 0.076,0.103 0.154,0.205 0.231,0.308 0.443,0.591 0.894,1.178 1.357,1.757 0.059,0.073 0.12,0.146 0.179,0.22 0.483,0.598 0.973,1.192 1.477,1.777 0.008,0.009 0.016,0.019 0.024,0.028 -1.253,-5.405 -1.886,-10.949 -1.886,-16.535 0,-16.636 5.452,-32.304 15.768,-45.31 9.111,-11.486 21.59,-20.031 35.481,-24.372 -0.01,-0.002 -0.02,-0.005 -0.031,-0.007 -0.071,-0.013 -0.144,-0.024 -0.216,-0.037 -0.565,-0.102 -1.131,-0.197 -1.699,-0.285 -0.202,-0.032 -0.404,-0.061 -0.606,-0.091 -0.464,-0.068 -0.93,-0.132 -1.396,-0.191 -0.193,-0.024 -0.386,-0.05 -0.58,-0.073 -0.64,-0.076 -1.28,-0.146 -1.922,-0.204 -0.042,-0.004 -0.084,-0.007 -0.127,-0.011 -0.603,-0.054 -1.208,-0.098 -1.813,-0.137 -0.198,-0.013 -0.396,-0.023 -0.593,-0.034 -0.475,-0.026 -0.95,-0.048 -1.426,-0.064 -0.193,-0.008 -0.387,-0.015 -0.58,-0.02 -0.649,-0.018 -1.298,-0.03 -1.947,-0.03 -0.551,0 -1.102,0.006 -1.652,0.019 -0.205,0.005 -0.409,0.014 -0.615,0.021 -0.344,0.011 -0.688,0.019 -1.031,0.035 -0.242,0.011 -0.483,0.028 -0.724,0.041 -0.306,0.018 -0.612,0.032 -0.917,0.053 -0.261,0.018 -0.52,0.042 -0.78,0.062 -0.285,0.023 -0.57,0.043 -0.854,0.069 -0.282,0.026 -0.564,0.058 -0.845,0.087 -0.261,0.027 -0.522,0.052 -0.783,0.081 -0.29,0.034 -0.579,0.074 -0.869,0.11 -0.25,0.033 -0.502,0.061 -0.752,0.096 -0.292,0.041 -0.583,0.087 -0.874,0.131 -0.247,0.038 -0.494,0.072 -0.74,0.112 -0.292,0.048 -0.583,0.101 -0.875,0.152 -0.244,0.043 -0.489,0.083 -0.733,0.128 -0.291,0.054 -0.581,0.115 -0.871,0.172 -0.243,0.049 -0.486,0.095 -0.728,0.145 -0.291,0.061 -0.58,0.128 -0.869,0.193 -0.241,0.054 -0.483,0.105 -0.723,0.161 -0.285,0.067 -0.57,0.141 -0.854,0.211 -0.243,0.06 -0.487,0.118 -0.73,0.181 -0.281,0.073 -0.559,0.151 -0.839,0.228 -0.245,0.066 -0.491,0.13 -0.735,0.2 -0.278,0.079 -0.555,0.164 -0.832,0.246 -0.245,0.073 -0.49,0.143 -0.734,0.219 -0.269,0.083 -0.538,0.172 -0.806,0.259 -0.251,0.081 -0.502,0.16 -0.752,0.243 -0.262,0.088 -0.523,0.182 -0.784,0.272 -0.255,0.089 -0.509,0.175 -0.762,0.267 -0.258,0.093 -0.514,0.191 -0.771,0.287 -0.234,0.088 -0.47,0.174 -0.704,0.265 C 12.301,-35.045 2.614,-18.557 0,0" /></g><g
           transform="translate(240.0718,947.4062)"
           id="g86"><path
             id="path88"
             style="fill:#231916;fill-opacity:1;fill-rule:nonzero;stroke:none"
             d="m 0,0 c -13.054,0 -25.549,3.483 -36.546,10.135 0.092,-0.025 0.185,-0.046 0.277,-0.071 0.637,-0.17 1.275,-0.334 1.915,-0.487 0.064,-0.016 0.127,-0.033 0.191,-0.048 0.697,-0.164 1.396,-0.316 2.098,-0.46 0.184,-0.038 0.369,-0.073 0.553,-0.11 0.582,-0.115 1.165,-0.222 1.749,-0.323 0.143,-0.024 0.285,-0.051 0.429,-0.074 0.702,-0.117 1.406,-0.222 2.113,-0.318 0.166,-0.022 0.332,-0.042 0.498,-0.063 0.577,-0.075 1.156,-0.141 1.736,-0.202 0.18,-0.019 0.359,-0.039 0.539,-0.056 0.712,-0.069 1.426,-0.129 2.141,-0.177 0.119,-0.008 0.239,-0.013 0.358,-0.02 0.614,-0.039 1.229,-0.068 1.846,-0.091 0.196,-0.008 0.392,-0.015 0.589,-0.021 0.725,-0.021 1.452,-0.035 2.181,-0.035 0.736,0 1.472,0.011 2.207,0.033 0.267,0.008 0.533,0.025 0.799,0.036 0.469,0.019 0.937,0.036 1.405,0.063 0.319,0.02 0.638,0.049 0.958,0.072 0.413,0.03 0.826,0.057 1.239,0.094 0.342,0.031 0.683,0.072 1.024,0.107 0.389,0.041 0.779,0.078 1.167,0.124 0.351,0.043 0.702,0.095 1.053,0.142 0.377,0.051 0.753,0.098 1.128,0.155 0.353,0.053 0.705,0.116 1.057,0.175 0.372,0.062 0.745,0.12 1.116,0.188 0.349,0.063 0.696,0.136 1.044,0.205 0.372,0.073 0.745,0.143 1.115,0.222 C -1.679,9.268 -1.34,9.35 -1,9.427 -0.667,9.503 -0.332,9.574 0,9.655 0.332,9.574 0.667,9.503 1.001,9.427 1.34,9.35 1.679,9.268 2.02,9.195 2.392,9.116 2.765,9.046 3.137,8.972 3.485,8.904 3.832,8.831 4.18,8.768 4.551,8.7 4.924,8.642 5.297,8.58 5.649,8.521 6,8.458 6.353,8.405 6.729,8.348 7.105,8.301 7.481,8.25 7.833,8.203 8.183,8.151 8.535,8.108 8.923,8.062 9.313,8.025 9.702,7.984 10.043,7.949 10.383,7.908 10.726,7.877 11.138,7.84 11.552,7.813 11.965,7.783 12.284,7.76 12.604,7.731 12.923,7.711 13.391,7.684 13.859,7.667 14.327,7.648 14.594,7.637 14.86,7.62 15.126,7.612 15.862,7.59 16.598,7.579 17.334,7.579 c 0.728,0 1.455,0.014 2.181,0.035 0.196,0.006 0.392,0.013 0.589,0.021 0.616,0.023 1.231,0.052 1.846,0.091 0.119,0.007 0.238,0.012 0.357,0.02 0.715,0.048 1.429,0.108 2.141,0.177 0.18,0.017 0.359,0.037 0.539,0.056 0.58,0.061 1.159,0.128 1.737,0.202 0.166,0.021 0.332,0.041 0.497,0.063 0.707,0.096 1.411,0.201 2.114,0.318 0.143,0.023 0.285,0.05 0.428,0.074 0.584,0.101 1.167,0.208 1.749,0.323 0.184,0.037 0.369,0.072 0.553,0.11 0.702,0.144 1.401,0.296 2.099,0.46 0.063,0.015 0.126,0.032 0.189,0.047 0.641,0.153 1.279,0.318 1.916,0.488 0.092,0.025 0.185,0.046 0.277,0.071 C 25.55,3.483 13.054,0 0,0" /></g><g
           transform="translate(282.9429,961.8452)"
           id="g90"><path
             id="path92"
             style="fill:#231916;fill-opacity:1;fill-rule:nonzero;stroke:none"
             d="M 0,0 C -0.234,-0.091 -0.469,-0.177 -0.704,-0.265 -0.96,-0.361 -1.217,-0.459 -1.474,-0.552 -1.728,-0.644 -1.982,-0.729 -2.236,-0.818 -2.497,-0.909 -2.758,-1.002 -3.02,-1.09 -3.271,-1.175 -3.523,-1.253 -3.774,-1.334 -4.042,-1.421 -4.31,-1.51 -4.578,-1.593 -4.825,-1.669 -5.073,-1.74 -5.32,-1.814 -5.595,-1.896 -5.868,-1.979 -6.143,-2.058 -6.392,-2.128 -6.641,-2.193 -6.89,-2.261 -7.166,-2.336 -7.441,-2.414 -7.718,-2.486 -7.965,-2.55 -8.214,-2.609 -8.463,-2.67 c -0.279,-0.07 -0.558,-0.141 -0.838,-0.207 -0.248,-0.058 -0.497,-0.111 -0.746,-0.166 -0.282,-0.063 -0.563,-0.129 -0.846,-0.188 -0.251,-0.053 -0.502,-0.1 -0.753,-0.15 -0.282,-0.056 -0.563,-0.115 -0.846,-0.167 -0.254,-0.048 -0.509,-0.089 -0.763,-0.134 -0.282,-0.049 -0.562,-0.101 -0.845,-0.147 -0.256,-0.041 -0.515,-0.077 -0.773,-0.116 -0.28,-0.042 -0.56,-0.087 -0.841,-0.126 -0.261,-0.036 -0.522,-0.067 -0.783,-0.1 -0.279,-0.036 -0.559,-0.074 -0.839,-0.106 -0.27,-0.032 -0.542,-0.056 -0.813,-0.085 -0.271,-0.028 -0.542,-0.059 -0.814,-0.084 -0.294,-0.027 -0.589,-0.047 -0.883,-0.071 -0.25,-0.02 -0.5,-0.043 -0.751,-0.06 -0.313,-0.021 -0.627,-0.036 -0.94,-0.054 -0.234,-0.013 -0.467,-0.029 -0.702,-0.04 -0.349,-0.016 -0.699,-0.025 -1.049,-0.036 -0.199,-0.006 -0.398,-0.016 -0.597,-0.02 -0.55,-0.013 -1.101,-0.019 -1.652,-0.019 -0.65,0 -1.298,0.012 -1.947,0.03 -0.193,0.005 -0.387,0.012 -0.58,0.02 -0.476,0.016 -0.951,0.038 -1.426,0.064 -0.197,0.011 -0.395,0.022 -0.593,0.034 -0.606,0.039 -1.211,0.084 -1.815,0.138 -0.042,0.003 -0.084,0.006 -0.125,0.01 -0.643,0.058 -1.283,0.128 -1.923,0.204 -0.193,0.023 -0.385,0.048 -0.578,0.073 -0.467,0.059 -0.934,0.123 -1.4,0.192 -0.201,0.029 -0.401,0.058 -0.601,0.089 -0.572,0.09 -1.143,0.185 -1.712,0.288 -0.068,0.012 -0.136,0.023 -0.204,0.035 -0.011,0.002 -0.022,0.005 -0.033,0.007 13.892,4.342 26.371,12.886 35.482,24.372 10.315,13.006 15.768,28.674 15.768,45.31 0,5.587 -0.633,11.131 -1.887,16.536 0.003,-0.003 0.005,-0.006 0.007,-0.009 0.513,-0.595 1.013,-1.2 1.505,-1.81 0.054,-0.067 0.109,-0.133 0.163,-0.201 0.467,-0.584 0.923,-1.176 1.37,-1.772 0.073,-0.097 0.146,-0.194 0.218,-0.291 0.436,-0.589 0.863,-1.183 1.279,-1.783 0.071,-0.102 0.141,-0.204 0.211,-0.306 0.418,-0.608 0.827,-1.222 1.225,-1.841 0.052,-0.083 0.104,-0.165 0.155,-0.248 0.413,-0.648 0.817,-1.302 1.207,-1.963 0.012,-0.018 0.022,-0.037 0.033,-0.056 0.389,-0.66 0.765,-1.327 1.133,-1.999 0.036,-0.068 0.074,-0.135 0.111,-0.203 0.354,-0.653 0.695,-1.312 1.028,-1.976 0.052,-0.105 0.105,-0.209 0.157,-0.314 0.322,-0.651 0.634,-1.307 0.935,-1.968 0.052,-0.113 0.103,-0.227 0.154,-0.341 0.3,-0.666 0.591,-1.336 0.869,-2.012 0.04,-0.096 0.079,-0.192 0.118,-0.289 0.286,-0.703 0.564,-1.41 0.828,-2.123 0.012,-0.035 0.025,-0.07 0.038,-0.106 0.262,-0.712 0.512,-1.429 0.751,-2.15 0.022,-0.066 0.045,-0.132 0.067,-0.198 0.233,-0.709 0.452,-1.424 0.663,-2.142 0.032,-0.112 0.066,-0.224 0.098,-0.336 0.202,-0.7 0.392,-1.405 0.573,-2.113 0.031,-0.125 0.063,-0.251 0.094,-0.376 0.177,-0.71 0.344,-1.424 0.498,-2.143 0.024,-0.11 0.047,-0.221 0.07,-0.332 0.157,-0.742 0.304,-1.487 0.438,-2.237 0.01,-0.056 0.018,-0.113 0.028,-0.169 0.131,-0.749 0.251,-1.502 0.359,-2.258 0.007,-0.047 0.014,-0.093 0.021,-0.14 C 24.678,27.894 14.992,11.406 0,0" /></g><g
           transform="translate(226.4312,1010.4702)"
           id="g94"><path
             id="path96"
             style="fill:#231916;fill-opacity:1;fill-rule:nonzero;stroke:none"
             d="m 0,0 4.213,-4.384 v -8.602 h 6.949 V 28.59 H 4.213 V 3.759 L -8.258,17.085 h -8.373 L -4.672,4.842 -17.028,-12.986 h 7.972 z" /></g><g
           transform="translate(249.4971,1014.2289)"
           id="g98"><path
             id="path100"
             style="fill:#231916;fill-opacity:1;fill-rule:nonzero;stroke:none"
             d="M 0,0 V 24.831 H -6.951 V -16.745 H 0 v 8.602 l 4.211,4.384 9.056,-12.986 h 7.977 L 8.883,1.083 20.843,13.327 h -8.371 z" /></g></g></g><g
       id="g102"><g
         clip-path="url(#clipPath108)"
         id="g104"><g
           transform="translate(300.8496,1007.6293)"
           id="g110"><path
             id="path112"
             style="fill:#898989;fill-opacity:1;fill-rule:nonzero;stroke:none"
             d="m 0,0 c -0.051,0 -0.102,0.004 -0.154,0.012 -0.546,0.084 -0.92,0.595 -0.836,1.14 2.44,15.817 -1.427,31.637 -10.885,44.546 -9.46,12.909 -23.38,21.362 -39.196,23.8 -23.443,3.615 -46.028,-6.791 -58.936,-27.16 -0.296,-0.466 -0.913,-0.605 -1.38,-0.309 -0.467,0.295 -0.605,0.913 -0.31,1.38 13.341,21.05 36.689,31.805 60.93,28.066 C -34.422,68.955 -20.038,60.22 -10.262,46.88 -0.487,33.54 3.508,17.192 0.987,0.848 0.911,0.354 0.485,0 0,0" /></g><g
           transform="translate(184.7725,992.6332)"
           id="g114"><path
             id="path116"
             style="fill:#898989;fill-opacity:1;fill-rule:nonzero;stroke:none"
             d="m 0,0 c -0.386,0 -0.753,0.225 -0.917,0.601 -4.668,10.714 -6.189,22.512 -4.4,34.117 1.254,8.128 3.44,14.906 6.683,20.721 0.269,0.482 0.878,0.655 1.36,0.386 0.482,-0.269 0.655,-0.878 0.386,-1.36 C -0.013,48.861 -2.124,42.302 -3.34,34.413 -5.072,23.183 -3.601,11.767 0.916,1.399 1.137,0.893 0.905,0.304 0.399,0.083 0.269,0.027 0.133,0 0,0" /></g><g
           transform="translate(295.25,1008.4931)"
           id="g118"><path
             id="path120"
             style="fill:#898989;fill-opacity:1;fill-rule:nonzero;stroke:none"
             d="M 0,0 C -0.051,0 -0.102,0.004 -0.154,0.012 -0.7,0.096 -1.074,0.607 -0.99,1.152 0.831,12.955 -1.804,24.915 -8.819,36.7 c -0.283,0.474 -0.127,1.088 0.348,1.37 0.475,0.283 1.088,0.127 1.371,-0.347 C 0.159,25.528 2.88,13.122 0.987,0.848 0.911,0.354 0.485,0 0,0" /></g><g
           transform="translate(190.1709,994.4887)"
           id="g122"><path
             id="path124"
             style="fill:#898989;fill-opacity:1;fill-rule:nonzero;stroke:none"
             d="m 0,0 c -0.382,0 -0.748,0.221 -0.914,0.593 -4.397,9.856 -5.85,20.716 -4.202,31.405 2.427,15.737 11.115,29.839 23.837,38.693 11.869,8.261 26.208,11.214 40.376,8.317 16.405,-3.356 29.359,-11.092 37.461,-22.37 0.322,-0.449 0.219,-1.074 -0.229,-1.396 -0.449,-0.321 -1.074,-0.22 -1.396,0.229 C 87.131,66.334 74.6,73.795 58.696,77.048 45.071,79.835 31.279,76.995 19.863,69.05 7.589,60.507 -0.795,46.892 -3.139,31.694 -4.729,21.385 -3.328,10.912 0.913,1.408 1.138,0.903 0.912,0.312 0.407,0.087 0.275,0.028 0.136,0 0,0" /></g><g
           transform="translate(288.0063,997.7055)"
           id="g126"><path
             id="path128"
             style="fill:#898989;fill-opacity:1;fill-rule:nonzero;stroke:none"
             d="m 0,0 c -0.046,0 -0.094,0.003 -0.141,0.01 -0.547,0.077 -0.928,0.583 -0.851,1.13 l 1.645,11.651 c 2.479,16.076 -4.156,33.67 -16.901,44.836 -0.416,0.364 -0.457,0.995 -0.093,1.411 0.363,0.415 0.995,0.458 1.411,0.093 C -1.683,47.526 5.21,29.222 2.631,12.499 L 0.989,0.861 C 0.918,0.361 0.49,0 0,0" /></g><g
           transform="translate(268.5708,1058.9955)"
           id="g130"><path
             id="path132"
             style="fill:#898989;fill-opacity:1;fill-rule:nonzero;stroke:none"
             d="m 0,0 c -0.191,0 -0.384,0.055 -0.555,0.169 -5.683,3.803 -12.795,6.714 -20.026,8.198 -11.913,2.443 -21.442,-2.121 -30.96,-7.431 -0.483,-0.269 -1.092,-0.097 -1.36,0.386 -0.269,0.482 -0.097,1.091 0.385,1.36 9.86,5.502 19.752,10.226 32.337,7.644 C -12.7,8.792 -5.336,5.775 0.557,1.831 1.016,1.524 1.139,0.903 0.832,0.444 0.639,0.156 0.323,0 0,0" /></g><g
           transform="translate(191.7964,1029.2841)"
           id="g134"><path
             id="path136"
             style="fill:#898989;fill-opacity:1;fill-rule:nonzero;stroke:none"
             d="m 0,0 c -0.083,0 -0.166,0.01 -0.25,0.032 -0.535,0.137 -0.857,0.682 -0.719,1.217 2.451,9.547 7.951,22.416 20.227,29.501 0.478,0.277 1.09,0.113 1.366,-0.365 0.276,-0.479 0.112,-1.09 -0.366,-1.366 C 8.583,22.28 3.324,9.927 0.968,0.751 0.852,0.3 0.445,0 0,0" /></g><g
           transform="translate(195.0811,997.3959)"
           id="g138"><path
             id="path140"
             style="fill:#898989;fill-opacity:1;fill-rule:nonzero;stroke:none"
             d="m 0,0 c -0.388,0 -0.756,0.227 -0.919,0.605 -3.387,7.872 -4.287,17.166 -2.674,27.623 0.084,0.546 0.596,0.921 1.14,0.836 0.546,-0.085 0.921,-0.595 0.836,-1.141 C -3.171,17.843 -2.318,8.917 0.918,1.396 1.136,0.888 0.902,0.3 0.395,0.082 0.266,0.026 0.132,0 0,0" /></g><g
           transform="translate(279.5532,981.5117)"
           id="g142"><path
             id="path144"
             style="fill:#898989;fill-opacity:1;fill-rule:nonzero;stroke:none"
             d="m 0,0 c -0.148,0 -0.299,0.033 -0.441,0.103 -0.496,0.245 -0.699,0.844 -0.455,1.339 4.34,8.803 4.393,28.073 4.393,28.266 0,0.553 0.447,1 1,1 0.552,0 1,-0.447 1,-1 C 5.497,28.899 5.444,9.779 0.898,0.558 0.724,0.205 0.369,0 0,0" /></g><g
           transform="translate(284.9717,1015.9028)"
           id="g146"><path
             id="path148"
             style="fill:#898989;fill-opacity:1;fill-rule:nonzero;stroke:none"
             d="M 0,0 C -0.008,0 -0.016,0 -0.024,0 -0.577,0.014 -1.014,0.472 -1,1.024 c 0.44,18.539 -10.827,39.75 -32.574,42.546 -0.548,0.07 -0.935,0.572 -0.864,1.119 0.07,0.548 0.572,0.934 1.119,0.865 C -10.411,42.609 1.46,20.389 0.999,0.977 0.986,0.432 0.541,0 0,0" /></g><g
           transform="translate(205.6611,1043.9896)"
           id="g150"><path
             id="path152"
             style="fill:#898989;fill-opacity:1;fill-rule:nonzero;stroke:none"
             d="m 0,0 c -0.179,0 -0.36,0.048 -0.523,0.148 -0.471,0.29 -0.617,0.906 -0.328,1.376 3.969,6.454 10.945,12.094 19.14,15.475 8.224,3.393 16.855,4.166 23.677,2.121 0.529,-0.159 0.829,-0.717 0.671,-1.245 C 42.479,17.345 41.92,17.046 41.392,17.204 28.022,21.212 8.701,13.238 0.853,0.477 0.664,0.169 0.336,0 0,0" /></g><g
           transform="translate(199.4624,1001.6845)"
           id="g154"><path
             id="path156"
             style="fill:#898989;fill-opacity:1;fill-rule:nonzero;stroke:none"
             d="m 0,0 c -0.406,0 -0.788,0.249 -0.937,0.652 -2.649,7.126 -3.435,14.881 -2.271,22.424 0.965,6.256 4.024,11.884 6.891,16.563 0.288,0.472 0.903,0.62 1.375,0.331 0.47,-0.289 0.618,-0.904 0.33,-1.375 C 2.626,34.084 -0.321,28.678 -1.232,22.771 -2.343,15.564 -1.593,8.156 0.937,1.349 1.13,0.831 0.866,0.255 0.348,0.063 0.233,0.021 0.116,0 0,0" /></g><g
           transform="translate(270.7407,966.4667)"
           id="g158"><path
             id="path160"
             style="fill:#898989;fill-opacity:1;fill-rule:nonzero;stroke:none"
             d="m 0,0 c -0.1,0 -0.201,0.015 -0.301,0.046 -0.527,0.167 -0.819,0.728 -0.653,1.255 2.403,7.613 3.941,13.853 5.309,21.538 0.097,0.543 0.618,0.905 1.16,0.809 0.544,-0.097 0.906,-0.616 0.809,-1.16 C 4.939,14.712 3.383,8.4 0.954,0.699 0.819,0.272 0.425,0 0,0" /></g><g
           transform="translate(276.8052,992.8471)"
           id="g162"><path
             id="path164"
             style="fill:#898989;fill-opacity:1;fill-rule:nonzero;stroke:none"
             d="m 0,0 c -0.071,0 -0.144,0.008 -0.216,0.023 -0.539,0.12 -0.88,0.653 -0.762,1.192 2.046,9.286 2.723,18.113 2.729,18.201 l 0.01,0.078 c 0.982,6.37 -0.061,12.324 -3.102,17.696 -0.272,0.481 -0.103,1.091 0.378,1.363 0.481,0.272 1.09,0.103 1.363,-0.378 C 3.661,32.413 4.786,26.038 3.743,19.227 3.691,18.562 2.982,9.892 0.976,0.785 0.873,0.318 0.459,0 0,0" /></g><g
           transform="translate(275.6011,1033.743)"
           id="g166"><path
             id="path168"
             style="fill:#898989;fill-opacity:1;fill-rule:nonzero;stroke:none"
             d="m 0,0 c -0.374,0 -0.731,0.21 -0.903,0.57 -5.172,10.842 -15.78,18.474 -28.374,20.417 -7.225,1.113 -14.549,0.093 -21.18,-2.956 -0.502,-0.23 -1.095,-0.01 -1.326,0.491 -0.23,0.502 -0.01,1.096 0.491,1.327 6.988,3.212 14.706,4.288 22.319,3.114 C -15.723,20.92 -4.555,12.871 0.902,1.431 1.14,0.933 0.928,0.335 0.43,0.098 0.291,0.032 0.145,0 0,0" /></g><g
           transform="translate(202.8428,1022.7441)"
           id="g170"><path
             id="path172"
             style="fill:#898989;fill-opacity:1;fill-rule:nonzero;stroke:none"
             d="m 0,0 c -0.051,0 -0.102,0.004 -0.153,0.012 -0.546,0.084 -0.921,0.595 -0.836,1.141 1.757,11.393 8.418,21.402 18.275,27.46 0.471,0.289 1.087,0.141 1.376,-0.329 0.289,-0.471 0.142,-1.086 -0.329,-1.375 C 8.978,21.159 2.655,11.66 0.987,0.848 0.911,0.354 0.485,0 0,0" /></g><g
           transform="translate(203.6699,1007.1205)"
           id="g174"><path
             id="path176"
             style="fill:#898989;fill-opacity:1;fill-rule:nonzero;stroke:none"
             d="M 0,0 C -0.442,0 -0.847,0.295 -0.966,0.743 -2,4.628 -2.427,8.637 -2.233,12.658 c 0.027,0.551 0.499,0.972 1.047,0.95 0.552,-0.026 0.978,-0.495 0.951,-1.046 C -0.419,8.747 -0.015,4.943 0.967,1.257 1.109,0.724 0.792,0.176 0.258,0.034 0.172,0.011 0.085,0 0,0" /></g><g
           transform="translate(258.0898,953.6254)"
           id="g178"><path
             id="path180"
             style="fill:#898989;fill-opacity:1;fill-rule:nonzero;stroke:none"
             d="m 0,0 c -0.201,0 -0.404,0.061 -0.581,0.187 -0.449,0.321 -0.553,0.945 -0.231,1.395 13.686,19.142 16.173,57.417 16.197,57.801 0.033,0.552 0.51,0.972 1.059,0.937 0.551,-0.033 0.971,-0.507 0.937,-1.059 C 17.375,59.164 16.757,49.375 14.428,37.32 11.29,21.08 6.709,8.664 0.814,0.418 0.619,0.146 0.312,0 0,0" /></g><g
           transform="translate(274.813,1016.0571)"
           id="g182"><path
             id="path184"
             style="fill:#898989;fill-opacity:1;fill-rule:nonzero;stroke:none"
             d="M 0,0 C -0.009,0 -0.019,0 -0.028,0 -0.58,0.016 -1.015,0.475 -1,1.027 c 0.228,8.421 -5.359,15.974 -9.581,20.922 -0.358,0.421 -0.309,1.052 0.111,1.41 0.421,0.359 1.052,0.308 1.41,-0.112 C -4.624,18.048 1.245,10.082 0.999,0.973 0.984,0.43 0.54,0 0,0" /></g><g
           transform="translate(208.2578,1013.288)"
           id="g186"><path
             id="path188"
             style="fill:#898989;fill-opacity:1;fill-rule:nonzero;stroke:none"
             d="m 0,0 c -0.502,0 -0.935,0.377 -0.992,0.888 -0.33,2.935 -0.267,5.915 0.187,8.857 1.366,8.853 6.107,16.651 13.351,21.96 7.244,5.308 16.108,7.48 24.961,6.114 7.061,-1.089 12.982,-3.798 17.598,-8.052 0.406,-0.375 0.432,-1.007 0.058,-1.414 -0.374,-0.406 -1.007,-0.432 -1.413,-0.057 -4.319,3.98 -9.887,6.519 -16.547,7.547 C 28.877,37.126 20.542,35.084 13.728,30.091 6.915,25.099 2.456,17.765 1.172,9.44 0.745,6.673 0.686,3.871 0.995,1.111 1.057,0.562 0.662,0.068 0.113,0.006 0.075,0.002 0.037,0 0,0" /></g><g
           transform="translate(190.0742,953.0493)"
           id="g190"><path
             id="path192"
             style="fill:#898989;fill-opacity:1;fill-rule:nonzero;stroke:none"
             d="m 0,0 c -0.552,0 -1,0.448 -1,1 0,0.552 0.448,1 1,1 23.381,0 43.345,14.59 50.86,37.171 0.174,0.524 0.741,0.808 1.265,0.633 0.523,-0.175 0.807,-0.741 0.632,-1.264 C 44.966,15.127 24.258,0 0,0" /></g><g
           transform="translate(224.5933,982.9789)"
           id="g194"><path
             id="path196"
             style="fill:#898989;fill-opacity:1;fill-rule:nonzero;stroke:none"
             d="m 0,0 c -0.227,0 -0.454,0.077 -0.642,0.233 -0.423,0.355 -0.479,0.986 -0.124,1.409 7.318,8.736 11.348,19.766 11.348,31.059 0,2.799 2.327,5.077 5.188,5.077 2.86,0 5.188,-2.278 5.188,-5.077 0,-6.878 -1.934,-19.794 -2.016,-20.34 -0.082,-0.546 -0.592,-0.921 -1.138,-0.84 -0.546,0.083 -0.922,0.592 -0.84,1.138 0.02,0.132 1.994,13.315 1.994,20.042 0,1.697 -1.43,3.077 -3.188,3.077 -1.758,0 -3.188,-1.38 -3.188,-3.077 C 12.582,20.939 8.386,9.453 0.767,0.358 0.569,0.122 0.286,0 0,0" /></g><g
           transform="translate(184.6313,964.4911)"
           id="g198"><path
             id="path200"
             style="fill:#898989;fill-opacity:1;fill-rule:nonzero;stroke:none"
             d="m 0,0 c -0.552,0 -1,0.448 -1,1 0,0.552 0.448,1 1,1 14.84,0 27.147,4.981 36.578,14.806 0.382,0.398 1.015,0.411 1.414,0.028 0.398,-0.382 0.411,-1.015 0.029,-1.414 C 28.198,5.188 15.406,0 0,0" /></g><g
           transform="translate(195.0806,947.4477)"
           id="g202"><path
             id="path204"
             style="fill:#898989;fill-opacity:1;fill-rule:nonzero;stroke:none"
             d="m 0,0 c -0.552,0 -1,0.448 -1,1 0,0.552 0.448,1 1,1 37.64,0 54.488,34.387 54.488,68.466 0,4.921 -4.002,8.924 -8.923,8.924 -4.919,0 -8.922,-4.003 -8.922,-8.924 0,-26.32 -21.414,-47.733 -47.734,-47.733 -0.552,0 -1,0.448 -1,1 0,0.552 0.448,1 1,1 25.217,0 45.734,20.516 45.734,45.733 0,6.023 4.899,10.924 10.922,10.924 6.023,0 10.923,-4.901 10.923,-10.924 0,-19.11 -5.024,-36.551 -14.146,-49.11 C 32.194,7.385 17.552,0 0,0" /></g><g
           transform="translate(198.2256,941.4443)"
           id="g206"><path
             id="path208"
             style="fill:#898989;fill-opacity:1;fill-rule:nonzero;stroke:none"
             d="m 0,0 c -0.552,0 -1,0.448 -1,1 0,0.552 0.448,1 1,1 18.206,0 33.125,7.724 43.142,22.338 8.942,13.044 13.867,31.559 13.867,52.132 0,8.044 -6.544,14.589 -14.589,14.589 -8.044,0 -14.588,-6.545 -14.588,-14.589 0,-23.197 -18.872,-42.068 -42.068,-42.068 -0.552,0 -1,0.448 -1,1 0,0.552 0.448,1 1,1 22.093,0 40.068,17.974 40.068,40.068 0,9.147 7.441,16.589 16.588,16.589 9.147,0 16.589,-7.442 16.589,-16.589 C 59.009,55.497 53.96,36.582 44.792,23.207 34.384,8.025 18.896,0 0,0" /></g><g
           transform="translate(183.9897,981.5117)"
           id="g210"><path
             id="path212"
             style="fill:#898989;fill-opacity:1;fill-rule:nonzero;stroke:none"
             d="m 0,0 c -0.552,0 -1,0.448 -1,1 0,0.552 0.448,1 1,1 18.969,0 34.402,15.433 34.402,34.402 0,12.271 9.983,22.255 22.254,22.255 5.373,0 10.564,-1.949 14.618,-5.487 0.416,-0.363 0.459,-0.995 0.096,-1.411 C 71.007,51.343 70.375,51.3 69.959,51.664 66.27,54.883 61.545,56.657 56.656,56.657 45.488,56.657 36.402,47.571 36.402,36.402 36.402,16.33 20.072,0 0,0" /></g><g
           transform="translate(258.0918,982.9789)"
           id="g214"><path
             id="path216"
             style="fill:#898989;fill-opacity:1;fill-rule:nonzero;stroke:none"
             d="m 0,0 c -0.068,0 -0.136,0.007 -0.205,0.021 -0.541,0.113 -0.888,0.642 -0.775,1.183 2.903,13.947 3.789,21.829 3.789,33.731 0,4.424 -1.407,8.63 -4.069,12.163 -0.332,0.441 -0.244,1.068 0.197,1.4 0.441,0.333 1.068,0.244 1.4,-0.197 C 3.262,44.419 4.809,39.797 4.809,34.935 4.809,22.875 3.914,14.898 0.978,0.796 0.88,0.324 0.464,0 0,0" /></g><g
           transform="translate(238.1538,951.6674)"
           id="g218"><path
             id="path220"
             style="fill:#898989;fill-opacity:1;fill-rule:nonzero;stroke:none"
             d="m 0,0 c -0.345,0 -0.681,0.179 -0.867,0.5 -0.276,0.478 -0.113,1.089 0.365,1.366 0.148,0.086 12.169,7.284 18.037,26.233 0.163,0.527 0.722,0.823 1.251,0.659 0.527,-0.163 0.822,-0.723 0.659,-1.251 C 13.325,7.742 1.021,0.436 0.5,0.135 0.342,0.043 0.17,0 0,0" /></g><g
           transform="translate(248.1489,947.9067)"
           id="g222"><path
             id="path224"
             style="fill:#898989;fill-opacity:1;fill-rule:nonzero;stroke:none"
             d="m 0,0 c -0.22,0 -0.442,0.072 -0.627,0.222 -0.43,0.346 -0.497,0.976 -0.15,1.405 16.183,20.066 20.648,55.424 20.2,68.474 0,14.015 -12.331,25.826 -26.926,25.826 -0.552,0 -1,0.448 -1,1 0,0.552 0.448,1 1,1 15.68,0 28.926,-12.727 28.926,-27.792 C 21.897,56.335 17.475,21.074 0.779,0.372 0.582,0.127 0.292,0 0,0" /></g><g
           transform="translate(183.9897,987.1772)"
           id="g226"><path
             id="path228"
             style="fill:#898989;fill-opacity:1;fill-rule:nonzero;stroke:none"
             d="m 0,0 c -0.552,0 -1,0.448 -1,1 0,0.552 0.448,1 1,1 15.845,0 28.736,12.892 28.736,28.737 0,13.72 10.225,25.592 23.785,27.614 0.549,0.081 1.055,-0.295 1.136,-0.841 0.082,-0.547 -0.295,-1.055 -0.841,-1.137 C 40.229,54.496 30.736,43.475 30.736,30.737 30.736,13.789 16.948,0 0,0" /></g><g
           transform="translate(189.1436,958.7138)"
           id="g230"><path
             id="path232"
             style="fill:#898989;fill-opacity:1;fill-rule:nonzero;stroke:none"
             d="m 0,0 c -0.516,0 -0.954,0.396 -0.996,0.919 -0.045,0.551 0.366,1.033 0.916,1.078 11.89,0.961 21.94,4.424 29.872,10.292 6.333,4.684 11.35,10.912 14.911,18.511 6.085,12.984 5.803,25.585 5.8,25.711 -0.016,0.552 0.419,1.012 0.971,1.028 0.569,0.004 1.012,-0.42 1.028,-0.972 C 52.517,56.034 52.799,43.361 46.514,29.951 40.693,17.532 27.913,2.254 0.082,0.003 0.054,0.001 0.027,0 0,0" /></g></g></g></g></svg>