<?xml version="1.0" encoding="UTF-8" standalone="no"?>
<svg
   xmlns:dc="http://purl.org/dc/elements/1.1/"
   xmlns:cc="http://creativecommons.org/ns#"
   xmlns:rdf="http://www.w3.org/1999/02/22-rdf-syntax-ns#"
   xmlns:svg="http://www.w3.org/2000/svg"
   xmlns="http://www.w3.org/2000/svg"
   viewBox="0 0 316.04666 42.864159"
   height="42.864159"
   width="316.04666"
   xml:space="preserve"
   id="svg2"
   version="1.1"><metadata
     id="metadata8"><rdf:RDF><cc:Work
         rdf:about=""><dc:format>image/svg+xml</dc:format><dc:type
           rdf:resource="http://purl.org/dc/dcmitype/StillImage" /><dc:title></dc:title></cc:Work></rdf:RDF></metadata><defs
     id="defs6"><clipPath
       id="clipPath18"
       clipPathUnits="userSpaceOnUse"><path
         id="path16"
         d="M 0,141.73 H 255.12 V 0 H 0 Z" /></clipPath><clipPath
       id="clipPath34"
       clipPathUnits="userSpaceOnUse"><path
         id="path32"
         d="M 0,141.73 H 255.12 V 0 H 0 Z" /></clipPath></defs><g
     transform="matrix(1.3333333,0,0,-1.3333333,-13.532,116.30589)"
     id="g10"><g
       id="g12"><g
         clip-path="url(#clipPath18)"
         id="g14"><g
           transform="translate(62.272,79.3691)"
           id="g20"><path
             id="path22"
             style="fill:#dd2166;fill-opacity:1;fill-rule:nonzero;stroke:none"
             d="m 0,0 c -1.223,0.077 -2.403,0.169 -3.491,0.264 0.415,0.953 0.925,1.815 1.555,2.475 0,0 1.987,2.077 2.218,-0.232 C 0.282,2.507 0.369,1.681 0,0 m -3.967,-9.314 c 0,0 -1.709,-3.232 -1.293,0.739 0,0 0.118,4.064 1.288,7.581 1.12,-0.101 2.352,-0.199 3.644,-0.282 -0.563,-1.925 -1.629,-4.594 -3.639,-8.038 m -14.451,0.739 c 0,0 0.23,8.081 3.325,11.314 0,0 1.985,2.077 2.216,-0.232 0,0 0.416,-3.832 -4.248,-11.821 0,0 -1.709,-3.232 -1.293,0.739 m -12.934,0 c 0,0 0.23,8.081 3.325,11.314 0,0 1.985,2.077 2.216,-0.232 0,0 0.415,-3.832 -4.249,-11.821 0,0 -1.708,-3.232 -1.292,0.739 M 1.774,-0.099 C 1.866,0.264 1.957,0.635 2.048,1.025 4.256,13.673 -2.872,4.991 -3.423,4.489 -4.524,3.256 -5.407,1.908 -6.118,0.515 -8.101,0.721 -9.386,0.891 -9.386,0.891 L -9.472,-0.39 c 0,0 1.065,-0.147 2.766,-0.331 -2.81,-6.465 -2.229,-13.427 -2.166,-14.101 -4.47,-8.238 -7.738,-3.918 -8.563,-2.824 -2.007,2.96 0.653,6.022 0.653,6.022 1.857,2.561 3.815,4.669 5.672,12.649 2.208,12.648 -4.919,3.966 -5.472,3.464 -6.58,-7.366 -5.494,-18.86 -5.443,-19.355 -0.008,-0.015 -0.016,-0.028 -0.024,-0.044 -0.676,-1.242 -1.318,-2.198 -1.925,-2.92 -1.513,-1.802 -2.804,-2.152 -3.836,-1.9 -0.44,0.109 -0.833,0.325 -1.174,0.584 -0.659,0.501 -1.129,1.161 -1.384,1.5 -2.009,2.96 0.652,6.022 0.652,6.022 1.857,2.561 3.814,4.669 5.672,12.649 2.209,12.648 -4.919,3.966 -5.472,3.464 -6.725,-7.529 -5.441,-19.379 -5.441,-19.379 -6.296,-4.691 -9.63,-5.185 -9.63,-5.185 2.839,-1.358 9.754,3.579 9.754,3.579 1.321,-5.124 3.58,-6.295 3.58,-6.295 3.935,-2.927 9.126,5.103 9.467,5.635 1.664,-4.782 3.466,-5.635 3.466,-5.635 4.892,-3.382 9.378,5.051 9.699,5.614 1.25,-4.08 3.459,-5.614 3.459,-5.614 4.258,-3.292 9.628,6.094 9.628,6.094 l -0.007,1.467 c -4.749,-8.535 -8.188,-3.148 -8.736,-2.416 -2.008,2.96 0.652,6.022 0.652,6.022 1.656,2.281 3.391,4.208 5.063,10.249 1.729,-0.084 3.516,-0.131 5.234,-0.108 0.002,0.364 0.031,1.17 0.069,1.281 -1.604,-0.021 -3.3,0.024 -4.967,0.103 m 4.967,-0.103 h 0.018 c -0.006,0.019 -0.012,0.016 -0.018,0" /></g><g
           transform="translate(12.75,57.8281)"
           id="g24"><path
             id="path26"
             style="fill:#dd2166;fill-opacity:1;fill-rule:nonzero;stroke:none"
             d="m 0,0 c 0,-0.719 -0.582,-1.301 -1.3,-1.301 -0.719,0 -1.301,0.582 -1.301,1.301 0,0.72 0.582,1.301 1.301,1.301 C -0.582,1.301 0,0.72 0,0" /></g></g></g><g
       id="g28"><g
         clip-path="url(#clipPath34)"
         id="g30"><g
           transform="translate(85.165,81.9634)"
           id="g36"><path
             id="path38"
             style="fill:#231916;fill-opacity:1;fill-rule:nonzero;stroke:none"
             d="m 0,0 c -0.011,-3.038 -0.08,-5.481 -0.208,-7.33 -0.127,-1.848 -0.304,-2.992 -0.531,-3.432 -0.227,-0.44 -0.527,-0.751 -0.9,-0.934 -0.374,-0.182 -1.208,-0.274 -2.503,-0.274 -0.387,0 -0.764,0.009 -1.129,0.025 l -0.581,1.577 c 0.559,-0.033 1.499,-0.049 2.822,-0.049 0.216,0 0.408,0.058 0.577,0.174 0.169,0.116 0.286,0.263 0.353,0.44 0.066,0.177 0.146,0.815 0.241,1.913 0.094,1.098 0.16,2.196 0.199,3.291 l 0.091,3.138 H -6.5 c -0.16,-2.689 -0.731,-4.81 -1.713,-6.362 -0.983,-1.553 -2.553,-2.938 -4.711,-4.155 l -1.021,1.253 c 1.593,0.769 2.931,1.813 4.013,3.13 1.082,1.317 1.717,3.362 1.905,6.134 h -5.387 V 0 h 5.47 c 0.067,0.885 0.091,1.862 0.075,2.93 h 1.56 C -6.309,2.089 -6.342,1.112 -6.408,0 Z" /></g><g
           transform="translate(101.0063,80.2119)"
           id="g40"><path
             id="path42"
             style="fill:#231916;fill-opacity:1;fill-rule:nonzero;stroke:none"
             d="m 0,0 -1.361,-0.216 c -0.205,0.565 -0.396,1.024 -0.573,1.378 l 1.378,0.216 C -0.296,0.858 -0.111,0.398 0,0 m 0.241,-3.735 h -2.382 v -0.888 h 2.382 z m 1.784,3.569 H 0.647 V 1.685 H -2.565 V 0.017 h -1.361 v 2.656 h 5.951 z m 0.557,3.437 h -6.865 v 1.121 h 6.865 z m -6.135,-7.006 h -2.416 v -0.888 h 2.416 z m 0,1.884 h -2.416 v -0.797 h 2.416 z m -3.926,1.909 -1.444,-0.191 c -0.172,0.592 -0.349,1.046 -0.532,1.362 l 1.453,0.199 c 0.249,-0.482 0.423,-0.938 0.523,-1.37 m 0.083,-3.793 h -2.391 v -0.888 h 2.391 z m 0,1.884 h -2.391 v -0.797 h 2.391 z m 1.976,1.868 h -1.362 v 1.685 h -3.279 v -1.835 h -1.394 v 2.806 h 6.035 z m 0.39,3.254 h -6.923 V 4.392 H -5.03 Z M 2.723,-8.442 C 2.59,-9.145 2.404,-9.618 2.167,-9.861 1.929,-10.105 1.569,-10.227 1.087,-10.227 h -3.345 c -0.437,0 -0.762,0.133 -0.975,0.399 -0.213,0.265 -0.32,0.595 -0.32,0.988 v 3.179 h -3.992 v -0.88 h 3.312 v -1.154 h -3.312 v -1.054 c 1.067,0.1 2.194,0.307 3.378,0.623 L -4.15,-9.43 c -1.611,-0.393 -3.146,-0.677 -4.607,-0.855 l -0.374,1.129 c 0.116,0.177 0.174,0.385 0.174,0.623 v 2.872 h -0.888 c -0.105,-2.081 -0.501,-3.644 -1.187,-4.69 l -1.203,0.921 c 0.664,1.257 0.996,2.917 0.996,4.981 v 3.702 h 5.868 c -0.066,0.149 -0.163,0.31 -0.29,0.481 L -4.2,0.125 c 0.21,-0.271 0.398,-0.562 0.564,-0.872 h 6.342 v -1.104 h -4.848 v -0.797 h 3.81 v -3.013 h -3.81 v -0.88 H 1.395 V -7.695 H -2.142 V -8.6 c 0,-0.077 0.034,-0.156 0.1,-0.236 0.066,-0.081 0.136,-0.121 0.208,-0.121 h 2.598 c 0.204,0 0.344,0.085 0.419,0.253 0.075,0.169 0.14,0.436 0.195,0.802 z" /></g><g
           transform="translate(118.0928,81.4404)"
           id="g44"><path
             id="path46"
             style="fill:#231916;fill-opacity:1;fill-rule:nonzero;stroke:none"
             d="m 0,0 -1.021,-1.104 c -0.952,1.074 -1.954,2.003 -3.005,2.789 l 1.054,1.071 C -1.837,1.876 -0.847,0.958 0,0 m -0.241,-4.117 -1.021,-1.137 c -0.714,0.913 -1.773,1.887 -3.179,2.921 l 0.988,1.104 c 1.372,-1.012 2.443,-1.975 3.212,-2.888 m 3.827,-3.022 -1.578,-0.24 v -4.076 H 0.506 v 3.885 l -5.113,-0.689 -0.133,1.494 5.246,0.714 v 9.413 h 1.502 v -9.214 l 1.528,0.191 z M -4.233,2.258 C -5.008,1.998 -5.847,1.796 -6.749,1.652 v -2.2 h 2.142 v -1.428 h -2.142 v -0.473 c 0.892,-0.929 1.649,-1.892 2.275,-2.888 l -1.054,-1.121 c -0.404,0.808 -0.811,1.497 -1.221,2.067 v -7.031 h -1.477 v 6.732 c -0.792,-1.544 -1.558,-2.673 -2.299,-3.387 l -0.864,1.345 c 1.184,1.195 2.211,2.781 3.08,4.756 h -2.914 v 1.428 h 2.997 V 1.411 C -8.945,1.3 -9.701,1.22 -10.492,1.17 l -0.639,1.378 c 2.163,0.105 4.219,0.435 6.167,0.988 z" /></g><g
           transform="translate(137.1465,77.5972)"
           id="g48"><path
             id="path50"
             style="fill:#231916;fill-opacity:1;fill-rule:nonzero;stroke:none"
             d="m 0,0 h -4.176 c 0.42,-1.267 1.071,-2.402 1.951,-3.403 C -1.301,-2.474 -0.559,-1.339 0,0 M 2.539,-6.475 1.668,-7.753 C 0.063,-7.05 -1.262,-6.267 -2.309,-5.404 -3.525,-6.317 -4.98,-7.1 -6.674,-7.753 l -0.838,1.361 c 1.637,0.554 3.016,1.224 4.133,2.009 -0.945,1.041 -1.752,2.502 -2.416,4.383 h -0.58 v 1.428 h 3.369 v 2.208 h -3.601 v 1.427 h 3.601 v 2.159 h 1.527 V 5.063 H 2.092 V 3.636 H -1.479 V 1.428 H 1.668 V 0 C 0.877,-1.904 -0.07,-3.375 -1.17,-4.416 -0.236,-5.191 1.002,-5.877 2.539,-6.475 M -6.932,-0.34 C -7.574,-0.639 -8.163,-0.888 -8.7,-1.087 v -4.931 c 0,-0.487 -0.119,-0.863 -0.357,-1.129 -0.237,-0.266 -0.636,-0.403 -1.195,-0.411 -0.559,-0.008 -1.04,-0.004 -1.444,0.013 l -0.473,1.477 c 0.597,-0.022 1.112,-0.033 1.544,-0.033 0.105,0 0.206,0.048 0.302,0.145 0.097,0.097 0.146,0.206 0.146,0.328 v 3.976 c -0.625,-0.221 -1.273,-0.418 -1.943,-0.589 l -0.406,1.394 c 1.063,0.321 1.845,0.581 2.349,0.781 V 3.08 h -2.158 v 1.444 h 2.158 V 7.28 H -8.7 V 4.524 h 1.561 V 3.08 H -8.7 V 0.523 c 0.443,0.144 0.93,0.349 1.462,0.614 z" /></g><g
           transform="translate(154.6738,76.3936)"
           id="g52"><path
             id="path54"
             style="fill:#231916;fill-opacity:1;fill-rule:nonzero;stroke:none"
             d="M 0,0 H -3.479 C -3.014,-1.134 -2.443,-2.003 -1.77,-2.606 -1.006,-1.754 -0.416,-0.885 0,0 M 2.689,2.357 H 0.273 c -0.332,0 -0.601,0.12 -0.81,0.357 -0.207,0.238 -0.311,0.512 -0.311,0.822 V 6.607 H -3.213 V 5.844 c 0,-1.699 -0.549,-3.025 -1.644,-3.976 l -1.245,0.971 c 0.918,0.686 1.377,1.704 1.377,3.055 V 8.052 H 0.631 V 4.026 c 0,-0.183 0.09,-0.274 0.273,-0.274 H 2.689 Z M 2.863,-5.155 2.107,-6.45 c -1.41,0.354 -2.724,0.985 -3.943,1.893 -0.978,-0.731 -2.191,-1.361 -3.635,-1.893 l -0.83,1.295 c 1.223,0.36 2.321,0.88 3.295,1.561 C -3.842,-2.709 -4.533,-1.511 -5.08,0 H -5.828 V 1.428 H 1.717 V 0 C 0.998,-1.505 0.207,-2.678 -0.656,-3.52 0.313,-4.211 1.484,-4.756 2.863,-5.155 M -7.953,1.851 V 2.822 L -8.957,2.067 C -9.107,2.714 -9.4,3.453 -9.838,4.283 v -4.764 c 0.703,0.735 1.332,1.513 1.885,2.332 m 0,1.395 V 6.699 H -9.838 V 4.773 l 0.863,0.631 c 0.45,-0.792 0.789,-1.511 1.022,-2.158 m 1.445,-8.21 c 0,-0.957 -0.556,-1.436 -1.67,-1.436 -0.242,0 -0.498,0.014 -0.763,0.042 l -0.555,1.494 c 0.203,-0.011 0.639,-0.017 1.303,-0.017 0.16,0 0.24,0.078 0.24,0.233 v 4.1 c -0.52,-0.653 -0.985,-1.198 -1.395,-1.635 l -0.506,0.855 c -0.171,-2.38 -0.535,-4.087 -1.087,-5.122 l -1.229,0.955 c 0.592,1.311 0.889,3.187 0.889,5.628 v 8.043 h 4.773 z" /></g><g
           transform="translate(175.3867,79.7554)"
           id="g56"><path
             id="path58"
             style="fill:#231916;fill-opacity:1;fill-rule:nonzero;stroke:none"
             d="m 0,0 -0.988,-1.378 -0.34,0.257 c 0.01,-0.625 -0.047,-1.957 -0.174,-3.996 -0.129,-2.04 -0.242,-3.234 -0.346,-3.582 -0.101,-0.349 -0.306,-0.626 -0.613,-0.83 -0.309,-0.205 -0.76,-0.307 -1.357,-0.307 -0.344,0 -0.909,0.008 -1.694,0.024 l -0.39,1.47 c 0.558,-0.045 0.988,-0.067 1.287,-0.067 0.697,0 1.113,0.067 1.248,0.2 0.137,0.132 0.248,1.009 0.338,2.631 0.088,1.621 0.133,2.711 0.133,3.27 h -2.567 c -0.176,-3.497 -1.66,-6.026 -4.449,-7.587 l -1.02,1.212 c 2.446,1.234 3.76,3.359 3.942,6.375 h -2.739 v 1.32 c -0.105,-0.105 -0.257,-0.219 -0.457,-0.34 l -0.904,1.278 c 1.367,1.157 2.453,2.861 3.262,5.113 l 1.553,-0.39 C -7.238,2.261 -8.326,0.42 -9.537,-0.847 h 7.902 c -1.179,1.151 -2.056,2.579 -2.633,4.284 h -1.394 v 1.444 h 2.549 C -2.588,2.667 -1.551,1.041 0,0 m -10.02,4.881 c -0.181,-0.52 -0.466,-1.217 -0.855,-2.092 L -11.463,1.494 V -9.812 h -1.545 v 8.691 c -0.453,-0.658 -0.875,-1.178 -1.262,-1.56 l -0.812,1.594 c 1.498,1.71 2.666,3.807 3.502,6.292 z" /></g><path
           id="path60"
           style="fill:#231916;fill-opacity:1;fill-rule:nonzero;stroke:none"
           d="m 190.355,76.169 h -7.404 v -1.328 h 7.404 z m 0,2.723 h -7.404 v -1.345 h 7.404 z m 2.708,2.905 h -8.26 c -0.223,-0.448 -0.518,-0.935 -0.889,-1.461 h 7.977 v -9.114 c 0,-0.376 -0.1,-0.667 -0.303,-0.871 -0.201,-0.205 -0.508,-0.313 -0.916,-0.324 -0.41,-0.011 -0.815,-0.017 -1.213,-0.017 -0.637,0 -1.16,0.009 -1.568,0.025 l -0.657,1.511 c 0.719,-0.033 1.641,-0.05 2.764,-0.05 0.238,0 0.357,0.13 0.357,0.39 v 1.561 h -7.578 c -0.289,-1.201 -0.877,-2.344 -1.767,-3.428 l -1.446,0.813 c 1.223,1.339 1.834,2.593 1.834,3.76 v 2.731 c -0.752,-0.785 -1.494,-1.414 -2.224,-1.884 l -1.086,1.154 c 2.029,1.372 3.668,3.107 4.914,5.204 h -4.732 v 1.478 h 5.529 c 0.359,0.636 0.619,1.198 0.779,1.685 l 1.568,-0.257 c -0.142,-0.432 -0.341,-0.908 -0.597,-1.428 h 7.514 z" /><g
           transform="translate(211.0293,71.1392)"
           id="g62"><path
             id="path64"
             style="fill:#231916;fill-opacity:1;fill-rule:nonzero;stroke:none"
             d="m 0,0 -0.863,-1.245 c -2.414,1.461 -3.994,3.616 -4.741,6.466 l 1.37,0.424 c 0.205,-0.726 0.457,-1.367 0.755,-1.926 0.737,0.531 1.456,1.212 2.159,2.042 L -0.232,4.773 C -1.074,3.755 -1.896,2.955 -2.699,2.374 -1.984,1.45 -1.086,0.659 0,0 M -2.467,9.164 H -7.031 V 7.645 h 4.564 z m 0,2.856 h -4.564 v -1.519 h 4.564 z m 1.52,-5.728 H -7.031 V 0.83 c 0.779,0.238 1.613,0.567 2.498,0.988 l 0.084,-1.586 c -1.533,-0.664 -2.815,-1.12 -3.844,-1.369 l -0.549,1.27 c 0.217,0.138 0.324,0.36 0.324,0.664 v 12.584 h 7.571 z m -9.762,2.241 c 0.947,-1.366 1.42,-2.659 1.42,-3.876 0,-1.589 -0.781,-2.383 -2.342,-2.383 -0.166,0 -0.346,0.006 -0.539,0.017 l -0.424,1.519 c 0.217,-0.039 0.469,-0.058 0.756,-0.058 0.399,0 0.67,0.055 0.815,0.166 0.142,0.111 0.214,0.332 0.214,0.664 0,1.251 -0.504,2.515 -1.509,3.793 0.32,0.792 0.711,1.971 1.17,3.537 h -1.868 V -1.154 h -1.461 v 14.585 h 4.905 v -1.519 c -0.366,-1.24 -0.744,-2.366 -1.137,-3.379" /></g><g
           transform="translate(228.9531,78.0869)"
           id="g66"><path
             id="path68"
             style="fill:#231916;fill-opacity:1;fill-rule:nonzero;stroke:none"
             d="M 0,0 -0.904,-1.336 C -3.008,0.152 -4.576,2.321 -5.611,5.171 H -6.99 v 1.445 h 2.467 C -3.656,3.716 -2.148,1.511 0,0 m -1.113,-7.255 -1.352,-0.938 c -0.316,0.742 -0.635,1.378 -0.955,1.909 -2.617,-0.614 -5.818,-1.175 -9.603,-1.685 l -0.442,1.295 c 1.455,1.051 3.16,3.935 5.113,8.65 l 1.545,-0.457 c -1.379,-3.226 -2.795,-5.799 -4.25,-7.72 2.551,0.294 4.842,0.695 6.873,1.204 -0.343,0.592 -0.933,1.45 -1.767,2.573 l 1.252,0.814 c 1.412,-1.771 2.607,-3.653 3.586,-5.645 M -8.691,6.325 C -9.799,3.332 -11.615,0.816 -14.145,-1.22 l -0.97,1.295 c 2.273,1.71 3.912,3.965 4.914,6.765 z" /></g><path
           id="path70"
           style="fill:#231916;fill-opacity:1;fill-rule:nonzero;stroke:none"
           d="m 240.545,77.323 h -5.836 v -2.922 h 5.836 z m 1.543,-4.333 h -8.889 v 5.728 h 8.889 z m 1.088,7.313 h -10.965 v 1.378 h 10.965 z m 2.929,-8.317 c 0,-1.323 -0.646,-1.984 -1.941,-1.984 -1.146,0 -1.984,0.011 -2.516,0.033 l -0.439,1.528 c 1.262,-0.028 2.139,-0.042 2.631,-0.042 0.486,0 0.73,0.144 0.73,0.432 v 11.189 h -12.716 v 1.395 h 14.251 z" /><g
           transform="translate(71.8784,56.7803)"
           id="g72"><path
             id="path74"
             style="fill:#231916;fill-opacity:1;fill-rule:nonzero;stroke:none"
             d="M 0,0 V 8.59 H 1.137 V 1.014 h 4.23 L 5.367,0 Z" /></g><g
           transform="translate(78.3228,56.7803)"
           id="g76"><path
             id="path78"
             style="fill:#231916;fill-opacity:1;fill-rule:nonzero;stroke:none"
             d="M 0,0 V 8.59 H 6.211 V 7.576 H 1.137 V 4.945 H 5.889 V 3.938 H 1.137 V 1.014 H 6.41 V 0 Z" /></g><g
           transform="translate(87.5381,60.3076)"
           id="g80"><path
             id="path82"
             style="fill:#231916;fill-opacity:1;fill-rule:nonzero;stroke:none"
             d="M 0,0 H 2.912 L 2.016,2.379 C 1.742,3.102 1.539,3.695 1.406,4.16 1.297,3.609 1.143,3.063 0.943,2.52 Z m -2.479,-3.527 3.299,8.59 h 1.225 l 3.516,-8.59 H 4.266 l -1.002,2.601 h -3.592 l -0.943,-2.601 z" /></g><g
           transform="translate(93.6602,56.7803)"
           id="g84"><path
             id="path86"
             style="fill:#231916;fill-opacity:1;fill-rule:nonzero;stroke:none"
             d="M 0,0 V 8.59 H 1.137 V 1.014 h 4.23 L 5.367,0 Z" /></g><g
           transform="translate(100.104,56.7803)"
           id="g88"><path
             id="path90"
             style="fill:#231916;fill-opacity:1;fill-rule:nonzero;stroke:none"
             d="M 0,0 V 8.59 H 6.211 V 7.576 H 1.137 V 4.945 H 5.889 V 3.938 H 1.137 V 1.014 H 6.41 V 0 Z" /></g><g
           transform="translate(109.3198,60.3076)"
           id="g92"><path
             id="path94"
             style="fill:#231916;fill-opacity:1;fill-rule:nonzero;stroke:none"
             d="M 0,0 H 2.912 L 2.016,2.379 C 1.742,3.102 1.539,3.695 1.406,4.16 1.297,3.609 1.143,3.063 0.943,2.52 Z m -2.479,-3.527 3.299,8.59 h 1.225 l 3.516,-8.59 H 4.266 l -1.002,2.601 h -3.592 l -0.943,-2.601 z" /></g><g
           transform="translate(119.8291,56.7803)"
           id="g96"><path
             id="path98"
             style="fill:#231916;fill-opacity:1;fill-rule:nonzero;stroke:none"
             d="M 0,0 V 7.576 H -2.83 V 8.59 H 3.979 V 7.576 H 1.137 V 0 Z" /></g><g
           transform="translate(124.6973,56.7803)"
           id="g100"><path
             id="path102"
             style="fill:#231916;fill-opacity:1;fill-rule:nonzero;stroke:none"
             d="M 0,0 V 8.59 H 6.211 V 7.576 H 1.137 V 4.945 H 5.889 V 3.938 H 1.137 V 1.014 H 6.41 V 0 Z" /></g><g
           transform="translate(138.5059,59.792)"
           id="g104"><path
             id="path106"
             style="fill:#231916;fill-opacity:1;fill-rule:nonzero;stroke:none"
             d="M 0,0 1.137,-0.287 C 0.898,-1.221 0.47,-1.933 -0.149,-2.423 c -0.62,-0.49 -1.376,-0.735 -2.271,-0.735 -0.926,0 -1.679,0.188 -2.259,0.565 -0.58,0.377 -1.021,0.923 -1.324,1.638 -0.303,0.715 -0.454,1.482 -0.454,2.303 0,0.894 0.171,1.674 0.513,2.34 0.341,0.666 0.828,1.172 1.459,1.518 0.631,0.346 1.325,0.519 2.083,0.519 0.859,0 1.582,-0.219 2.168,-0.657 C 0.352,4.631 0.76,4.016 0.99,3.223 L -0.129,2.959 c -0.199,0.625 -0.488,1.08 -0.867,1.365 -0.379,0.285 -0.856,0.428 -1.43,0.428 -0.66,0 -1.212,-0.158 -1.655,-0.475 C -4.524,3.961 -4.836,3.536 -5.016,3.003 -5.195,2.47 -5.285,1.92 -5.285,1.354 c 0,-0.731 0.106,-1.369 0.319,-1.914 0.213,-0.544 0.544,-0.952 0.993,-1.221 0.45,-0.27 0.936,-0.405 1.459,-0.405 0.637,0 1.176,0.184 1.618,0.551 C -0.455,-1.268 -0.156,-0.723 0,0" /></g><g
           transform="translate(140.7783,56.7803)"
           id="g108"><path
             id="path110"
             style="fill:#231916;fill-opacity:1;fill-rule:nonzero;stroke:none"
             d="M 0,0 V 8.59 H 1.137 V 5.063 H 5.602 V 8.59 H 6.738 V 0 H 5.602 V 4.049 H 1.137 V 0 Z" /></g><g
           transform="translate(149.0977,56.7803)"
           id="g112"><path
             id="path114"
             style="fill:#231916;fill-opacity:1;fill-rule:nonzero;stroke:none"
             d="M 0,0 V 8.59 H 1.166 L 5.678,1.846 V 8.59 h 1.09 V 0 H 5.602 L 1.09,6.75 V 0 Z" /></g><g
           transform="translate(158.3018,60.9463)"
           id="g116"><path
             id="path118"
             style="fill:#231916;fill-opacity:1;fill-rule:nonzero;stroke:none"
             d="M 0,0 C 0,-1.035 0.278,-1.851 0.835,-2.446 1.392,-3.042 2.09,-3.34 2.93,-3.34 c 0.855,0 1.559,0.301 2.112,0.902 0.553,0.602 0.829,1.456 0.829,2.561 0,0.699 -0.118,1.31 -0.354,1.831 C 5.28,2.476 4.935,2.88 4.479,3.167 4.024,3.454 3.514,3.598 2.947,3.598 2.143,3.598 1.45,3.321 0.87,2.769 0.29,2.216 0,1.293 0,0 m -1.172,0.018 c 0,1.425 0.383,2.542 1.149,3.348 0.765,0.807 1.753,1.21 2.964,1.21 0.793,0 1.508,-0.189 2.145,-0.568 C 5.723,3.629 6.208,3.101 6.542,2.423 6.876,1.745 7.043,0.977 7.043,0.117 7.043,-0.754 6.867,-1.533 6.516,-2.221 6.164,-2.908 5.666,-3.429 5.021,-3.782 4.377,-4.136 3.682,-4.313 2.936,-4.313 c -0.809,0 -1.532,0.196 -2.168,0.586 -0.637,0.391 -1.12,0.924 -1.448,1.6 -0.328,0.676 -0.492,1.391 -0.492,2.145" /></g><g
           transform="translate(166.4619,56.7803)"
           id="g120"><path
             id="path122"
             style="fill:#231916;fill-opacity:1;fill-rule:nonzero;stroke:none"
             d="M 0,0 V 8.59 H 1.137 V 1.014 h 4.23 L 5.367,0 Z" /></g><g
           transform="translate(173.709,60.9463)"
           id="g124"><path
             id="path126"
             style="fill:#231916;fill-opacity:1;fill-rule:nonzero;stroke:none"
             d="M 0,0 C 0,-1.035 0.278,-1.851 0.835,-2.446 1.392,-3.042 2.09,-3.34 2.93,-3.34 c 0.855,0 1.559,0.301 2.112,0.902 0.553,0.602 0.829,1.456 0.829,2.561 0,0.699 -0.118,1.31 -0.354,1.831 C 5.28,2.476 4.935,2.88 4.479,3.167 4.024,3.454 3.514,3.598 2.947,3.598 2.143,3.598 1.45,3.321 0.87,2.769 0.29,2.216 0,1.293 0,0 m -1.172,0.018 c 0,1.425 0.383,2.542 1.149,3.348 0.765,0.807 1.753,1.21 2.964,1.21 0.793,0 1.508,-0.189 2.145,-0.568 C 5.723,3.629 6.208,3.101 6.542,2.423 6.876,1.745 7.043,0.977 7.043,0.117 7.043,-0.754 6.867,-1.533 6.516,-2.221 6.164,-2.908 5.666,-3.429 5.021,-3.782 4.377,-4.136 3.682,-4.313 2.936,-4.313 c -0.809,0 -1.532,0.196 -2.168,0.586 -0.637,0.391 -1.12,0.924 -1.448,1.6 -0.328,0.676 -0.492,1.391 -0.492,2.145" /></g><g
           transform="translate(185.9365,60.1494)"
           id="g128"><path
             id="path130"
             style="fill:#231916;fill-opacity:1;fill-rule:nonzero;stroke:none"
             d="M 0,0 V 1.008 L 3.639,1.014 V -2.174 C 3.08,-2.619 2.504,-2.954 1.91,-3.179 1.316,-3.403 0.707,-3.516 0.082,-3.516 c -0.844,0 -1.61,0.181 -2.3,0.542 -0.689,0.362 -1.21,0.884 -1.561,1.568 -0.352,0.683 -0.528,1.447 -0.528,2.291 0,0.836 0.175,1.616 0.525,2.341 0.349,0.724 0.852,1.262 1.509,1.614 0.656,0.351 1.412,0.527 2.267,0.527 0.621,0 1.183,-0.1 1.685,-0.302 C 2.181,4.864 2.574,4.584 2.859,4.225 3.145,3.865 3.361,3.396 3.51,2.818 L 2.484,2.537 C 2.355,2.975 2.195,3.318 2.004,3.568 1.813,3.818 1.539,4.019 1.184,4.169 0.828,4.319 0.434,4.395 0,4.395 -0.52,4.395 -0.969,4.315 -1.348,4.157 -1.727,3.999 -2.032,3.791 -2.265,3.533 -2.497,3.275 -2.678,2.992 -2.807,2.684 -3.025,2.152 -3.135,1.576 -3.135,0.955 c 0,-0.766 0.132,-1.406 0.396,-1.922 0.263,-0.515 0.647,-0.898 1.151,-1.148 0.504,-0.25 1.039,-0.375 1.606,-0.375 0.492,0 0.972,0.094 1.441,0.284 0.469,0.189 0.824,0.392 1.066,0.606 V 0 Z" /></g><g
           transform="translate(193.3711,56.7803)"
           id="g132"><path
             id="path134"
             style="fill:#231916;fill-opacity:1;fill-rule:nonzero;stroke:none"
             d="M 0,0 V 3.639 L -3.311,8.59 h 1.383 L -0.234,6 C 0.078,5.516 0.369,5.031 0.639,4.547 0.896,4.996 1.209,5.502 1.576,6.064 L 3.24,8.59 H 4.564 L 1.137,3.639 V 0 Z" /></g><g
           transform="translate(207.6006,59.792)"
           id="g136"><path
             id="path138"
             style="fill:#231916;fill-opacity:1;fill-rule:nonzero;stroke:none"
             d="M 0,0 1.137,-0.287 C 0.898,-1.221 0.47,-1.933 -0.149,-2.423 c -0.62,-0.49 -1.376,-0.735 -2.271,-0.735 -0.926,0 -1.679,0.188 -2.259,0.565 -0.58,0.377 -1.021,0.923 -1.324,1.638 -0.303,0.715 -0.454,1.482 -0.454,2.303 0,0.894 0.171,1.674 0.513,2.34 0.341,0.666 0.828,1.172 1.459,1.518 0.631,0.346 1.325,0.519 2.083,0.519 0.859,0 1.582,-0.219 2.168,-0.657 C 0.352,4.631 0.76,4.016 0.99,3.223 L -0.129,2.959 c -0.199,0.625 -0.488,1.08 -0.867,1.365 -0.379,0.285 -0.856,0.428 -1.43,0.428 -0.66,0 -1.212,-0.158 -1.655,-0.475 C -4.524,3.961 -4.836,3.536 -5.016,3.003 -5.195,2.47 -5.285,1.92 -5.285,1.354 c 0,-0.731 0.106,-1.369 0.319,-1.914 0.213,-0.544 0.544,-0.952 0.993,-1.221 0.45,-0.27 0.936,-0.405 1.459,-0.405 0.637,0 1.176,0.184 1.618,0.551 C -0.455,-1.268 -0.156,-0.723 0,0" /></g><g
           transform="translate(210.6641,60.9463)"
           id="g140"><path
             id="path142"
             style="fill:#231916;fill-opacity:1;fill-rule:nonzero;stroke:none"
             d="M 0,0 C 0,-1.035 0.278,-1.851 0.835,-2.446 1.392,-3.042 2.09,-3.34 2.93,-3.34 c 0.855,0 1.559,0.301 2.112,0.902 0.553,0.602 0.829,1.456 0.829,2.561 0,0.699 -0.118,1.31 -0.354,1.831 C 5.28,2.476 4.935,2.88 4.479,3.167 4.024,3.454 3.514,3.598 2.947,3.598 2.143,3.598 1.45,3.321 0.87,2.769 0.29,2.216 0,1.293 0,0 m -1.172,0.018 c 0,1.425 0.383,2.542 1.149,3.348 0.765,0.807 1.753,1.21 2.964,1.21 0.793,0 1.508,-0.189 2.145,-0.568 C 5.723,3.629 6.208,3.101 6.542,2.423 6.876,1.745 7.043,0.977 7.043,0.117 7.043,-0.754 6.867,-1.533 6.516,-2.221 6.164,-2.908 5.666,-3.429 5.021,-3.782 4.377,-4.136 3.682,-4.313 2.936,-4.313 c -0.809,0 -1.532,0.196 -2.168,0.586 -0.637,0.391 -1.12,0.924 -1.448,1.6 -0.328,0.676 -0.492,1.391 -0.492,2.145" /></g><path
           id="path144"
           style="fill:#231916;fill-opacity:1;fill-rule:nonzero;stroke:none"
           d="m 219.036,57.981 h 1.201 V 56.78 h -1.201 z" /><g
           transform="translate(222.0469,56.7803)"
           id="g146"><path
             id="path148"
             style="fill:#231916;fill-opacity:1;fill-rule:nonzero;stroke:none"
             d="M 0,0 V 1.201 H 1.201 V 0 c 0,-0.441 -0.078,-0.798 -0.234,-1.069 -0.156,-0.272 -0.404,-0.482 -0.744,-0.63 l -0.293,0.451 c 0.222,0.098 0.386,0.241 0.492,0.431 0.105,0.189 0.164,0.462 0.176,0.817 z" /></g><g
           transform="translate(224.8936,56.7803)"
           id="g150"><path
             id="path152"
             style="fill:#231916;fill-opacity:1;fill-rule:nonzero;stroke:none"
             d="M 0,0 V 8.59 H 1.137 V 1.014 h 4.23 L 5.367,0 Z" /></g><g
           transform="translate(232.6084,56.7803)"
           id="g154"><path
             id="path156"
             style="fill:#231916;fill-opacity:1;fill-rule:nonzero;stroke:none"
             d="M 0,0 V 7.576 H -2.83 V 8.59 H 3.979 V 7.576 H 1.137 V 0 Z" /></g><g
           transform="translate(238.5898,57.7939)"
           id="g158"><path
             id="path160"
             style="fill:#231916;fill-opacity:1;fill-rule:nonzero;stroke:none"
             d="M 0,0 H 1.834 C 2.4,0 2.845,0.053 3.167,0.158 3.489,0.264 3.746,0.412 3.938,0.604 4.207,0.873 4.417,1.235 4.567,1.69 4.718,2.146 4.793,2.697 4.793,3.346 4.793,4.244 4.646,4.935 4.351,5.417 4.056,5.899 3.697,6.223 3.275,6.387 2.971,6.504 2.48,6.563 1.805,6.563 H 0 Z m -1.137,-1.014 v 8.59 H 1.822 C 2.49,7.576 3,7.535 3.352,7.453 3.844,7.34 4.264,7.135 4.611,6.838 5.064,6.455 5.403,5.966 5.628,5.37 5.853,4.774 5.965,4.094 5.965,3.328 5.965,2.676 5.889,2.098 5.736,1.594 5.584,1.09 5.389,0.673 5.15,0.343 4.912,0.013 4.651,-0.247 4.368,-0.437 4.085,-0.626 3.743,-0.77 3.343,-0.867 2.942,-0.965 2.482,-1.014 1.963,-1.014 Z" /></g><path
           id="path162"
           style="fill:#231916;fill-opacity:1;fill-rule:nonzero;stroke:none"
           d="m 245.983,57.981 h 1.201 V 56.78 h -1.201 z" /></g></g></g></svg>