<?xml version="1.0" encoding="UTF-8" standalone="no"?>
<svg
   xmlns:dc="http://purl.org/dc/elements/1.1/"
   xmlns:cc="http://creativecommons.org/ns#"
   xmlns:rdf="http://www.w3.org/1999/02/22-rdf-syntax-ns#"
   xmlns:svg="http://www.w3.org/2000/svg"
   xmlns="http://www.w3.org/2000/svg"
   viewBox="0 0 895.02667 133.13333"
   height="133.13333"
   width="895.02667"
   xml:space="preserve"
   id="svg2"
   version="1.1"><metadata
     id="metadata8"><rdf:RDF><cc:Work
         rdf:about=""><dc:format>image/svg+xml</dc:format><dc:type
           rdf:resource="http://purl.org/dc/dcmitype/StillImage" /><dc:title></dc:title></cc:Work></rdf:RDF></metadata><defs
     id="defs6" /><g
     transform="matrix(1.3333333,0,0,-1.3333333,0,133.13333)"
     id="g10"><g
       transform="scale(0.1)"
       id="g12"><path
         id="path14"
         style="fill:#484b57;fill-opacity:1;fill-rule:nonzero;stroke:none"
         d="m 5178.52,438.949 v 0 l -60.81,159.649 c -6.36,21.871 -15.06,45.937 -23.75,74.355 -4.35,-21.859 -11,-45.902 -21.7,-74.355 l -58.81,-159.649 z m 82.85,-216.504 v 0 l -65.46,164.032 h -204.19 l -62.84,-164.032 h -60.83 l 201.88,516.114 h 50.1 l 202.15,-516.114 h -60.81" /><path
         id="path16"
         style="fill:#484b57;fill-opacity:1;fill-rule:nonzero;stroke:none"
         d="m 5543.75,616.094 v 0 c 17.36,0 32.43,-2.207 47.78,-4.375 l -8.67,-54.696 c -15.37,4.407 -30.42,4.407 -41.43,4.407 -32.42,0 -58.5,-10.957 -80.23,-37.172 -21.72,-26.238 -32.73,-56.875 -32.73,-94.059 V 222.445 h -58.49 v 384.91 h 47.78 l 6.36,-69.988 h 2.33 c 15.06,24.063 32.44,43.766 52.14,56.836 19.41,15.332 41.13,21.891 65.16,21.891" /><path
         id="path18"
         style="fill:#484b57;fill-opacity:1;fill-rule:nonzero;stroke:none"
         d="m 5817.44,565.813 v 0 c -39.09,0 -67.18,-10.958 -84.58,-35.028 -17.35,-21.855 -26.07,-61.234 -26.07,-115.89 0,-54.668 8.72,-91.856 26.07,-115.899 17.4,-24.07 47.82,-35.008 86.89,-35.008 36.8,0 62.86,13.145 80.23,39.356 17.39,26.258 26.07,63.437 26.07,113.746 0,50.293 -8.68,87.473 -26.07,111.515 -17.37,24.043 -45.47,37.208 -82.54,37.208 z m 8.69,48.074 v 0 c 50.1,0 91.24,-17.477 117.31,-50.282 28.37,-35 43.72,-85.265 43.72,-148.71 0,-63.426 -15.35,-111.551 -43.72,-146.524 -28.1,-34.988 -67.21,-52.48 -117.31,-52.48 -23.74,0 -47.78,4.355 -67.2,13.117 -21.72,8.75 -39.09,24.051 -52.14,41.543 h -4.33 l -13.03,-48.106 H 5648 v 548.914 h 58.79 V 637.953 c 0,-30.598 -2.3,-56.82 -2.3,-80.93 h 2.3 c 26.07,39.387 67.21,56.864 119.34,56.864" /><path
         id="path20"
         style="fill:#484b57;fill-opacity:1;fill-rule:nonzero;stroke:none"
         d="m 6113.16,414.895 v 0 c 0,-48.114 8.68,-85.293 28.09,-111.551 19.68,-26.211 50.09,-39.356 86.89,-39.356 39.07,0 67.47,13.145 86.88,39.356 19.7,24.082 30.4,63.437 30.4,111.551 0,50.304 -10.7,87.492 -30.4,111.535 -19.41,26.218 -49.83,39.383 -86.88,39.383 -39.12,0 -67.21,-13.165 -86.89,-37.208 -19.41,-26.218 -28.09,-63.406 -28.09,-113.71 z m 291.05,0 v 0 c 0,-63.426 -15.06,-111.551 -45.47,-146.524 -32.71,-34.988 -76.16,-52.48 -132.63,-52.48 -32.74,0 -63.14,6.554 -91.25,24.035 -26.05,15.332 -45.75,39.375 -60.82,70 -15.35,28.437 -21.7,65.586 -21.7,104.969 0,63.445 15.03,113.71 47.78,148.71 30.39,34.993 73.86,52.489 130.32,52.489 52.14,0 95.59,-19.684 125.98,-54.664 32.73,-35 47.79,-85.297 47.79,-146.535" /><path
         id="path22"
         style="fill:#484b57;fill-opacity:1;fill-rule:nonzero;stroke:none"
         d="m 6667.2,616.094 v 0 c 17.38,0 32.45,-2.207 45.48,-4.375 l -6.38,-54.696 c -17.39,4.407 -30.42,4.407 -43.47,4.407 -30.39,0 -56.46,-10.957 -78.18,-37.172 -24.02,-26.238 -34.75,-56.875 -34.75,-94.059 V 222.445 h -56.48 v 384.91 h 47.78 l 6.38,-69.988 h 2.32 c 15.05,24.063 32.43,43.766 52.12,56.836 19.42,15.332 41.14,21.891 65.18,21.891" /><path
         id="path24"
         style="fill:#484b57;fill-opacity:1;fill-rule:nonzero;stroke:none"
         d="m 411.086,998.453 v 0 h -34.785 c -19.551,0 -30.41,-10.93 -30.41,-30.598 V 620.121 L 111.199,978.773 c -8.691,15.301 -21.7381,19.68 -39.1131,19.68 H 30.793 c -21.72269,0 -30.421906,-10.93 -30.421906,-30.598 V 475.773 c 0,-21.863 8.699216,-32.812 30.421906,-32.812 h 34.7734 c 21.7305,0 32.5859,10.949 32.5859,32.812 V 830.07 L 332.828,464.836 c 8.715,-15.293 19.574,-21.875 36.949,-21.875 h 41.309 c 21.723,0 32.582,10.949 32.582,32.812 v 492.082 c 0,19.668 -10.859,30.598 -32.582,30.598" /><path
         id="path26"
         style="fill:#484b57;fill-opacity:1;fill-rule:nonzero;stroke:none"
         d="m 882.613,530.473 v 0 H 650.117 v 155.261 h 162.965 c 21.723,0 32.582,10.911 32.582,30.598 v 21.863 c 0,21.887 -10.859,32.813 -32.582,32.813 H 650.117 v 142.148 h 219.465 c 19.555,0 32.586,10.949 32.586,32.813 v 21.886 c 0,19.668 -13.031,30.598 -32.586,30.598 H 584.918 c -21.727,0 -32.613,-10.93 -32.613,-30.598 V 475.773 c 0,-21.863 10.886,-32.812 32.613,-32.812 h 297.695 c 19.555,0 30.422,10.949 30.422,32.812 v 21.868 c 0,21.894 -10.867,32.832 -30.422,32.832" /><path
         id="path28"
         style="fill:#484b57;fill-opacity:1;fill-rule:nonzero;stroke:none"
         d="m 1412.84,998.453 v 0 h -388.98 c -21.73,0 -32.602,-10.93 -32.602,-30.598 v -21.886 c 0,-21.864 10.872,-32.813 32.602,-32.813 h 145.61 V 475.773 c 0,-21.863 10.85,-32.812 30.4,-32.812 h 34.79 c 21.72,0 32.58,10.949 32.58,32.812 v 437.383 h 145.6 c 21.71,0 32.57,10.949 32.57,32.813 v 21.886 c 0,19.668 -10.86,30.598 -32.57,30.598" /><path
         id="path30"
         style="fill:#484b57;fill-opacity:1;fill-rule:nonzero;stroke:none"
         d="m 1597.53,845.383 v 0 c 0,37.18 32.61,63.43 84.77,63.43 41.27,0 71.68,-17.512 93.43,-30.657 15.21,-8.73 32.58,-13.113 43.44,10.957 l 13.06,24.043 c 10.87,17.5 8.69,32.813 -8.72,43.75 -23.89,17.5 -76.05,41.547 -141.21,41.547 -102.15,0 -182.55,-61.242 -182.55,-157.473 0,-170.585 254.23,-148.722 254.23,-253.683 0,-37.156 -30.41,-61.238 -82.58,-61.238 -52.12,0 -91.25,26.257 -108.63,39.375 -19.55,10.925 -32.61,10.925 -45.65,-6.563 l -17.37,-26.23 c -15.21,-19.688 -6.52,-32.793 4.34,-43.731 28.27,-21.894 91.26,-54.68 167.31,-54.68 115.19,0 180.38,72.168 180.38,161.829 0,172.781 -254.25,146.531 -254.25,249.324" /><path
         id="path32"
         style="fill:#484b57;fill-opacity:1;fill-rule:nonzero;stroke:none"
         d="m 2375.48,567.629 v 0 c -13.02,17.492 -28.27,17.492 -43.47,4.387 -26.07,-17.512 -73.88,-48.125 -134.74,-48.125 -117.32,0 -182.52,94.031 -182.52,196.843 0,100.579 63.02,188.079 182.52,188.079 56.5,0 97.81,-24.063 121.7,-39.387 19.55,-10.965 34.78,-8.758 43.49,8.73 l 15.19,21.875 c 10.86,17.5 8.7,32.813 -6.52,43.762 -28.27,21.875 -89.09,54.66 -178.2,54.66 -165.14,0 -280.29,-120.297 -280.29,-279.914 0,-161.867 110.8,-284.309 282.45,-284.309 95.64,0 160.84,41.543 191.26,67.786 15.19,13.113 15.19,28.457 4.34,43.738 l -15.21,21.875" /><path
         id="path34"
         style="fill:#484b57;fill-opacity:1;fill-rule:nonzero;stroke:none"
         d="m 3499.02,998.453 v 0 h -34.76 c -21.72,0 -32.74,-10.93 -32.74,-30.598 V 639.797 c 0,-74.363 -47.77,-115.906 -119.6,-115.906 -73.86,0 -121.65,41.543 -121.65,115.906 v 328.058 c 0,19.668 -10.71,30.598 -30.4,30.598 h -34.76 c -21.72,0 -32.44,-10.93 -32.44,-30.598 V 639.797 c 0,-122.469 86.89,-205.567 219.25,-205.567 130.62,0 219.53,83.098 219.53,205.567 v 328.058 c 0,19.668 -10.72,30.598 -32.43,30.598" /><path
         id="path36"
         style="fill:#484b57;fill-opacity:1;fill-rule:nonzero;stroke:none"
         d="m 4026.98,998.453 v 0 h -391.27 c -21.72,0 -32.45,-10.93 -32.45,-30.598 v -21.886 c 0,-21.864 10.73,-32.813 32.45,-32.813 H 3781.4 V 475.773 c 0,-21.863 11,-32.812 32.72,-32.812 h 34.75 c 19.41,0 30.42,10.949 30.42,32.812 v 437.383 h 147.69 c 19.43,0 30.43,10.949 30.43,32.813 v 21.886 c 0,19.668 -11,30.598 -30.43,30.598" /><path
         id="path38"
         style="fill:#79ca35;fill-opacity:1;fill-rule:nonzero;stroke:none"
         d="m 2723.15,998.453 v 0 h -212.92 c -23.94,0 -45.66,-19.68 -45.66,-43.734 0,-26.239 21.72,-45.906 45.66,-45.906 h 202.05 c 0,0 0,0 -2.18,0 4.34,0 8.71,0 13.05,0 104.31,0 180.39,-83.118 180.39,-188.079 0,-111.543 -76.08,-196.843 -180.39,-196.843 -104.3,0 -178.18,85.3 -178.18,196.843 0,65.586 28.23,122.442 76.05,155.246 -2.17,0 -2.17,0 -2.17,0 h -65.19 c -19.56,0 -36.92,13.133 -43.43,32.833 -43.5,-50.352 -67.39,-115.938 -67.39,-188.079 0,-161.863 115.16,-286.504 280.31,-286.504 165.17,0 280.31,124.641 280.31,286.504 0,155.246 -115.14,277.719 -280.31,277.719" /><path
         id="path40"
         style="fill:#639c3d;fill-opacity:1;fill-rule:nonzero;stroke:none"
         d="m 2553.66,875.98 v 0 h 65.19 c 0,0 0,0 2.17,0 23.89,19.688 56.5,30.633 89.08,32.833 2.18,0 2.18,0 2.18,0 h -202.05 c 6.51,-19.7 23.87,-32.833 43.43,-32.833" /><path
         id="path42"
         style="fill:none;stroke:#484b57;stroke-width:15.26790047;stroke-linecap:butt;stroke-linejoin:miter;stroke-miterlimit:10;stroke-dasharray:none;stroke-opacity:1"
         d="m 4511.53,989.711 v 0 V 2.26953" /><path
         id="path44"
         style="fill:#80cc2d;fill-opacity:1;fill-rule:nonzero;stroke:none"
         d="m 2511.17,907.914 -0.01,-0.019 v -0.012 c 0.01,0.004 0.02,0.019 0.02,0.019 l -0.01,0.012" /><path
         id="path46"
         style="fill:#6c9849;fill-opacity:1;fill-rule:nonzero;stroke:none"
         d="m 2554.46,875.125 h 63.7 c 0.67,0.488 1.45,0.93 2.13,1.406 25.48,17.86 56.21,28.914 90.42,31.082 0.82,0.086 1.66,0.231 2.48,0.305 h -202.01 v -0.004 h 0.01 c 0,0 -0.02,-0.027 -0.03,-0.035 5.46,-18.871 22.67,-32.754 43.3,-32.754" /><path
         id="path48"
         style="fill:#484b57;fill-opacity:1;fill-rule:nonzero;stroke:none"
         d="m 4010.31,495.215 h 6.5 c 3.2,0 5.78,0.824 7.72,2.488 1.95,1.664 2.92,3.774 2.92,6.336 0,3.012 -0.86,5.168 -2.58,6.461 -1.73,1.309 -4.46,1.969 -8.19,1.969 h -6.37 z m 26.1,9.066 c 0,-3.203 -0.85,-6.043 -2.55,-8.508 -1.71,-2.457 -4.09,-4.293 -7.19,-5.496 l 14.31,-23.742 h -10.1 l -12.45,21.27 h -8.12 v -21.27 h -8.89 v 53.567 h 15.69 c 6.66,0 11.53,-1.309 14.64,-3.918 3.11,-2.606 4.66,-6.567 4.66,-11.903 m -57.23,-10.941 c 0,-6.938 1.73,-13.418 5.23,-19.445 3.48,-6.032 8.24,-10.782 14.27,-14.25 6.03,-3.465 12.49,-5.2 19.4,-5.2 6.96,0 13.44,1.743 19.41,5.235 5.98,3.476 10.7,8.199 14.22,14.156 3.51,5.945 5.25,12.457 5.25,19.504 0,6.98 -1.73,13.445 -5.21,19.426 -3.5,5.968 -8.21,10.711 -14.17,14.211 -5.95,3.515 -12.45,5.257 -19.5,5.257 -6.98,0 -13.46,-1.734 -19.43,-5.222 -5.97,-3.489 -10.71,-8.211 -14.21,-14.157 -3.51,-5.957 -5.26,-12.453 -5.26,-19.515 m -6.32,0 c 0,8.015 2,15.531 6.01,22.547 4,7.011 9.53,12.547 16.54,16.586 7,4.054 14.57,6.074 22.67,6.074 8.01,0 15.53,-1.996 22.54,-6.004 7.02,-4.016 12.54,-9.527 16.59,-16.539 4.05,-7.016 6.07,-14.57 6.07,-22.664 0,-7.899 -1.94,-15.317 -5.83,-22.238 -3.89,-6.946 -9.34,-12.485 -16.34,-16.657 -7.02,-4.168 -14.7,-6.254 -23.03,-6.254 -8.3,0 -15.96,2.075 -22.98,6.219 -7.01,4.156 -12.46,9.692 -16.38,16.621 -3.9,6.938 -5.86,14.375 -5.86,22.309" /><path
         id="path50"
         style="fill:#484b57;fill-opacity:1;fill-rule:nonzero;stroke:none"
         d="M 81.2695,88.8516 H 137.441 V 8.5 C 128.703,5.70703 119.816,3.58594 110.77,2.15234 101.73,0.714844 91.2461,0.00390625 79.3516,0.00390625 54.3281,0.00390625 34.8438,7.44531 20.9141,22.3359 6.96875,37.2109 0,58.0586 0,84.8945 c 0,17.1875 3.44922,32.2385 10.3438,45.1485 6.8945,12.937 16.8242,22.801 29.789,29.609 12.9531,6.825 28.1367,10.243 45.5391,10.243 17.6411,0 34.0661,-3.243 49.2851,-9.715 l -7.453,-16.973 c -14.926,6.348 -29.2852,9.512 -43.0704,9.512 -20.1211,0 -35.8281,-5.996 -47.1328,-17.981 -11.3086,-11.992 -16.957,-28.582 -16.957,-49.8435 0,-22.3125 5.4492,-39.2265 16.3359,-50.7422 10.8906,-11.5429 26.875,-17.3046 47.9766,-17.3046 11.457,0 22.6487,1.3203 33.5777,3.957 V 71.6719 H 81.2695 v 17.1797" /><path
         id="path52"
         style="fill:#484b57;fill-opacity:1;fill-rule:nonzero;stroke:none"
         d="M 204.469,126.145 V 45.7852 c 0,-10.0977 2.301,-17.6289 6.894,-22.6094 4.598,-4.9688 11.805,-7.4492 21.594,-7.4492 12.953,0 22.434,3.5234 28.426,10.625 5.996,7.0781 8.98,18.6406 8.98,34.6953 v 65.0981 h 18.77 V 2.26953 h -15.488 l -2.707,16.62107 h -1.02 c -3.848,-6.1133 -9.168,-10.78122 -16,-14.02341 -6.816,-3.23438 -14.602,-4.86328375 -23.336,-4.86328375 -15.066,0 -26.355,3.58203375 -33.852,10.74219375 -7.5,7.1562 -11.246,18.6133 -11.246,34.3633 v 81.0356 h 18.985" /><path
         id="path54"
         style="fill:#484b57;fill-opacity:1;fill-rule:nonzero;stroke:none"
         d="m 372.504,15.4922 c 11.684,0 20.855,3.2031 27.527,9.5976 6.668,6.4258 9.996,15.3829 9.996,26.9141 v 11.1914 l -18.765,-0.789 c -14.907,-0.5274 -25.676,-2.8516 -32.266,-6.9649 -6.594,-4.0898 -9.887,-10.4883 -9.887,-19.1601 0,-6.7657 2.051,-11.9415 6.157,-15.4766 4.113,-3.5469 9.847,-5.3125 17.238,-5.3125 M 414.895,2.26953 411.16,19.8945 h -0.898 C 404.074,12.1406 397.918,6.88672 391.777,4.13281 385.633,1.37891 377.969,0.00390625 368.781,0.00390625 c -12.285,0 -21.914,3.17187375 -28.886,9.50000375 -6.973,6.32029 -10.45,15.34379 -10.45,27.01169 0,25.0117 20,38.125 60.016,39.3282 l 21.019,0.6718 v 7.7071 c 0,9.7148 -2.093,16.8823 -6.273,21.5233 -4.176,4.637 -10.867,6.961 -20.059,6.961 -10.328,0 -22.003,-3.184 -35.039,-9.5 l -5.761,14.344 c 6.097,3.32 12.785,5.918 20.058,7.804 7.274,1.875 14.563,2.833 21.864,2.833 14.781,0 25.722,-3.282 32.843,-9.836 7.117,-6.563 10.684,-17.071 10.684,-31.5317 V 2.26953 h -13.902" /><path
         id="path56"
         style="fill:#484b57;fill-opacity:1;fill-rule:nonzero;stroke:none"
         d="m 534.777,128.41 c 5.508,0 10.438,-0.457 14.805,-1.355 l -2.598,-17.414 c -5.121,1.144 -9.648,1.711 -13.566,1.711 -10.02,0 -18.586,-4.075 -25.711,-12.2192 -7.121,-8.1445 -10.68,-18.2695 -10.68,-30.4101 V 2.26953 H 478.27 V 126.145 h 15.484 l 2.141,-22.938 h 0.902 c 4.598,8.066 10.144,14.266 16.617,18.652 6.481,4.364 13.606,6.551 21.363,6.551" /><path
         id="path58"
         style="fill:#484b57;fill-opacity:1;fill-rule:nonzero;stroke:none"
         d="m 630.215,15.7266 c 12.808,0 22.098,3.4765 27.859,10.4492 5.766,6.9609 8.645,18.2109 8.645,33.75 v 3.9531 c 0,17.5508 -2.918,30.0781 -8.754,37.5781 -5.848,7.492 -15.164,11.25 -27.985,11.25 -10.996,0 -19.421,-4.285 -25.257,-12.8398 -5.84,-8.5469 -8.754,-20.6367 -8.754,-36.2227 0,-15.8203 2.898,-27.7734 8.695,-35.8398 5.813,-8.0664 14.32,-12.0781 25.551,-12.0781 m 37.519,3.164 h -1.015 C 658.047,6.30078 645.094,0.00390625 627.84,0.00390625 c -16.203,0 -28.809,5.54687375 -37.809,16.60939375 -9.004,11.0742 -13.508,26.8476 -13.508,47.2656 0,20.4219 4.524,36.2811 13.555,47.5701 9.051,11.309 21.637,16.961 37.762,16.961 16.801,0 29.687,-6.101 38.656,-18.301 h 1.465 l -0.785,8.918 -0.457,8.711 v 50.399 H 685.48 V 2.26953 h -15.257 l -2.489,16.62107" /><path
         id="path60"
         style="fill:#484b57;fill-opacity:1;fill-rule:nonzero;stroke:none"
         d="M 754.43,2.26953 H 735.664 V 126.145 H 754.43 Z M 734.078,159.719 c 0,4.297 1.055,7.441 3.168,9.433 2.106,2.004 4.742,2.989 7.91,2.989 3.02,0 5.617,-1.004 7.801,-3.036 2.191,-2.042 3.273,-5.167 3.273,-9.386 0,-4.207 -1.082,-7.371 -3.273,-9.434 -2.184,-2.07 -4.781,-3.113 -7.801,-3.113 -3.168,0 -5.804,1.043 -7.91,3.113 -2.113,2.063 -3.168,5.227 -3.168,9.434" /><path
         id="path62"
         style="fill:#484b57;fill-opacity:1;fill-rule:nonzero;stroke:none"
         d="m 837.773,15.4922 c 11.688,0 20.86,3.2031 27.532,9.5976 6.668,6.4258 9.996,15.3829 9.996,26.9141 v 11.1914 l -18.762,-0.789 c -14.91,-0.5274 -25.672,-2.8516 -32.269,-6.9649 -6.594,-4.0898 -9.887,-10.4883 -9.887,-19.1601 0,-6.7657 2.055,-11.9415 6.156,-15.4766 4.109,-3.5469 9.848,-5.3125 17.234,-5.3125 m 42.395,-13.22267 -3.73,17.62497 h -0.903 C 869.348,12.1406 863.191,6.88672 857.051,4.13281 850.906,1.37891 843.242,0.00390625 834.055,0.00390625 c -12.285,0 -21.914,3.17187375 -28.887,9.50000375 -6.973,6.32029 -10.449,15.34379 -10.449,27.01169 0,25.0117 20,38.125 60.015,39.3282 l 21.02,0.6718 v 7.7071 c 0,9.7148 -2.09,16.8823 -6.27,21.5233 -4.179,4.637 -10.871,6.961 -20.062,6.961 -10.328,0 -22,-3.184 -35.039,-9.5 l -5.762,14.344 c 6.098,3.32 12.793,5.918 20.063,7.804 7.269,1.875 14.558,2.833 21.863,2.833 14.777,0 25.723,-3.282 32.844,-9.836 7.113,-6.563 10.683,-17.071 10.683,-31.5317 V 2.26953 h -13.906" /><path
         id="path64"
         style="fill:#484b57;fill-opacity:1;fill-rule:nonzero;stroke:none"
         d="M 1028.31,2.26953 V 82.4141 c 0,10.0898 -2.29,17.6289 -6.89,22.5979 -4.61,4.98 -11.8,7.461 -21.596,7.461 -12.961,0 -22.453,-3.504 -28.484,-10.508 -6.02,-7.0197 -9.035,-18.5744 -9.035,-34.715 V 2.26953 H 943.543 V 126.145 h 15.246 l 3.059,-16.954 h 0.902 c 3.848,6.114 9.23,10.821 16.164,14.18 6.934,3.359 14.656,5.039 23.176,5.039 14.92,0 26.14,-3.601 33.68,-10.801 7.53,-7.187 11.31,-18.7106 11.31,-34.5309 V 2.26953 h -18.77" /><path
         id="path66"
         style="fill:#484b57;fill-opacity:1;fill-rule:nonzero;stroke:none"
         d="m 1175.77,36.0664 c 0,-11.5312 -4.29,-20.418 -12.89,-26.67968 -8.58,-6.25 -20.64,-9.38281375 -36.16,-9.38281375 -16.43,0 -29.23,2.59765375 -38.43,7.81250375 V 25.207 c 5.95,-3.0078 12.34,-5.3906 19.16,-7.1172 6.82,-1.7187 13.4,-2.5976 19.72,-2.5976 9.8,0 17.33,1.5703 22.61,4.6953 5.27,3.125 7.91,7.8906 7.91,14.2891 0,4.832 -2.09,8.9648 -6.28,12.3711 -4.17,3.4375 -12.33,7.4921 -24.47,12.1601 -11.53,4.2852 -19.72,8.0469 -24.58,11.25 -4.85,3.2031 -8.47,6.8438 -10.85,10.8985 -2.37,4.0703 -3.55,8.9453 -3.55,14.5781 0,10.1096 4.1,18.0786 12.31,23.9176 8.21,5.84 19.48,8.758 33.8,8.758 13.33,0 26.37,-2.715 39.11,-8.144 l -6.67,-15.254 c -12.44,5.117 -23.71,7.695 -33.8,7.695 -8.89,0 -15.6,-1.394 -20.12,-4.187 -4.52,-2.793 -6.77,-6.633 -6.77,-11.5434 0,-3.3125 0.84,-6.125 2.54,-8.4688 1.69,-2.332 4.41,-4.5586 8.19,-6.668 3.76,-2.1015 11.01,-5.1679 21.7,-9.1601 14.7,-5.3516 24.62,-10.7227 29.78,-16.1524 5.16,-5.4296 7.74,-12.2578 7.74,-20.4609" /><path
         id="path68"
         style="fill:#484b57;fill-opacity:1;fill-rule:nonzero;stroke:none"
         d="m 1302.13,64.3203 c 0,-15.8203 3.16,-27.8828 9.49,-36.164 6.34,-8.3008 15.63,-12.4297 27.92,-12.4297 12.28,0 21.61,4.1093 27.97,12.3711 6.37,8.2421 9.55,20.3242 9.55,36.2226 0,15.75 -3.18,27.7149 -9.55,35.8987 -6.36,8.164 -15.77,12.254 -28.2,12.254 -12.28,0 -21.55,-4.032 -27.8,-12.098 -6.26,-8.0664 -9.38,-20.0703 -9.38,-36.0547 m 94.37,0 c 0,-20.1875 -5.08,-35.9687 -15.25,-47.2969 -10.17,-11.3359 -24.23,-17.01949375 -42.16,-17.01949375 -11.08,0 -20.91,2.59765375 -29.5,7.81250375 -8.59,5.19529 -15.22,12.64449 -19.9,22.37109 -4.67,9.7188 -7,21.1055 -7,34.1328 0,20.1953 5.04,35.9177 15.14,47.1877 10.1,11.269 24.11,16.902 42.05,16.902 17.33,0 31.1,-5.75 41.31,-17.293 10.21,-11.535 15.31,-27.1287 15.31,-46.7967" /><path
         id="path70"
         style="fill:#484b57;fill-opacity:1;fill-rule:nonzero;stroke:none"
         d="m 1495.46,111.566 h -31.53 V 2.26953 h -18.76 V 111.566 h -22.16 v 8.477 l 22.16,6.785 v 6.895 c 0,30.449 13.29,45.656 39.9,45.656 6.55,0 14.24,-1.32 23.05,-3.957 l -4.86,-15.027 c -7.23,2.343 -13.41,3.503 -18.53,3.503 -7.09,0 -12.33,-2.363 -15.71,-7.058 -3.39,-4.707 -5.09,-12.266 -5.09,-22.668 v -8.027 h 31.53 v -14.579" /><path
         id="path72"
         style="fill:#484b57;fill-opacity:1;fill-rule:nonzero;stroke:none"
         d="m 1641.35,15.4922 c 3.32,0 6.52,0.2539 9.61,0.7422 3.1,0.4765 5.54,0.9844 7.35,1.5312 V 3.39063 c -2.03,-0.96485 -5.03,-1.77735 -8.98,-2.42188 -3.96,-0.632812 -7.52,-0.96484375 -10.68,-0.96484375 -23.97,0 -35.94,12.61719375 -35.94,37.87109375 v 73.691 h -17.75 v 9.051 l 17.75,7.793 7.91,26.457 h 10.85 v -28.722 h 35.94 v -14.579 h -35.94 V 38.6641 c 0,-7.461 1.76,-13.1836 5.31,-17.1758 3.54,-3.9961 8.4,-5.9961 14.57,-5.9961" /><path
         id="path74"
         style="fill:#484b57;fill-opacity:1;fill-rule:nonzero;stroke:none"
         d="M 1780.6,2.26953 V 82.4141 c 0,10.0898 -2.3,17.6289 -6.89,22.5979 -4.61,4.98 -11.8,7.461 -21.59,7.461 -13.05,0 -22.56,-3.543 -28.54,-10.625 -6,-7.0785 -8.99,-18.6917 -8.99,-34.8128 V 2.26953 h -18.76 V 178.137 h 18.76 v -53.231 c 0,-6.398 -0.3,-11.711 -0.9,-15.937 h 1.13 c 3.69,5.945 8.95,10.644 15.76,14.07 6.83,3.438 14.6,5.149 23.35,5.149 15.14,0 26.5,-3.594 34.07,-10.813 7.57,-7.187 11.36,-18.6133 11.36,-34.2969 V 2.26953 h -18.76" /><path
         id="path76"
         style="fill:#484b57;fill-opacity:1;fill-rule:nonzero;stroke:none"
         d="m 1896.49,112.707 c -9.94,0 -17.87,-3.262 -23.78,-9.734 -5.93,-6.4769 -9.41,-15.4417 -10.47,-26.8949 h 64.77 c 0,11.8242 -2.63,20.8789 -7.91,27.1879 -5.28,6.277 -12.81,9.441 -22.61,9.441 m 5.09,-112.70309375 c -18.31,0 -32.76,5.58593375 -43.35,16.72659375 -10.59,11.1523 -15.87,26.6523 -15.87,46.4648 0,19.961 4.91,35.8203 14.74,47.5897 9.84,11.758 23.04,17.625 39.62,17.625 15.52,0 27.8,-5.117 36.85,-15.312 9.04,-10.223 13.56,-23.68 13.56,-40.4183 V 60.8125 h -85.33 c 0.36,-14.5391 4.04,-25.5742 11.01,-33.125 6.97,-7.5195 16.79,-11.2773 29.45,-11.2773 13.34,0 26.52,2.7734 39.56,8.3593 V 8.03125 C 1935.19,5.17969 1928.91,3.11719 1923,1.87891 1917.08,0.617188 1909.95,0.00390625 1901.58,0.00390625" /><path
         id="path78"
         style="fill:#484b57;fill-opacity:1;fill-rule:nonzero;stroke:none"
         d="m 2135.98,152.719 c -18.16,0 -32.5,-6.055 -43.01,-18.156 -10.51,-12.079 -15.77,-28.641 -15.77,-49.6685 0,-21.6406 5.06,-38.3398 15.21,-50.125 10.13,-11.789 24.58,-17.6875 43.34,-17.6875 11.53,0 24.68,2.0625 39.45,6.211 V 6.45703 c -11.46,-4.30469 -25.59,-6.45312375 -42.39,-6.45312375 -24.34,0 -43.12,7.38281375 -56.34,22.15629375 -13.23,14.7656 -19.84,35.7617 -19.84,62.9492 0,17.0506 3.18,31.9646 9.55,44.7776 6.37,12.801 15.56,22.676 27.59,29.609 12.01,6.922 26.15,10.399 42.43,10.399 17.33,0 32.48,-3.165 45.44,-9.5 l -8.14,-16.504 c -12.5,5.879 -25.01,8.828 -37.52,8.828" /><path
         id="path80"
         style="fill:#484b57;fill-opacity:1;fill-rule:nonzero;stroke:none"
         d="m 2229.38,64.3203 c 0,-15.8203 3.17,-27.8828 9.49,-36.164 6.34,-8.3008 15.64,-12.4297 27.92,-12.4297 12.28,0 21.61,4.1093 27.97,12.3711 6.37,8.2421 9.55,20.3242 9.55,36.2226 0,15.75 -3.18,27.7149 -9.55,35.8987 -6.36,8.164 -15.76,12.254 -28.19,12.254 -12.29,0 -21.55,-4.032 -27.81,-12.098 -6.25,-8.0664 -9.38,-20.0703 -9.38,-36.0547 m 94.38,0 c 0,-20.1875 -5.09,-35.9687 -15.26,-47.2969 -10.17,-11.3359 -24.23,-17.01949375 -42.16,-17.01949375 -11.08,0 -20.91,2.59765375 -29.5,7.81250375 -8.59,5.19529 -15.22,12.64449 -19.9,22.37109 -4.67,9.7188 -7,21.1055 -7,34.1328 0,20.1953 5.04,35.9177 15.15,47.1877 10.09,11.269 24.1,16.902 42.04,16.902 17.33,0 31.1,-5.75 41.31,-17.293 10.21,-11.535 15.32,-27.1287 15.32,-46.7967" /><path
         id="path82"
         style="fill:#484b57;fill-opacity:1;fill-rule:nonzero;stroke:none"
         d="M 2452.51,2.26953 V 82.4141 c 0,10.0898 -2.3,17.6289 -6.89,22.5979 -4.61,4.98 -11.8,7.461 -21.6,7.461 -12.96,0 -22.46,-3.504 -28.49,-10.508 -6.02,-7.0197 -9.03,-18.5744 -9.03,-34.715 V 2.26953 h -18.76 V 126.145 h 15.25 l 3.05,-16.954 h 0.9 c 3.85,6.114 9.23,10.821 16.17,14.18 6.93,3.359 14.66,5.039 23.17,5.039 14.92,0 26.15,-3.601 33.68,-10.801 7.54,-7.187 11.31,-18.7106 11.31,-34.5309 V 2.26953 h -18.76" /><path
         id="path84"
         style="fill:#484b57;fill-opacity:1;fill-rule:nonzero;stroke:none"
         d="M 2605.35,2.26953 V 82.4141 c 0,10.0898 -2.3,17.6289 -6.9,22.5979 -4.6,4.98 -11.8,7.461 -21.59,7.461 -12.96,0 -22.45,-3.504 -28.49,-10.508 -6.02,-7.0197 -9.03,-18.5744 -9.03,-34.715 V 2.26953 h -18.77 V 126.145 h 15.26 l 3.05,-16.954 h 0.9 c 3.85,6.114 9.24,10.821 16.16,14.18 6.94,3.359 14.67,5.039 23.18,5.039 14.92,0 26.15,-3.601 33.68,-10.801 7.54,-7.187 11.31,-18.7106 11.31,-34.5309 V 2.26953 h -18.76" /><path
         id="path86"
         style="fill:#484b57;fill-opacity:1;fill-rule:nonzero;stroke:none"
         d="m 2721.23,112.707 c -9.93,0 -17.86,-3.262 -23.78,-9.734 -5.93,-6.4769 -9.41,-15.4417 -10.46,-26.8949 h 64.77 c 0,11.8242 -2.64,20.8789 -7.92,27.1879 -5.27,6.277 -12.8,9.441 -22.61,9.441 m 5.09,-112.70309375 c -18.3,0 -32.76,5.58593375 -43.34,16.72659375 -10.6,11.1523 -15.88,26.6523 -15.88,46.4648 0,19.961 4.92,35.8203 14.75,47.5897 9.83,11.758 23.04,17.625 39.62,17.625 15.52,0 27.79,-5.117 36.84,-15.312 9.05,-10.223 13.57,-23.68 13.57,-40.4183 V 60.8125 h -85.34 c 0.37,-14.5391 4.05,-25.5742 11.02,-33.125 6.97,-7.5195 16.78,-11.2773 29.44,-11.2773 13.34,0 26.52,2.7734 39.56,8.3593 V 8.03125 c -6.63,-2.85156 -12.9,-4.91406 -18.81,-6.15234 -5.92,-1.261722 -13.06,-1.87500375 -21.43,-1.87500375" /><path
         id="path88"
         style="fill:#484b57;fill-opacity:1;fill-rule:nonzero;stroke:none"
         d="m 2865.78,0.00390625 c -17.94,0 -31.82,5.52734375 -41.65,16.56249375 -9.83,11.043 -14.75,26.6602 -14.75,46.8438 0,20.7343 4.99,36.7498 14.97,48.0388 9.99,11.309 24.22,16.961 42.67,16.961 5.96,0 11.91,-0.633 17.86,-1.914 5.95,-1.277 10.62,-2.793 14.02,-4.519 l -5.76,-15.938 c -4.15,1.641 -8.67,3.016 -13.57,4.109 -4.9,1.106 -9.23,1.653 -13,1.653 -25.17,0 -37.75,-16.0666 -37.75,-48.1565 0,-15.2226 3.07,-26.8945 9.21,-35.039 6.14,-8.1446 15.24,-12.1953 27.3,-12.1953 10.33,0 20.91,2.207 31.76,6.6484 V 6.45703 c -8.29,-4.30469 -18.73,-6.45312375 -31.31,-6.45312375" /><path
         id="path90"
         style="fill:#484b57;fill-opacity:1;fill-rule:nonzero;stroke:none"
         d="m 2985.79,15.4922 c 3.32,0 6.52,0.2539 9.61,0.7422 3.09,0.4765 5.53,0.9844 7.35,1.5312 V 3.39063 c -2.04,-0.96485 -5.03,-1.77735 -8.99,-2.42188 -3.95,-0.632812 -7.51,-0.96484375 -10.67,-0.96484375 -23.97,0 -35.94,12.61719375 -35.94,37.87109375 v 73.691 h -17.76 v 9.051 l 17.76,7.793 7.91,26.457 h 10.84 v -28.722 h 35.95 V 111.566 H 2965.9 V 38.6641 c 0,-7.461 1.77,-13.1836 5.32,-17.1758 3.54,-3.9961 8.4,-5.9961 14.57,-5.9961" /><path
         id="path92"
         style="fill:#484b57;fill-opacity:1;fill-rule:nonzero;stroke:none"
         d="m 3084.74,112.707 c -9.94,0 -17.87,-3.262 -23.79,-9.734 -5.92,-6.4769 -9.4,-15.4417 -10.46,-26.8949 h 64.77 c 0,11.8242 -2.64,20.8789 -7.91,27.1879 -5.27,6.277 -12.81,9.441 -22.61,9.441 m 5.09,-112.70309375 c -18.31,0 -32.76,5.58593375 -43.35,16.72659375 -10.59,11.1523 -15.87,26.6523 -15.87,46.4648 0,19.961 4.91,35.8203 14.74,47.5897 9.84,11.758 23.04,17.625 39.62,17.625 15.52,0 27.8,-5.117 36.85,-15.312 9.05,-10.223 13.56,-23.68 13.56,-40.4183 V 60.8125 h -85.33 c 0.37,-14.5391 4.04,-25.5742 11.01,-33.125 6.97,-7.5195 16.78,-11.2773 29.45,-11.2773 13.34,0 26.52,2.7734 39.56,8.3593 V 8.03125 c -6.63,-2.85156 -12.91,-4.91406 -18.82,-6.15234 -5.92,-1.261722 -13.06,-1.87500375 -21.42,-1.87500375" /><path
         id="path94"
         style="fill:#484b57;fill-opacity:1;fill-rule:nonzero;stroke:none"
         d="m 3226.57,15.7266 c 12.81,0 22.1,3.4765 27.86,10.4492 5.77,6.9609 8.65,18.2109 8.65,33.75 v 3.9531 c 0,17.5508 -2.92,30.0781 -8.76,37.5781 -5.84,7.492 -15.16,11.25 -27.98,11.25 -11,0 -19.42,-4.285 -25.26,-12.8398 -5.83,-8.5469 -8.75,-20.6367 -8.75,-36.2227 0,-15.8203 2.9,-27.7734 8.69,-35.8398 5.81,-8.0664 14.32,-12.0781 25.55,-12.0781 m 37.53,3.164 h -1.02 C 3254.41,6.30078 3241.46,0.00390625 3224.2,0.00390625 c -16.21,0 -28.81,5.54687375 -37.81,16.60939375 -9.01,11.0742 -13.5,26.8476 -13.5,47.2656 0,20.4219 4.51,36.2811 13.55,47.5701 9.04,11.309 21.63,16.961 37.76,16.961 16.8,0 29.69,-6.101 38.66,-18.301 h 1.46 l -0.78,8.918 -0.46,8.711 v 50.399 h 18.76 V 2.26953 h -15.26 l -2.48,16.62107" /><path
         id="path96"
         style="fill:#484b57;fill-opacity:1;fill-rule:nonzero;stroke:none"
         d="m 3551.96,2.26953 h -18.99 L 3499.63,112.922 c -1.59,4.902 -3.35,11.074 -5.31,18.535 -1.96,7.473 -2.98,11.945 -3.06,13.457 -1.65,-9.941 -4.29,-20.84 -7.91,-32.676 L 3451.03,2.26953 h -19 L 3388.07,167.512 h 20.34 l 26.11,-102.0589 c 3.62,-14.3164 6.26,-27.2656 7.91,-38.8867 2.04,13.7891 5.05,27.2852 9.05,40.4688 l 29.62,100.4768 h 20.34 l 31.08,-101.387 c 3.61,-11.668 6.67,-24.8633 9.15,-39.5586 1.44,10.7031 4.14,23.7383 8.14,39.1094 l 26,101.8362 h 20.34 L 3551.96,2.26953" /><path
         id="path98"
         style="fill:#484b57;fill-opacity:1;fill-rule:nonzero;stroke:none"
         d="m 3638.78,64.3203 c 0,-15.8203 3.16,-27.8828 9.49,-36.164 6.33,-8.3008 15.64,-12.4297 27.91,-12.4297 12.3,0 21.62,4.1093 27.98,12.3711 6.37,8.2421 9.55,20.3242 9.55,36.2226 0,15.75 -3.18,27.7149 -9.55,35.8987 -6.36,8.164 -15.76,12.254 -28.19,12.254 -12.29,0 -21.55,-4.032 -27.81,-12.098 -6.25,-8.0664 -9.38,-20.0703 -9.38,-36.0547 m 94.38,0 c 0,-20.1875 -5.08,-35.9687 -15.26,-47.2969 -10.17,-11.3359 -24.23,-17.01949375 -42.16,-17.01949375 -11.08,0 -20.91,2.59765375 -29.5,7.81250375 -8.59,5.19529 -15.22,12.64449 -19.9,22.37109 -4.67,9.7188 -7,21.1055 -7,34.1328 0,20.1953 5.05,35.9177 15.14,47.1877 10.1,11.269 24.12,16.902 42.04,16.902 17.35,0 31.12,-5.75 41.32,-17.293 10.21,-11.535 15.32,-27.1287 15.32,-46.7967" /><path
         id="path100"
         style="fill:#484b57;fill-opacity:1;fill-rule:nonzero;stroke:none"
         d="m 3833.64,128.41 c 5.51,0 10.44,-0.457 14.81,-1.355 l -2.6,-17.414 c -5.12,1.144 -9.65,1.711 -13.56,1.711 -10.02,0 -18.59,-4.075 -25.72,-12.2192 -7.12,-8.1445 -10.67,-18.2695 -10.67,-30.4101 V 2.26953 h -18.77 V 126.145 h 15.49 l 2.14,-22.938 h 0.91 c 4.59,8.066 10.13,14.266 16.62,18.652 6.47,4.364 13.6,6.551 21.35,6.551" /><path
         id="path102"
         style="fill:#484b57;fill-opacity:1;fill-rule:nonzero;stroke:none"
         d="m 3903.94,2.26953 h -18.76 V 178.137 h 18.76 V 2.26953" /><path
         id="path104"
         style="fill:#484b57;fill-opacity:1;fill-rule:nonzero;stroke:none"
         d="m 4002.09,15.7266 c 12.81,0 22.1,3.4765 27.86,10.4492 5.76,6.9609 8.65,18.2109 8.65,33.75 v 3.9531 c 0,17.5508 -2.92,30.0781 -8.75,37.5781 -5.85,7.492 -15.17,11.25 -27.99,11.25 -11,0 -19.42,-4.285 -25.26,-12.8398 -5.84,-8.5469 -8.76,-20.6367 -8.76,-36.2227 0,-15.8203 2.9,-27.7734 8.7,-35.8398 5.82,-8.0664 14.32,-12.0781 25.55,-12.0781 m 37.52,3.164 h -1.01 c -8.67,-12.58982 -21.63,-18.88669375 -38.88,-18.88669375 -16.2,0 -28.81,5.54687375 -37.8,16.60939375 -9.02,11.0742 -13.52,26.8476 -13.52,47.2656 0,20.4219 4.52,36.2811 13.56,47.5701 9.05,11.309 21.64,16.961 37.76,16.961 16.8,0 29.69,-6.101 38.65,-18.301 h 1.47 l -0.79,8.918 -0.45,8.711 v 50.399 h 18.76 V 2.26953 h -15.26 l -2.49,16.62107" /></g></g></svg>