<?xml version="1.0" encoding="UTF-8" standalone="no"?>
<svg
   xmlns:dc="http://purl.org/dc/elements/1.1/"
   xmlns:cc="http://creativecommons.org/ns#"
   xmlns:rdf="http://www.w3.org/1999/02/22-rdf-syntax-ns#"
   xmlns:svg="http://www.w3.org/2000/svg"
   xmlns="http://www.w3.org/2000/svg"
   viewBox="0 0 212.01334 68.68"
   height="68.68"
   width="212.01334"
   xml:space="preserve"
   id="svg2"
   version="1.1"><metadata
     id="metadata8"><rdf:RDF><cc:Work
         rdf:about=""><dc:format>image/svg+xml</dc:format><dc:type
           rdf:resource="http://purl.org/dc/dcmitype/StillImage" /><dc:title></dc:title></cc:Work></rdf:RDF></metadata><defs
     id="defs6" /><g
     transform="matrix(1.3333333,0,0,-1.3333333,0,68.68)"
     id="g10"><g
       transform="scale(0.1)"
       id="g12"><path
         id="path14"
         style="fill:#231f20;fill-opacity:1;fill-rule:nonzero;stroke:none"
         d="M 0,65.5898 H 9.51563 V 1.67188 H 0 Z M 0,86.8164 H 9.51563 V 75.3672 H 0 v 11.4492" /><path
         id="path16"
         style="fill:#231f20;fill-opacity:1;fill-rule:nonzero;stroke:none"
         d="m 22.5313,65.5898 h 9.0664 v -7.5117 h 0.2226 c 2.4922,5.8438 8.836,9.1797 14.7266,9.1797 15.9726,0 15.9726,-12.7617 15.9726,-20.2734 V 1.67188 H 53.0039 V 45.793 c 0,4.8867 -0.3398,12.8789 -8.9492,12.8789 -5.0977,0 -12.0078,-3.5742 -12.0078,-12.8789 V 1.67188 H 22.5313 V 65.5898" /><path
         id="path18"
         style="fill:#231f20;fill-opacity:1;fill-rule:nonzero;stroke:none"
         d="m 77.793,57.7188 h -8.836 v 7.871 h 8.836 v 7.5157 c 0,9.6562 3.9648,14.664 13.1445,14.664 h 6.9063 v -8.5859 h -4.4141 c -4.082,0 -6.1172,-1.6719 -6.1172,-6.0781 v -7.5157 h 10.418 v -7.871 H 87.3125 V 1.67188 H 77.793 V 57.7188" /><path
         id="path20"
         style="fill:#231f20;fill-opacity:1;fill-rule:nonzero;stroke:none"
         d="m 104.289,65.5898 h 9.512 v -9.5429 h 0.23 c 2.715,6.082 6.34,11.2109 13.137,11.2109 1.93,0 3.289,-0.2344 4.191,-0.7148 v -9.7774 c -0.902,0.1211 -2.039,0.4727 -5.097,0.4727 -4.758,0 -12.461,-4.5274 -12.461,-15.1406 V 1.67188 h -9.512 V 65.5898" /><path
         id="path22"
         style="fill:#231f20;fill-opacity:1;fill-rule:nonzero;stroke:none"
         d="m 165.672,36.4961 c -3.512,-3.9375 -11.895,-4.7773 -16.195,-7.5117 -3.059,-2.0313 -4.645,-4.5352 -4.645,-10.1446 0,-6.4335 2.152,-10.96871 8.606,-10.96871 6.23,0 12.234,5.60941 12.234,12.16801 z m -29.336,9.7734 c 0,14.5547 5.891,20.9883 20.391,20.9883 18.461,0 18.461,-11.6836 18.461,-18.3633 V 13.2383 c 0,-2.6211 0,-5.12892 2.945,-5.12892 1.246,0 1.812,0.24218 2.265,0.59375 V 1.55078 c -0.679,-0.11719 -3.171,-0.589842 -5.546,-0.589842 -3.625,0 -8.161,0 -8.614,8.222652 h -0.226 C 162.957,3.46484 157.063,0 151.398,0 140.07,0 134.859,7.16016 134.859,18.6055 c 0,8.9453 3.625,15.1484 11.442,17.6523 l 12.801,4.0547 c 6.91,2.2617 6.91,4.2891 6.91,9.6563 0,5.9609 -3.399,9.4218 -9.739,9.4218 -10.421,0 -10.421,-10.2539 -10.421,-12.5273 v -0.5938 h -9.516" /><path
         id="path24"
         style="fill:#231f20;fill-opacity:1;fill-rule:nonzero;stroke:none"
         d="m 214.133,46.8633 c 0,8.1133 -2.039,12.5273 -8.945,12.5273 -3.059,0 -9.856,-0.8398 -9.856,-9.7812 0,-7.5117 7.473,-8.9453 14.953,-11.5703 7.363,-2.625 14.84,-5.3594 14.84,-18 C 225.125,6.55859 216.855,0 205.527,0 184.91,0 184.684,16.1055 184.684,22.6641 h 9.515 c 0,-7.7539 2.039,-14.79301 11.328,-14.79301 3.059,0 10.082,1.55469 10.082,10.61721 0,8.582 -7.476,10.375 -14.839,13 -7.364,2.6172 -14.954,4.8867 -14.954,18.1211 0,11.9258 8.836,17.6484 19.372,17.6484 17.667,0 18.347,-12.875 18.464,-20.3945 h -9.519" /><path
         id="path26"
         style="fill:#231f20;fill-opacity:1;fill-rule:nonzero;stroke:none"
         d="m 237,84.1914 h 9.52 V 65.5898 h 10.531 v -7.871 H 246.52 V 16.6953 c 0,-5.1289 1.242,-7.15233 6.226,-7.15233 2.039,0 3.172,0.24219 4.192,0.35937 V 1.67188 C 255.695,1.43359 253.203,0.960938 249.234,0.960938 239.383,0.960938 237,5.24609 237,13.6016 v 44.1172 h -8.836 v 7.871 H 237 v 18.6016" /><path
         id="path28"
         style="fill:#231f20;fill-opacity:1;fill-rule:nonzero;stroke:none"
         d="m 263.496,65.5898 h 9.512 v -9.5429 h 0.23 c 2.715,6.082 6.34,11.2109 13.137,11.2109 1.926,0 3.289,-0.2344 4.191,-0.7148 v -9.7774 c -0.902,0.1211 -2.039,0.4727 -5.097,0.4727 -4.758,0 -12.461,-4.5274 -12.461,-15.1406 V 1.67188 h -9.512 V 65.5898" /><path
         id="path30"
         style="fill:#231f20;fill-opacity:1;fill-rule:nonzero;stroke:none"
         d="m 337,1.67188 h -9.062 v 7.51171 h -0.227 C 325.219,3.34375 318.875,0 312.988,0 297.016,0 297.016,12.7617 297.016,20.2734 v 45.3164 h 9.511 v -44.125 c 0,-4.8906 0.34,-12.87496 8.953,-12.87496 5.098,0 12.004,3.57816 12.004,12.87496 v 44.125 H 337 V 1.67188" /><path
         id="path32"
         style="fill:#231f20;fill-opacity:1;fill-rule:nonzero;stroke:none"
         d="m 378.328,46.1523 c 0,6.1993 -2.383,13.2383 -9.633,13.2383 -5.886,0 -11.89,-3.1015 -11.89,-26.4804 0,-8.3438 0.109,-25.03911 11.554,-25.03911 8.153,0 9.969,9.06641 9.969,15.98441 h 9.512 C 387.84,13.7188 383.086,0 367.906,0 c -14.84,0 -21.07,10.8555 -21.07,32.8008 0,15.9765 2.945,34.457 21.637,34.457 16.539,0 19.367,-13.7148 19.367,-21.1055 h -9.512" /><path
         id="path34"
         style="fill:#231f20;fill-opacity:1;fill-rule:nonzero;stroke:none"
         d="m 400.512,84.1914 h 9.515 V 65.5898 h 10.536 v -7.871 H 410.027 V 16.6953 c 0,-5.1289 1.246,-7.15233 6.231,-7.15233 2.039,0 3.172,0.24219 4.191,0.35937 V 1.67188 c -1.246,-0.23829 -3.738,-0.710942 -7.703,-0.710942 -9.855,0 -12.234,4.285152 -12.234,12.640662 v 44.1172 h -8.836 v 7.871 h 8.836 v 18.6016" /><path
         id="path36"
         style="fill:#231f20;fill-opacity:1;fill-rule:nonzero;stroke:none"
         d="m 466.992,1.67188 h -9.062 v 7.51171 h -0.227 C 455.211,3.34375 448.867,0 442.977,0 427.004,0 427.004,12.7617 427.004,20.2734 v 45.3164 h 9.516 v -44.125 c 0,-4.8906 0.339,-12.87496 8.953,-12.87496 5.097,0 12.004,3.57816 12.004,12.87496 v 44.125 h 9.515 V 1.67188" /><path
         id="path38"
         style="fill:#231f20;fill-opacity:1;fill-rule:nonzero;stroke:none"
         d="m 479.438,65.5898 h 9.511 v -9.5429 h 0.231 c 2.718,6.082 6.34,11.2109 13.136,11.2109 1.926,0 3.289,-0.2344 4.192,-0.7148 v -9.7774 c -0.903,0.1211 -2.039,0.4727 -5.098,0.4727 -4.758,0 -12.461,-4.5274 -12.461,-15.1406 V 1.67188 h -9.511 V 65.5898" /><path
         id="path40"
         style="fill:#231f20;fill-opacity:1;fill-rule:nonzero;stroke:none"
         d="m 542.855,40.3125 v 3.457 c 0,7.1524 -2.148,15.6211 -10.535,15.6211 -9.968,0 -11.097,-12.8789 -11.097,-16.6953 v -2.3828 z m -21.976,-7.8711 c 0,-9.7773 0,-24.57031 11.672,-24.57031 9.058,0 10.304,10.01561 10.304,14.79301 h 9.516 C 552.371,15.8633 548.52,0 531.984,0 517.141,0 510.91,10.8555 510.91,32.8008 c 0,15.9765 2.949,34.457 21.641,34.457 18.578,0 20.273,-17.0508 20.273,-30.7617 v -4.0547 h -31.945" /><path
         id="path42"
         style="fill:#231f20;fill-opacity:1;fill-rule:nonzero;stroke:none"
         d="m 593.238,57.7188 h -8.84 v 7.871 h 8.84 v 7.5157 c 0,9.6562 3.961,14.664 13.137,14.664 h 6.91 v -8.5859 h -4.418 c -4.078,0 -6.117,-1.6719 -6.117,-6.0781 v -7.5157 h 10.422 v -7.871 H 602.75 V 1.67188 h -9.512 V 57.7188" /><path
         id="path44"
         style="fill:#231f20;fill-opacity:1;fill-rule:nonzero;stroke:none"
         d="m 650.543,33.6328 c 0,13.832 -1.93,25.7578 -12.125,25.7578 -9.625,0 -11.664,-11.9258 -11.664,-25.7578 0,-13.832 1.922,-25.76171 11.664,-25.76171 10.086,0 12.125,11.92971 12.125,25.76171 z m -11.895,33.625 c 17.551,0 21.86,-15.6172 21.86,-33.625 C 660.508,15.625 656.09,0 638.648,0 621.09,0 616.781,15.625 616.781,33.6328 c 0,18.0078 4.418,33.625 21.867,33.625" /><path
         id="path46"
         style="fill:#231f20;fill-opacity:1;fill-rule:nonzero;stroke:none"
         d="m 670.008,65.5898 h 9.512 v -9.5429 h 0.23 c 2.719,6.082 6.344,11.2109 13.137,11.2109 1.929,0 3.289,-0.2344 4.191,-0.7148 v -9.7774 c -0.902,0.1211 -2.039,0.4727 -5.098,0.4727 -4.757,0 -12.46,-4.5274 -12.46,-15.1406 V 1.67188 h -9.512 V 65.5898" /><path
         id="path48"
         style="fill:#231f20;fill-opacity:1;fill-rule:nonzero;stroke:none"
         d="m 758.563,36.4961 c -3.508,-3.9375 -11.891,-4.7773 -16.196,-7.5117 -3.058,-2.0313 -4.644,-4.5352 -4.644,-10.1446 0,-6.4335 2.148,-10.96871 8.613,-10.96871 6.23,0 12.227,5.60941 12.227,12.16801 z m -29.336,9.7734 c 0,14.5547 5.89,20.9883 20.39,20.9883 18.465,0 18.465,-11.6836 18.465,-18.3633 V 13.2383 c 0,-2.6211 0,-5.12892 2.941,-5.12892 1.25,0 1.813,0.24218 2.274,0.59375 V 1.55078 c -0.684,-0.11719 -3.176,-0.589842 -5.559,-0.589842 -3.621,0 -8.156,0 -8.605,8.222652 h -0.227 C 755.848,3.46484 749.957,0 744.297,0 c -11.328,0 -16.539,7.16016 -16.539,18.6055 0,8.9453 3.621,15.1484 11.437,17.6523 l 12.801,4.0547 c 6.91,2.2617 6.91,4.2891 6.91,9.6563 0,5.9609 -3.402,9.4218 -9.746,9.4218 -10.422,0 -10.422,-10.2539 -10.422,-12.5273 v -0.5938 h -9.511" /><path
         id="path50"
         style="fill:#231f20;fill-opacity:1;fill-rule:nonzero;stroke:none"
         d="m 837.035,46.1523 c 0,6.1993 -2.379,13.2383 -9.629,13.2383 -5.89,0 -11.894,-3.1015 -11.894,-26.4804 0,-8.3438 0.109,-25.03911 11.551,-25.03911 8.156,0 9.972,9.06641 9.972,15.98441 h 9.512 C 846.547,13.7188 841.797,0 826.613,0 c -14.836,0 -21.074,10.8555 -21.074,32.8008 0,15.9765 2.945,34.457 21.637,34.457 16.539,0 19.371,-13.7148 19.371,-21.1055 h -9.512" /><path
         id="path52"
         style="fill:#231f20;fill-opacity:1;fill-rule:nonzero;stroke:none"
         d="m 887.203,33.6328 c 0,13.832 -1.926,25.7578 -12.121,25.7578 -9.629,0 -11.664,-11.9258 -11.664,-25.7578 0,-13.832 1.926,-25.76171 11.664,-25.76171 10.082,0 12.121,11.92971 12.121,25.76171 z m -11.898,33.625 c 17.558,0 21.863,-15.6172 21.863,-33.625 C 897.168,15.625 892.754,0 875.305,0 c -17.555,0 -21.86,15.625 -21.86,33.6328 0,18.0078 4.414,33.625 21.86,33.625" /><path
         id="path54"
         style="fill:#231f20;fill-opacity:1;fill-rule:nonzero;stroke:none"
         d="m 906.668,65.5898 h 9.062 v -7.5117 h 0.227 c 2.488,5.8438 8.836,9.1797 14.723,9.1797 15.976,0 15.976,-12.7617 15.976,-20.2734 V 1.67188 h -9.523 V 45.793 c 0,4.8867 -0.336,12.8789 -8.942,12.8789 -5.097,0 -12.011,-3.5742 -12.011,-12.8789 V 1.67188 h -9.512 V 65.5898" /><path
         id="path56"
         style="fill:#231f20;fill-opacity:1;fill-rule:nonzero;stroke:none"
         d="m 959.094,65.5898 h 9.062 v -7.5117 h 0.227 c 2.488,5.8438 8.84,9.1797 14.722,9.1797 15.977,0 15.977,-12.7617 15.977,-20.2734 V 1.67188 h -9.519 V 45.793 c 0,4.8867 -0.34,12.8789 -8.946,12.8789 -5.097,0 -12.008,-3.5742 -12.008,-12.8789 V 1.67188 h -9.515 V 65.5898" /><path
         id="path58"
         style="fill:#231f20;fill-opacity:1;fill-rule:nonzero;stroke:none"
         d="m 1041.43,40.3125 v 3.457 c 0,7.1524 -2.16,15.6211 -10.54,15.6211 -9.97,0 -11.1,-12.8789 -11.1,-16.6953 v -2.3828 z m -21.98,-7.8711 c 0,-9.7773 0,-24.57031 11.67,-24.57031 9.06,0 10.31,10.01561 10.31,14.79301 h 9.51 C 1050.94,15.8633 1047.09,0 1030.55,0 c -14.84,0 -21.07,10.8555 -21.07,32.8008 0,15.9765 2.95,34.457 21.64,34.457 18.58,0 20.28,-17.0508 20.28,-30.7617 v -4.0547 h -31.95" /><path
         id="path60"
         style="fill:#231f20;fill-opacity:1;fill-rule:nonzero;stroke:none"
         d="m 1090.68,46.1523 c 0,6.1993 -2.37,13.2383 -9.62,13.2383 -5.9,0 -11.9,-3.1015 -11.9,-26.4804 0,-8.3438 0.11,-25.03911 11.55,-25.03911 8.16,0 9.97,9.06641 9.97,15.98441 h 9.52 C 1100.2,13.7188 1095.44,0 1080.26,0 c -14.84,0 -21.07,10.8555 -21.07,32.8008 0,15.9765 2.94,34.457 21.63,34.457 16.54,0 19.38,-13.7148 19.38,-21.1055 h -9.52" /><path
         id="path62"
         style="fill:#231f20;fill-opacity:1;fill-rule:nonzero;stroke:none"
         d="m 1112.87,84.1914 h 9.51 V 65.5898 h 10.53 v -7.871 h -10.53 V 16.6953 c 0,-5.1289 1.24,-7.15233 6.23,-7.15233 2.04,0 3.17,0.24219 4.19,0.35937 V 1.67188 c -1.24,-0.23829 -3.74,-0.710942 -7.7,-0.710942 -9.86,0 -12.23,4.285152 -12.23,12.640662 v 44.1172 h -8.84 v 7.871 h 8.84 v 18.6016" /><path
         id="path64"
         style="fill:#231f20;fill-opacity:1;fill-rule:nonzero;stroke:none"
         d="m 1169.27,40.3125 v 3.457 c 0,7.1524 -2.16,15.6211 -10.54,15.6211 -9.97,0 -11.1,-12.8789 -11.1,-16.6953 v -2.3828 z m -21.98,-7.8711 c 0,-9.7773 0,-24.57031 11.67,-24.57031 9.06,0 10.31,10.01561 10.31,14.79301 h 9.51 C 1178.78,15.8633 1174.93,0 1158.39,0 c -14.84,0 -21.07,10.8555 -21.07,32.8008 0,15.9765 2.95,34.457 21.64,34.457 18.57,0 20.28,-17.0508 20.28,-30.7617 v -4.0547 h -31.95" /><path
         id="path66"
         style="fill:#231f20;fill-opacity:1;fill-rule:nonzero;stroke:none"
         d="m 1208.44,8.58984 c 10.53,0 12.23,10.48826 12.23,25.04296 0,12.3985 -2.04,25.0391 -12.23,25.0391 -8.83,0 -11.11,-9.7774 -11.11,-25.0391 0,-15.2656 2.28,-25.04296 11.11,-25.04296 z m 21.18,-6.91796 h -9.06 v 7.87109 h -0.22 C 1219.08,4.77734 1213.76,0 1207.19,0 c -14.38,0 -19.82,13.4805 -19.82,33.6328 0,13.3516 2.04,33.625 19.14,33.625 5.44,0 11.22,-3.457 13.37,-8.9453 h 0.22 v 28.5039 h 9.52 V 1.67188" /><path
         id="path68"
         style="fill:#231f20;fill-opacity:1;fill-rule:nonzero;stroke:none"
         d="m 1264.14,65.5898 h 9.97 l 9.74,-52.2304 h 0.23 l 10.3,52.2304 h 11.22 l 10.08,-52.2304 h 0.23 l 9.4,52.2304 h 9.97 L 1320.89,1.67188 h -10.42 l -10.64,52.23042 h -0.24 L 1289.4,1.67188 h -11.1 l -14.16,63.91792" /><path
         id="path70"
         style="fill:#231f20;fill-opacity:1;fill-rule:nonzero;stroke:none"
         d="m 1373.43,33.6328 c 0,13.832 -1.92,25.7578 -12.12,25.7578 -9.63,0 -11.67,-11.9258 -11.67,-25.7578 0,-13.832 1.93,-25.76171 11.67,-25.76171 10.08,0 12.12,11.92971 12.12,25.76171 z m -11.89,33.625 c 17.55,0 21.86,-15.6172 21.86,-33.625 C 1383.4,15.625 1378.98,0 1361.54,0 c -17.56,0 -21.87,15.625 -21.87,33.6328 0,18.0078 4.42,33.625 21.87,33.625" /><path
         id="path72"
         style="fill:#231f20;fill-opacity:1;fill-rule:nonzero;stroke:none"
         d="m 1392.89,65.5898 h 9.52 v -9.5429 h 0.22 c 2.73,6.082 6.35,11.2109 13.15,11.2109 1.92,0 3.28,-0.2344 4.19,-0.7148 v -9.7774 c -0.91,0.1211 -2.04,0.4727 -5.1,0.4727 -4.75,0 -12.46,-4.5274 -12.46,-15.1406 V 1.67188 h -9.52 V 65.5898" /><path
         id="path74"
         style="fill:#231f20;fill-opacity:1;fill-rule:nonzero;stroke:none"
         d="m 1426.98,86.8164 h 9.51 V 1.67188 h -9.51 V 86.8164" /><path
         id="path76"
         style="fill:#231f20;fill-opacity:1;fill-rule:nonzero;stroke:none"
         d="m 1468.32,8.58984 c 10.53,0 12.23,10.48826 12.23,25.04296 0,12.3985 -2.04,25.0391 -12.23,25.0391 -8.84,0 -11.11,-9.7774 -11.11,-25.0391 0,-15.2656 2.27,-25.04296 11.11,-25.04296 z m 21.18,-6.91796 h -9.06 v 7.87109 h -0.23 C 1478.96,4.77734 1473.64,0 1467.07,0 c -14.39,0 -19.82,13.4805 -19.82,33.6328 0,13.3516 2.04,33.625 19.14,33.625 5.44,0 11.21,-3.457 13.37,-8.9453 h 0.22 v 28.5039 h 9.52 V 1.67188" /><path
         id="path78"
         style="fill:#231f20;fill-opacity:1;fill-rule:nonzero;stroke:none"
         d="m 869.547,252.145 c 0,-12.18 -5.918,-17.278 -12.59,-17.278 h -23.223 v 143.188 h 20.852 c 9.043,0 14.961,-7.485 14.961,-17.332 z m 33.418,180.988 H 741.676 V 171.129 h 161.289 c 24.004,0 42.898,7.051 42.898,35.769 v 190.797 c -0.429,21.668 -18.894,35.438 -42.898,35.438 m 390.255,-0.789 v -53.531 h 57.46 V 171.656 h 79.84 v 207.157 h 58.22 v 53.531 z M 1096.88,247.281 c -0.04,-6.015 1.04,-18.008 -7.44,-17.843 l -20.67,-0.059 c -9.17,0 -9.6,9.512 -9.84,17.902 l 0.22,185.891 H 974.02 V 225.973 c 0,-50.938 53.68,-54.317 53.68,-54.317 h 92.79 c 46.3,0 45.66,53.465 45.66,53.465 v 207.688 h -69.66 l 0.39,-185.528 m 98.05,-75.625 h 81.78 v 261.153 h -81.78 z m -833.442,101.547 26.555,70.824 26.367,-71.011 z m -156.82,84.145 c 0,-9.442 -6.27,-17.356 -16.504,-17.75 h -27.926 v 123.554 h 27.926 c 10.234,0.774 16.141,-7.918 16.504,-18.132 z m 429.984,-23.223 -35.339,98.684 H 497.387 V 257.965 l -67.668,174.844 h -81.406 c -11.559,48.23 -46.278,81 -109.02,82.25 L 0.175781,514.688 V 171.422 H 152.75 v 111.926 h 89.301 c 17.336,0.09 33.109,3.078 46.976,8.507 L 240.488,171.656 h 85.774 l 18.16,47.364 81.746,-0.196 18.883,-47.168 h 126.301 v 97.914 l 40.91,-97.914 h 95.605 v 261.153 h -73.215 v -98.684" /><path
         id="path80"
         style="fill:#231f20;fill-opacity:1;fill-rule:nonzero;stroke:none"
         d="m 1503.59,432.133 h 37.11 v -5.485 h -15.47 V 386.41 h -6.15 v 40.238 h -15.49 v 5.485" /><path
         id="path82"
         style="fill:#231f20;fill-opacity:1;fill-rule:nonzero;stroke:none"
         d="m 1584.06,386.41 v 26.988 c 0,1.344 0.11,7.137 0.11,11.411 h -0.11 l -12.84,-38.399 h -6.15 l -12.84,38.332 h -0.13 c 0,-4.207 0.13,-10 0.13,-11.344 V 386.41 h -5.94 v 45.723 h 8.77 l 13.07,-38.633 h 0.16 l 12.96,38.633 h 8.8 V 386.41 h -5.99" /></g></g></svg>